# MagicaVoxel @ Ephtracy

# group
o 

# material
mtllib compBLOCk1.mtl
usemtl palette

# normals
vn -1 0 0
vn 1 0 0
vn 0 0 1
vn 0 0 -1
vn 0 -1 0
vn 0 1 0

# texcoords
vt 0.783203 0.5
vt 0.787109 0.5

# verts
v -0.9 0 1
v -0.9 0 -0.4
v -0.9 0.2 1
v -0.9 0.2 -0.4
v -0.9 0.3 1
v -0.9 0.3 -0.4
v -0.9 0.5 0.6
v -0.9 0.5 -1.19209e-07
v -0.9 0.6 0.7
v -0.9 0.6 0.6
v -0.9 0.6 -1.19209e-07
v -0.9 0.6 -0.1
v -0.9 0.7 0.7
v -0.9 0.7 0.6
v -0.9 0.7 -1.19209e-07
v -0.9 0.7 -0.1
v -0.9 0.8 0.6
v -0.9 0.8 -1.19209e-07
v -0.9 0.9 1
v -0.9 0.9 -0.4
v -0.9 1 1
v -0.9 1 -0.4
v -0.9 1.4 0.4
v -0.9 1.4 0.2
v -0.9 1.5 0.5
v -0.9 1.5 0.4
v -0.9 1.5 0.2
v -0.9 1.5 0.0999999
v -0.9 1.7 0.5
v -0.9 1.7 0.4
v -0.9 1.7 0.2
v -0.9 1.7 0.0999999
v -0.9 1.8 0.4
v -0.9 1.8 0.2
v -0.9 1.9 1
v -0.9 1.9 0.9
v -0.9 1.9 -0.3
v -0.9 1.9 -0.4
v -0.9 2 0.9
v -0.9 2 -0.3
v -0.8 1.9 1
v -0.8 1.9 0.9
v -0.8 1.9 -0.3
v -0.8 1.9 -0.4
v -0.8 2 1
v -0.8 2 0.9
v -0.8 2 -0.3
v -0.8 2 -0.4
v 1.2 1.9 1
v 1.2 1.9 0.9
v 1.2 1.9 -0.3
v 1.2 1.9 -0.4
v 1.2 2 1
v 1.2 2 0.9
v 1.2 2 -0.3
v 1.2 2 -0.4
v 1.3 0 1
v 1.3 0 -0.4
v 1.3 0.2 1
v 1.3 0.2 -0.4
v 1.3 0.3 1
v 1.3 0.3 -0.4
v 1.3 0.9 1
v 1.3 0.9 -0.4
v 1.3 1 1
v 1.3 1 -0.4
v 1.3 1.9 1
v 1.3 1.9 0.9
v 1.3 1.9 -0.3
v 1.3 1.9 -0.4
v 1.3 2 0.9
v 1.3 2 -0.3
v -0.9 0 1
v -0.9 0.2 1
v -0.9 0.3 1
v -0.9 0.9 1
v -0.9 1 1
v -0.9 1.9 1
v -0.8 1.9 1
v -0.8 2 1
v 1.2 1.9 1
v 1.2 2 1
v 1.3 0 1
v 1.3 0.2 1
v 1.3 0.3 1
v 1.3 0.9 1
v 1.3 1 1
v 1.3 1.9 1
v -0.9 1.9 0.9
v -0.9 2 0.9
v -0.8 1.9 0.9
v -0.8 2 0.9
v 1.2 1.9 0.9
v 1.2 2 0.9
v 1.3 1.9 0.9
v 1.3 2 0.9
v -0.9 1.9 -0.3
v -0.9 2 -0.3
v -0.8 1.9 -0.3
v -0.8 2 -0.3
v 1.2 1.9 -0.3
v 1.2 2 -0.3
v 1.3 1.9 -0.3
v 1.3 2 -0.3
v -0.9 0 -0.4
v -0.9 0.2 -0.4
v -0.9 0.3 -0.4
v -0.9 0.9 -0.4
v -0.9 1 -0.4
v -0.9 1.9 -0.4
v -0.8 1.9 -0.4
v -0.8 2 -0.4
v 1.2 1.9 -0.4
v 1.2 2 -0.4
v 1.3 0 -0.4
v 1.3 0.2 -0.4
v 1.3 0.3 -0.4
v 1.3 0.9 -0.4
v 1.3 1 -0.4
v 1.3 1.9 -0.4
v -0.9 0 1
v 1.3 0 1
v -0.9 0 -0.4
v 1.3 0 -0.4
v -0.9 1.9 1
v -0.8 1.9 1
v 1.2 1.9 1
v 1.3 1.9 1
v -0.9 1.9 0.9
v -0.8 1.9 0.9
v 1.2 1.9 0.9
v 1.3 1.9 0.9
v -0.9 1.9 -0.3
v -0.8 1.9 -0.3
v 1.2 1.9 -0.3
v 1.3 1.9 -0.3
v -0.9 1.9 -0.4
v -0.8 1.9 -0.4
v 1.2 1.9 -0.4
v 1.3 1.9 -0.4
v -0.8 2 1
v 1.2 2 1
v -0.9 2 0.9
v -0.8 2 0.9
v 1.2 2 0.9
v 1.3 2 0.9
v -0.9 2 -0.3
v -0.8 2 -0.3
v 1.2 2 -0.3
v 1.3 2 -0.3
v -0.8 2 -0.4
v 1.2 2 -0.4

# faces
f 3/1/1 2/1/1 1/1/1
f 4/1/1 2/1/1 3/1/1
f 5/2/1 4/2/1 3/2/1
f 6/2/1 4/2/1 5/2/1
f 7/1/1 6/1/1 5/1/1
f 8/1/1 6/1/1 7/1/1
f 9/1/1 7/1/1 5/1/1
f 10/2/1 8/2/1 7/2/1
f 10/1/1 7/1/1 9/1/1
f 11/1/1 6/1/1 8/1/1
f 11/2/1 8/2/1 10/2/1
f 12/1/1 6/1/1 11/1/1
f 13/2/1 10/2/1 9/2/1
f 13/1/1 9/1/1 5/1/1
f 14/1/1 11/1/1 10/1/1
f 14/2/1 10/2/1 13/2/1
f 15/2/1 12/2/1 11/2/1
f 15/1/1 11/1/1 14/1/1
f 16/1/1 6/1/1 12/1/1
f 16/2/1 12/2/1 15/2/1
f 17/2/1 15/2/1 14/2/1
f 17/1/1 14/1/1 13/1/1
f 18/1/1 16/1/1 15/1/1
f 18/2/1 15/2/1 17/2/1
f 19/1/1 17/1/1 13/1/1
f 19/1/1 13/1/1 5/1/1
f 19/1/1 18/1/1 17/1/1
f 20/1/1 6/1/1 16/1/1
f 20/1/1 18/1/1 19/1/1
f 20/1/1 16/1/1 18/1/1
f 21/2/1 20/2/1 19/2/1
f 22/2/1 20/2/1 21/2/1
f 23/1/1 22/1/1 21/1/1
f 24/1/1 22/1/1 23/1/1
f 25/1/1 23/1/1 21/1/1
f 26/2/1 24/2/1 23/2/1
f 26/1/1 23/1/1 25/1/1
f 27/1/1 22/1/1 24/1/1
f 27/2/1 24/2/1 26/2/1
f 28/1/1 22/1/1 27/1/1
f 29/2/1 26/2/1 25/2/1
f 29/1/1 25/1/1 21/1/1
f 30/1/1 27/1/1 26/1/1
f 30/2/1 26/2/1 29/2/1
f 31/2/1 28/2/1 27/2/1
f 31/1/1 27/1/1 30/1/1
f 32/1/1 22/1/1 28/1/1
f 32/2/1 28/2/1 31/2/1
f 33/2/1 31/2/1 30/2/1
f 33/1/1 30/1/1 29/1/1
f 34/1/1 32/1/1 31/1/1
f 34/2/1 31/2/1 33/2/1
f 35/1/1 33/1/1 29/1/1
f 35/1/1 29/1/1 21/1/1
f 35/1/1 34/1/1 33/1/1
f 36/1/1 34/1/1 35/1/1
f 37/1/1 22/1/1 32/1/1
f 37/1/1 34/1/1 36/1/1
f 37/1/1 32/1/1 34/1/1
f 38/1/1 22/1/1 37/1/1
f 39/1/1 37/1/1 36/1/1
f 40/1/1 37/1/1 39/1/1
f 45/1/1 42/1/1 41/1/1
f 46/1/1 42/1/1 45/1/1
f 47/1/1 44/1/1 43/1/1
f 48/1/1 44/1/1 47/1/1
f 49/1/2 50/1/2 53/1/2
f 53/1/2 50/1/2 54/1/2
f 51/1/2 52/1/2 55/1/2
f 55/1/2 52/1/2 56/1/2
f 57/1/2 58/1/2 59/1/2
f 59/1/2 58/1/2 60/1/2
f 59/2/2 60/2/2 61/2/2
f 61/2/2 60/2/2 62/2/2
f 61/1/2 62/1/2 63/1/2
f 63/1/2 62/1/2 64/1/2
f 63/2/2 64/2/2 65/2/2
f 65/2/2 64/2/2 66/2/2
f 65/1/2 66/1/2 67/1/2
f 67/1/2 66/1/2 68/1/2
f 68/1/2 66/1/2 69/1/2
f 69/1/2 66/1/2 70/1/2
f 68/1/2 69/1/2 71/1/2
f 71/1/2 69/1/2 72/1/2
f 79/1/3 78/1/3 77/1/3
f 81/1/3 79/1/3 77/1/3
f 81/1/3 80/1/3 79/1/3
f 82/1/3 80/1/3 81/1/3
f 83/1/3 74/1/3 73/1/3
f 84/2/3 75/2/3 74/2/3
f 84/1/3 74/1/3 83/1/3
f 85/1/3 76/1/3 75/1/3
f 85/2/3 75/2/3 84/2/3
f 86/2/3 77/2/3 76/2/3
f 86/1/3 76/1/3 85/1/3
f 87/1/3 81/1/3 77/1/3
f 87/2/3 77/2/3 86/2/3
f 88/1/3 81/1/3 87/1/3
f 91/1/3 90/1/3 89/1/3
f 92/1/3 90/1/3 91/1/3
f 95/1/3 94/1/3 93/1/3
f 96/1/3 94/1/3 95/1/3
f 97/1/4 98/1/4 99/1/4
f 99/1/4 98/1/4 100/1/4
f 101/1/4 102/1/4 103/1/4
f 103/1/4 102/1/4 104/1/4
f 109/1/4 110/1/4 111/1/4
f 109/1/4 111/1/4 113/1/4
f 111/1/4 112/1/4 113/1/4
f 113/1/4 112/1/4 114/1/4
f 105/1/4 106/1/4 115/1/4
f 106/2/4 107/2/4 116/2/4
f 115/1/4 106/1/4 116/1/4
f 107/1/4 108/1/4 117/1/4
f 116/2/4 107/2/4 117/2/4
f 108/2/4 109/2/4 118/2/4
f 117/1/4 108/1/4 118/1/4
f 109/1/4 113/1/4 119/1/4
f 118/2/4 109/2/4 119/2/4
f 119/1/4 113/1/4 120/1/4
f 123/1/5 122/1/5 121/1/5
f 124/1/5 122/1/5 123/1/5
f 125/1/6 126/1/6 129/1/6
f 129/1/6 126/1/6 130/1/6
f 127/1/6 128/1/6 131/1/6
f 131/1/6 128/1/6 132/1/6
f 133/1/6 134/1/6 137/1/6
f 137/1/6 134/1/6 138/1/6
f 135/1/6 136/1/6 139/1/6
f 139/1/6 136/1/6 140/1/6
f 141/1/6 142/1/6 144/1/6
f 144/1/6 142/1/6 145/1/6
f 143/1/6 144/1/6 147/1/6
f 145/1/6 146/1/6 147/1/6
f 144/1/6 145/1/6 147/1/6
f 147/1/6 146/1/6 148/1/6
f 148/1/6 146/1/6 149/1/6
f 149/1/6 146/1/6 150/1/6
f 148/1/6 149/1/6 151/1/6
f 151/1/6 149/1/6 152/1/6
