# MagicaVoxel @ Ephtracy

# group
o 

# material
mtllib axe.mtl
usemtl palette

# normals
vn -1 0 0
vn 1 0 0
vn 0 0 1
vn 0 0 -1
vn 0 -1 0
vn 0 1 0

# texcoords
vt 0.908203 0.5
vt 0.912109 0.5
vt 0.916016 0.5
vt 0.919922 0.5

# verts
v -4.7 1.7 0.3
v -4.7 1.7 0.2
v -4.7 1.9 0.3
v -4.7 1.9 0.2
v -4.6 1.6 0.3
v -4.6 1.6 0.2
v -4.6 1.7 0.3
v -4.6 1.7 0.2
v -4.6 1.9 0.3
v -4.6 1.9 0.2
v -4.6 2 0.3
v -4.6 2 0.2
v -4.5 2 0.3
v -4.5 2 0.2
v -4.5 2.1 0.3
v -4.5 2.1 0.2
v -1.8 1.6 0.3
v -1.8 1.6 0.2
v -1.8 1.7 0.3
v -1.8 1.7 0.2
v -0.7 1.7 0.4
v -0.7 1.7 0.3
v -0.7 1.7 0.2
v -0.7 1.7 0.1
v -0.7 1.9 0.4
v -0.7 1.9 0.3
v -0.7 1.9 0.2
v -0.7 1.9 0.1
v -0.0999999 1.9 0.4
v -0.0999999 1.9 0.3
v -0.0999999 1.9 0.2
v -0.0999999 1.9 0.1
v -0.0999999 2 0.4
v -0.0999999 2 0.3
v -0.0999999 2 0.2
v -0.0999999 2 0.1
v -0.0999999 2.1 0.3
v -0.0999999 2.1 0.2
v 1 0.9 0.3
v 1 0.9 0.2
v 1 1.1 0.3
v 1 1.1 0.2
v 1.1 1.1 0.4
v 1.1 1.1 0.3
v 1.1 1.1 0.2
v 1.1 1.1 0.1
v 1.1 1.2 0.4
v 1.1 1.2 0.1
v 1.1 1.5 0.4
v 1.1 1.5 0.1
v 1.1 1.6 0.4
v 1.1 1.6 0.1
v 1.1 1.7 0.3
v 1.1 1.7 0.2
v 1.1 1.8 0.4
v 1.1 1.8 0.3
v 1.1 1.8 0.2
v 1.1 1.8 0.1
v 1.1 2 0.4
v 1.1 2 0.3
v 1.1 2 0.2
v 1.1 2 0.1
v 1.1 2.1 0.3
v 1.1 2.1 0.2
v 1.1 2.2 0.4
v 1.1 2.2 0.1
v 1.2 1.5 0.4
v 1.2 1.5 0.1
v 1.2 1.6 0.4
v 1.2 1.6 0.1
v 1.2 2.2 0.4
v 1.2 2.2 0.1
v 1.2 2.4 0.4
v 1.2 2.4 0.1
v 1.5 2.4 0.4
v 1.5 2.4 0.1
v 1.5 2.6 0.4
v 1.5 2.6 0.3
v 1.5 2.6 0.2
v 1.5 2.6 0.1
v 1.5 3.1 0.3
v 1.5 3.1 0.2
v -4.1 1.6 0.3
v -4.1 1.6 0.2
v -4.1 1.7 0.3
v -4.1 1.7 0.2
v -1.5 2 0.3
v -1.5 2 0.2
v -1.5 2.1 0.3
v -1.5 2.1 0.2
v 0 1.6 0.3
v 0 1.6 0.2
v 0 1.7 0.4
v 0 1.7 0.3
v 0 1.7 0.2
v 0 1.7 0.1
v 0 1.8 0.4
v 0 1.8 0.3
v 0 1.8 0.2
v 0 1.8 0.1
v 1.6 3 0.3
v 1.6 3 0.2
v 1.6 3.1 0.3
v 1.6 3.1 0.2
v 1.7 1.5 0.4
v 1.7 1.5 0.3
v 1.7 1.5 0.2
v 1.7 1.5 0.1
v 1.7 2.4 0.4
v 1.7 2.4 0.3
v 1.7 2.4 0.2
v 1.7 2.4 0.1
v 1.7 2.6 0.4
v 1.7 2.6 0.3
v 1.7 2.6 0.2
v 1.7 2.6 0.1
v 1.7 2.7 0.3
v 1.7 2.7 0.2
v 1.7 3 0.3
v 1.7 3 0.2
v 1.8 1.1 0.4
v 1.8 1.1 0.3
v 1.8 1.1 0.2
v 1.8 1.1 0.1
v 1.8 1.2 0.4
v 1.8 1.2 0.3
v 1.8 1.2 0.2
v 1.8 1.2 0.1
v 1.8 1.5 0.4
v 1.8 1.5 0.3
v 1.8 1.5 0.2
v 1.8 1.5 0.1
v 1.8 2.4 0.3
v 1.8 2.4 0.2
v 1.8 2.7 0.3
v 1.8 2.7 0.2
v 1.9 1.1 0.3
v 1.9 1.1 0.2
v 1.9 1.2 0.3
v 1.9 1.2 0.2
v 1.9 1.5 0.3
v 1.9 1.5 0.2
v 2 0.9 0.3
v 2 0.9 0.2
v 2 1.1 0.3
v 2 1.1 0.2
v -0.7 1.7 0.4
v -0.7 1.9 0.4
v -0.0999999 1.9 0.4
v -0.0999999 2 0.4
v 0 1.7 0.4
v 0 1.8 0.4
v 1.1 1.1 0.4
v 1.1 1.2 0.4
v 1.1 1.5 0.4
v 1.1 1.6 0.4
v 1.1 1.8 0.4
v 1.1 2 0.4
v 1.1 2.2 0.4
v 1.2 1.5 0.4
v 1.2 1.6 0.4
v 1.2 2.2 0.4
v 1.2 2.4 0.4
v 1.5 2.4 0.4
v 1.5 2.6 0.4
v 1.7 1.5 0.4
v 1.7 2.4 0.4
v 1.7 2.6 0.4
v 1.8 1.1 0.4
v 1.8 1.2 0.4
v 1.8 1.5 0.4
v -4.7 1.7 0.3
v -4.7 1.9 0.3
v -4.6 1.6 0.3
v -4.6 1.7 0.3
v -4.6 1.9 0.3
v -4.6 2 0.3
v -4.5 2 0.3
v -4.5 2.1 0.3
v -4.1 1.6 0.3
v -4.1 1.7 0.3
v -1.8 1.6 0.3
v -1.8 1.7 0.3
v -1.5 2 0.3
v -1.5 2.1 0.3
v -0.8 1.6 0.3
v -0.8 2 0.3
v -0.7 1.7 0.3
v -0.7 1.9 0.3
v -0.0999999 1.9 0.3
v -0.0999999 2 0.3
v -0.0999999 2.1 0.3
v 0 1.6 0.3
v 0 1.7 0.3
v 0 1.8 0.3
v 1 0.9 0.3
v 1 1.1 0.3
v 1.1 1.1 0.3
v 1.1 1.7 0.3
v 1.1 1.8 0.3
v 1.1 2 0.3
v 1.1 2.1 0.3
v 1.5 2.6 0.3
v 1.5 3.1 0.3
v 1.6 3 0.3
v 1.6 3.1 0.3
v 1.7 1.5 0.3
v 1.7 2.4 0.3
v 1.7 2.6 0.3
v 1.7 2.7 0.3
v 1.7 3 0.3
v 1.8 1.1 0.3
v 1.8 1.2 0.3
v 1.8 1.5 0.3
v 1.8 2.4 0.3
v 1.8 2.7 0.3
v 1.9 1.1 0.3
v 1.9 1.2 0.3
v 1.9 1.5 0.3
v 2 0.9 0.3
v 2 1.1 0.3
v -4.7 1.7 0.2
v -4.7 1.9 0.2
v -4.6 1.6 0.2
v -4.6 1.7 0.2
v -4.6 1.9 0.2
v -4.6 2 0.2
v -4.5 2 0.2
v -4.5 2.1 0.2
v -4.1 1.6 0.2
v -4.1 1.7 0.2
v -1.8 1.6 0.2
v -1.8 1.7 0.2
v -1.5 2 0.2
v -1.5 2.1 0.2
v -0.8 1.6 0.2
v -0.8 2 0.2
v -0.7 1.7 0.2
v -0.7 1.9 0.2
v -0.0999999 1.9 0.2
v -0.0999999 2 0.2
v -0.0999999 2.1 0.2
v 0 1.6 0.2
v 0 1.7 0.2
v 0 1.8 0.2
v 1 0.9 0.2
v 1 1.1 0.2
v 1.1 1.1 0.2
v 1.1 1.7 0.2
v 1.1 1.8 0.2
v 1.1 2 0.2
v 1.1 2.1 0.2
v 1.5 2.6 0.2
v 1.5 3.1 0.2
v 1.6 3 0.2
v 1.6 3.1 0.2
v 1.7 1.5 0.2
v 1.7 2.4 0.2
v 1.7 2.6 0.2
v 1.7 2.7 0.2
v 1.7 3 0.2
v 1.8 1.1 0.2
v 1.8 1.2 0.2
v 1.8 1.5 0.2
v 1.8 2.4 0.2
v 1.8 2.7 0.2
v 1.9 1.1 0.2
v 1.9 1.2 0.2
v 1.9 1.5 0.2
v 2 0.9 0.2
v 2 1.1 0.2
v -0.7 1.7 0.1
v -0.7 1.9 0.1
v -0.0999999 1.9 0.1
v -0.0999999 2 0.1
v 0 1.7 0.1
v 0 1.8 0.1
v 1.1 1.1 0.1
v 1.1 1.2 0.1
v 1.1 1.5 0.1
v 1.1 1.6 0.1
v 1.1 1.8 0.1
v 1.1 2 0.1
v 1.1 2.2 0.1
v 1.2 1.5 0.1
v 1.2 1.6 0.1
v 1.2 2.2 0.1
v 1.2 2.4 0.1
v 1.5 2.4 0.1
v 1.5 2.6 0.1
v 1.7 1.5 0.1
v 1.7 2.4 0.1
v 1.7 2.6 0.1
v 1.8 1.1 0.1
v 1.8 1.2 0.1
v 1.8 1.5 0.1
v 1 0.9 0.3
v 2 0.9 0.3
v 1 0.9 0.2
v 2 0.9 0.2
v 1.1 1.1 0.4
v 1.8 1.1 0.4
v 1.1 1.1 0.3
v 1.8 1.1 0.3
v 1.1 1.1 0.2
v 1.8 1.1 0.2
v 1.1 1.1 0.1
v 1.8 1.1 0.1
v 1.1 1.6 0.4
v 1.2 1.6 0.4
v -4.6 1.6 0.3
v -4.1 1.6 0.3
v -1.8 1.6 0.3
v -0.8 1.6 0.3
v 0 1.6 0.3
v -4.6 1.6 0.2
v -4.1 1.6 0.2
v -1.8 1.6 0.2
v -0.8 1.6 0.2
v 0 1.6 0.2
v 1.1 1.6 0.1
v 1.2 1.6 0.1
v -0.7 1.7 0.4
v 0 1.7 0.4
v -4.7 1.7 0.3
v -4.6 1.7 0.3
v -4.1 1.7 0.3
v -1.8 1.7 0.3
v -0.7 1.7 0.3
v 0 1.7 0.3
v 1.1 1.7 0.3
v -4.7 1.7 0.2
v -4.6 1.7 0.2
v -4.1 1.7 0.2
v -1.8 1.7 0.2
v -0.7 1.7 0.2
v 0 1.7 0.2
v 1.1 1.7 0.2
v -0.7 1.7 0.1
v 0 1.7 0.1
v 0 1.8 0.4
v 1.1 1.8 0.4
v 0 1.8 0.3
v 1.1 1.8 0.3
v 0 1.8 0.2
v 1.1 1.8 0.2
v 0 1.8 0.1
v 1.1 1.8 0.1
v 1 1.1 0.3
v 1.1 1.1 0.3
v 1.9 1.1 0.3
v 2 1.1 0.3
v 1 1.1 0.2
v 1.1 1.1 0.2
v 1.9 1.1 0.2
v 2 1.1 0.2
v 1.1 1.5 0.4
v 1.2 1.5 0.4
v 1.7 1.5 0.4
v 1.8 1.5 0.4
v 1.7 1.5 0.3
v 1.8 1.5 0.3
v 1.9 1.5 0.3
v 1.7 1.5 0.2
v 1.8 1.5 0.2
v 1.9 1.5 0.2
v 1.1 1.5 0.1
v 1.2 1.5 0.1
v 1.7 1.5 0.1
v 1.8 1.5 0.1
v -0.7 1.9 0.4
v -0.0999999 1.9 0.4
v -4.7 1.9 0.3
v -4.6 1.9 0.3
v -0.7 1.9 0.3
v -0.0999999 1.9 0.3
v -4.7 1.9 0.2
v -4.6 1.9 0.2
v -0.7 1.9 0.2
v -0.0999999 1.9 0.2
v -0.7 1.9 0.1
v -0.0999999 1.9 0.1
v -0.0999999 2 0.4
v 1.1 2 0.4
v -4.6 2 0.3
v -4.5 2 0.3
v -1.5 2 0.3
v -0.8 2 0.3
v -0.0999999 2 0.3
v 1.1 2 0.3
v -4.6 2 0.2
v -4.5 2 0.2
v -1.5 2 0.2
v -0.8 2 0.2
v -0.0999999 2 0.2
v 1.1 2 0.2
v -0.0999999 2 0.1
v 1.1 2 0.1
v -4.5 2.1 0.3
v -1.5 2.1 0.3
v -0.0999999 2.1 0.3
v 1.1 2.1 0.3
v -4.5 2.1 0.2
v -1.5 2.1 0.2
v -0.0999999 2.1 0.2
v 1.1 2.1 0.2
v 1.1 2.2 0.4
v 1.2 2.2 0.4
v 1.1 2.2 0.1
v 1.2 2.2 0.1
v 1.2 2.4 0.4
v 1.5 2.4 0.4
v 1.2 2.4 0.1
v 1.5 2.4 0.1
v 1.5 2.6 0.4
v 1.7 2.6 0.4
v 1.5 2.6 0.3
v 1.7 2.6 0.3
v 1.5 2.6 0.2
v 1.7 2.6 0.2
v 1.5 2.6 0.1
v 1.7 2.6 0.1
v 1.7 2.7 0.3
v 1.8 2.7 0.3
v 1.7 2.7 0.2
v 1.8 2.7 0.2
v 1.6 3 0.3
v 1.7 3 0.3
v 1.6 3 0.2
v 1.7 3 0.2
v 1.5 3.1 0.3
v 1.6 3.1 0.3
v 1.5 3.1 0.2
v 1.6 3.1 0.2

# faces
f 3/1/1 2/1/1 1/1/1
f 4/1/1 2/1/1 3/1/1
f 7/1/1 6/1/1 5/1/1
f 8/1/1 6/1/1 7/1/1
f 11/1/1 10/1/1 9/1/1
f 12/1/1 10/1/1 11/1/1
f 15/1/1 14/1/1 13/1/1
f 16/1/1 14/1/1 15/1/1
f 19/1/1 18/1/1 17/1/1
f 20/1/1 18/1/1 19/1/1
f 25/2/1 22/2/1 21/2/1
f 26/2/1 22/2/1 25/2/1
f 27/2/1 24/2/1 23/2/1
f 28/2/1 24/2/1 27/2/1
f 33/2/1 30/2/1 29/2/1
f 34/2/1 30/2/1 33/2/1
f 35/2/1 32/2/1 31/2/1
f 36/2/1 32/2/1 35/2/1
f 37/2/1 35/2/1 34/2/1
f 38/2/1 35/2/1 37/2/1
f 41/4/1 40/4/1 39/4/1
f 42/4/1 40/4/1 41/4/1
f 47/4/1 44/4/1 43/4/1
f 47/4/1 46/4/1 45/4/1
f 47/4/1 45/4/1 44/4/1
f 48/4/1 46/4/1 47/4/1
f 49/3/1 48/3/1 47/3/1
f 50/3/1 48/3/1 49/3/1
f 53/2/1 52/2/1 51/2/1
f 54/2/1 52/2/1 53/2/1
f 55/2/1 53/2/1 51/2/1
f 56/2/1 53/2/1 55/2/1
f 57/2/1 52/2/1 54/2/1
f 58/2/1 52/2/1 57/2/1
f 63/2/1 60/2/1 59/2/1
f 64/2/1 62/2/1 61/2/1
f 65/2/1 63/2/1 59/2/1
f 65/2/1 64/2/1 63/2/1
f 66/2/1 62/2/1 64/2/1
f 66/2/1 64/2/1 65/2/1
f 69/3/1 68/3/1 67/3/1
f 70/3/1 68/3/1 69/3/1
f 73/3/1 72/3/1 71/3/1
f 74/3/1 72/3/1 73/3/1
f 77/4/1 76/4/1 75/4/1
f 78/4/1 76/4/1 77/4/1
f 79/4/1 76/4/1 78/4/1
f 80/4/1 76/4/1 79/4/1
f 81/4/1 79/4/1 78/4/1
f 82/4/1 79/4/1 81/4/1
f 83/1/2 84/1/2 85/1/2
f 85/1/2 84/1/2 86/1/2
f 87/1/2 88/1/2 89/1/2
f 89/1/2 88/1/2 90/1/2
f 91/2/2 92/2/2 94/2/2
f 94/2/2 92/2/2 95/2/2
f 93/2/2 94/2/2 97/2/2
f 97/2/2 94/2/2 98/2/2
f 95/2/2 96/2/2 99/2/2
f 99/2/2 96/2/2 100/2/2
f 101/4/2 102/4/2 103/4/2
f 103/4/2 102/4/2 104/4/2
f 105/3/2 106/3/2 109/3/2
f 109/3/2 106/3/2 110/3/2
f 107/3/2 108/3/2 111/3/2
f 111/3/2 108/3/2 112/3/2
f 109/4/2 110/4/2 113/4/2
f 113/4/2 110/4/2 114/4/2
f 111/4/2 112/4/2 115/4/2
f 115/4/2 112/4/2 116/4/2
f 117/4/2 118/4/2 119/4/2
f 119/4/2 118/4/2 120/4/2
f 121/4/2 122/4/2 125/4/2
f 125/4/2 122/4/2 126/4/2
f 123/4/2 124/4/2 127/4/2
f 127/4/2 124/4/2 128/4/2
f 125/3/2 126/3/2 129/3/2
f 129/3/2 126/3/2 130/3/2
f 127/3/2 128/3/2 131/3/2
f 131/3/2 128/3/2 132/3/2
f 130/3/2 131/3/2 133/3/2
f 133/3/2 131/3/2 134/3/2
f 133/4/2 134/4/2 135/4/2
f 135/4/2 134/4/2 136/4/2
f 137/4/2 138/4/2 139/4/2
f 139/4/2 138/4/2 140/4/2
f 139/3/2 140/3/2 141/3/2
f 141/3/2 140/3/2 142/3/2
f 143/4/2 144/4/2 145/4/2
f 145/4/2 144/4/2 146/4/2
f 149/2/3 148/2/3 147/2/3
f 151/2/3 149/2/3 147/2/3
f 151/2/3 150/2/3 149/2/3
f 152/2/3 150/2/3 151/2/3
f 157/2/3 150/2/3 152/2/3
f 158/2/3 150/2/3 157/2/3
f 160/3/3 155/3/3 154/3/3
f 161/2/3 159/2/3 158/2/3
f 161/2/3 157/2/3 156/2/3
f 161/2/3 158/2/3 157/2/3
f 162/2/3 159/2/3 161/2/3
f 164/3/3 161/3/3 160/3/3
f 164/3/3 163/3/3 162/3/3
f 164/3/3 162/3/3 161/3/3
f 166/3/3 160/3/3 154/3/3
f 166/3/3 164/3/3 160/3/3
f 167/4/3 165/4/3 164/4/3
f 167/3/3 164/3/3 166/3/3
f 168/4/3 165/4/3 167/4/3
f 169/4/3 154/4/3 153/4/3
f 170/3/3 166/3/3 154/3/3
f 170/4/3 154/4/3 169/4/3
f 171/3/3 166/3/3 170/3/3
f 175/1/3 173/1/3 172/1/3
f 176/1/3 173/1/3 175/1/3
f 178/1/3 175/1/3 174/1/3
f 178/1/3 177/1/3 176/1/3
f 178/1/3 176/1/3 175/1/3
f 180/1/3 178/1/3 174/1/3
f 180/1/3 179/1/3 178/1/3
f 181/1/3 179/1/3 180/1/3
f 183/1/3 179/1/3 181/1/3
f 184/1/3 179/1/3 183/1/3
f 184/1/3 183/1/3 182/1/3
f 185/1/3 179/1/3 184/1/3
f 186/1/3 184/1/3 182/1/3
f 187/1/3 184/1/3 186/1/3
f 188/2/3 187/2/3 186/2/3
f 189/2/3 187/2/3 188/2/3
f 190/2/3 187/2/3 189/2/3
f 191/2/3 187/2/3 190/2/3
f 193/2/3 188/2/3 186/2/3
f 194/2/3 188/2/3 193/2/3
f 198/4/3 197/4/3 196/4/3
f 199/2/3 195/2/3 194/2/3
f 200/2/3 195/2/3 199/2/3
f 201/2/3 192/2/3 191/2/3
f 202/2/3 192/2/3 201/2/3
f 205/4/3 204/4/3 203/4/3
f 206/4/3 204/4/3 205/4/3
f 209/4/3 205/4/3 203/4/3
f 210/4/3 205/4/3 209/4/3
f 211/4/3 205/4/3 210/4/3
f 212/4/3 198/4/3 196/4/3
f 214/3/3 208/3/3 207/3/3
f 215/4/3 209/4/3 208/4/3
f 215/4/3 210/4/3 209/4/3
f 215/3/3 208/3/3 214/3/3
f 216/4/3 210/4/3 215/4/3
f 217/4/3 213/4/3 212/4/3
f 217/4/3 212/4/3 196/4/3
f 218/3/3 214/3/3 213/3/3
f 218/4/3 213/4/3 217/4/3
f 219/3/3 214/3/3 218/3/3
f 220/4/3 217/4/3 196/4/3
f 221/4/3 217/4/3 220/4/3
f 222/1/4 223/1/4 225/1/4
f 225/1/4 223/1/4 226/1/4
f 224/1/4 225/1/4 228/1/4
f 226/1/4 227/1/4 228/1/4
f 225/1/4 226/1/4 228/1/4
f 224/1/4 228/1/4 230/1/4
f 228/1/4 229/1/4 230/1/4
f 230/1/4 229/1/4 231/1/4
f 231/1/4 229/1/4 233/1/4
f 233/1/4 229/1/4 234/1/4
f 232/1/4 233/1/4 234/1/4
f 234/1/4 229/1/4 235/1/4
f 232/1/4 234/1/4 236/1/4
f 236/1/4 234/1/4 237/1/4
f 236/2/4 237/2/4 238/2/4
f 238/2/4 237/2/4 239/2/4
f 239/2/4 237/2/4 240/2/4
f 240/2/4 237/2/4 241/2/4
f 236/2/4 238/2/4 243/2/4
f 243/2/4 238/2/4 244/2/4
f 246/4/4 247/4/4 248/4/4
f 244/2/4 245/2/4 249/2/4
f 249/2/4 245/2/4 250/2/4
f 241/2/4 242/2/4 251/2/4
f 251/2/4 242/2/4 252/2/4
f 253/4/4 254/4/4 255/4/4
f 255/4/4 254/4/4 256/4/4
f 253/4/4 255/4/4 259/4/4
f 259/4/4 255/4/4 260/4/4
f 260/4/4 255/4/4 261/4/4
f 246/4/4 248/4/4 262/4/4
f 257/3/4 258/3/4 264/3/4
f 258/4/4 259/4/4 265/4/4
f 259/4/4 260/4/4 265/4/4
f 264/3/4 258/3/4 265/3/4
f 265/4/4 260/4/4 266/4/4
f 262/4/4 263/4/4 267/4/4
f 246/4/4 262/4/4 267/4/4
f 263/3/4 264/3/4 268/3/4
f 267/4/4 263/4/4 268/4/4
f 268/3/4 264/3/4 269/3/4
f 246/4/4 267/4/4 270/4/4
f 270/4/4 267/4/4 271/4/4
f 272/2/4 273/2/4 274/2/4
f 272/2/4 274/2/4 276/2/4
f 274/2/4 275/2/4 276/2/4
f 276/2/4 275/2/4 277/2/4
f 277/2/4 275/2/4 282/2/4
f 282/2/4 275/2/4 283/2/4
f 279/3/4 280/3/4 285/3/4
f 283/2/4 284/2/4 286/2/4
f 281/2/4 282/2/4 286/2/4
f 282/2/4 283/2/4 286/2/4
f 286/2/4 284/2/4 287/2/4
f 285/3/4 286/3/4 289/3/4
f 287/3/4 288/3/4 289/3/4
f 286/3/4 287/3/4 289/3/4
f 279/3/4 285/3/4 291/3/4
f 285/3/4 289/3/4 291/3/4
f 289/4/4 290/4/4 292/4/4
f 291/3/4 289/3/4 292/3/4
f 292/4/4 290/4/4 293/4/4
f 278/4/4 279/4/4 294/4/4
f 279/3/4 291/3/4 295/3/4
f 294/4/4 279/4/4 295/4/4
f 295/3/4 291/3/4 296/3/4
f 299/4/5 298/4/5 297/4/5
f 300/4/5 298/4/5 299/4/5
f 303/4/5 302/4/5 301/4/5
f 304/4/5 302/4/5 303/4/5
f 307/4/5 306/4/5 305/4/5
f 308/4/5 306/4/5 307/4/5
f 316/1/5 312/1/5 311/1/5
f 317/1/5 312/1/5 316/1/5
f 318/1/5 314/1/5 313/1/5
f 319/2/5 315/2/5 314/2/5
f 319/1/5 314/1/5 318/1/5
f 320/2/5 315/2/5 319/2/5
f 321/2/5 310/2/5 309/2/5
f 322/2/5 310/2/5 321/2/5
f 329/2/5 324/2/5 323/2/5
f 330/2/5 324/2/5 329/2/5
f 332/1/5 326/1/5 325/1/5
f 333/1/5 326/1/5 332/1/5
f 334/1/5 328/1/5 327/1/5
f 335/1/5 328/1/5 334/1/5
f 337/2/5 331/2/5 330/2/5
f 338/2/5 331/2/5 337/2/5
f 339/2/5 337/2/5 336/2/5
f 340/2/5 337/2/5 339/2/5
f 343/2/5 342/2/5 341/2/5
f 344/2/5 342/2/5 343/2/5
f 347/2/5 346/2/5 345/2/5
f 348/2/5 346/2/5 347/2/5
f 349/4/6 350/4/6 353/4/6
f 353/4/6 350/4/6 354/4/6
f 351/4/6 352/4/6 355/4/6
f 355/4/6 352/4/6 356/4/6
f 359/3/6 360/3/6 361/3/6
f 361/3/6 360/3/6 362/3/6
f 362/3/6 363/3/6 365/3/6
f 365/3/6 363/3/6 366/3/6
f 357/3/6 358/3/6 367/3/6
f 367/3/6 358/3/6 368/3/6
f 364/3/6 365/3/6 369/3/6
f 369/3/6 365/3/6 370/3/6
f 371/2/6 372/2/6 375/2/6
f 375/2/6 372/2/6 376/2/6
f 373/1/6 374/1/6 377/1/6
f 377/1/6 374/1/6 378/1/6
f 379/2/6 380/2/6 381/2/6
f 381/2/6 380/2/6 382/2/6
f 383/2/6 384/2/6 389/2/6
f 389/2/6 384/2/6 390/2/6
f 385/1/6 386/1/6 391/1/6
f 391/1/6 386/1/6 392/1/6
f 387/1/6 388/1/6 393/1/6
f 388/2/6 389/2/6 394/2/6
f 393/1/6 388/1/6 394/1/6
f 394/2/6 389/2/6 395/2/6
f 395/2/6 396/2/6 397/2/6
f 397/2/6 396/2/6 398/2/6
f 399/1/6 400/1/6 403/1/6
f 403/1/6 400/1/6 404/1/6
f 401/2/6 402/2/6 405/2/6
f 405/2/6 402/2/6 406/2/6
f 407/2/6 408/2/6 409/2/6
f 409/2/6 408/2/6 410/2/6
f 411/3/6 412/3/6 413/3/6
f 413/3/6 412/3/6 414/3/6
f 415/4/6 416/4/6 417/4/6
f 417/4/6 416/4/6 418/4/6
f 419/4/6 420/4/6 421/4/6
f 421/4/6 420/4/6 422/4/6
f 423/4/6 424/4/6 425/4/6
f 425/4/6 424/4/6 426/4/6
f 427/4/6 428/4/6 429/4/6
f 429/4/6 428/4/6 430/4/6
f 431/4/6 432/4/6 433/4/6
f 433/4/6 432/4/6 434/4/6
