# MagicaVoxel @ Ephtracy

# group
o 

# material
mtllib battery.mtl
usemtl palette

# normals
vn -1 0 0
vn 1 0 0
vn 0 0 1
vn 0 0 -1
vn 0 -1 0
vn 0 1 0

# texcoords
vt 0.845703 0.5
vt 0.849609 0.5
vt 0.853516 0.5

# verts
v -0.6 0.8 0.5
v -0.6 0.8 0.2
v -0.6 2.3 0.5
v -0.6 2.3 0.2
v -0.6 2.9 0.5
v -0.6 2.9 0.2
v -0.5 0.8 0.6
v -0.5 0.8 0.5
v -0.5 0.8 0.2
v -0.5 0.8 0.1
v -0.5 2.3 0.6
v -0.5 2.3 0.5
v -0.5 2.3 0.2
v -0.5 2.3 0.1
v -0.5 2.9 0.6
v -0.5 2.9 0.5
v -0.5 2.9 0.2
v -0.5 2.9 0.1
v -0.4 0.8 0.7
v -0.4 0.8 0.6
v -0.4 0.8 0.1
v -0.4 0.8 -5.96046e-08
v -0.4 2.3 0.7
v -0.4 2.3 0.6
v -0.4 2.3 0.1
v -0.4 2.3 -5.96046e-08
v -0.4 2.6 0.7
v -0.4 2.6 0.6
v -0.4 2.6 0.1
v -0.4 2.6 -5.96046e-08
v -0.4 2.7 0.7
v -0.4 2.7 0.6
v -0.4 2.7 0.1
v -0.4 2.7 -5.96046e-08
v -0.4 2.9 0.7
v -0.4 2.9 0.6
v -0.4 2.9 0.5
v -0.4 2.9 0.2
v -0.4 2.9 0.1
v -0.4 2.9 -5.96046e-08
v -0.4 3 0.5
v -0.4 3 0.2
v -0.0999999 0.8 0.7
v -0.0999999 0.8 0.6
v -0.0999999 0.8 0.1
v -0.0999999 0.8 -5.96046e-08
v -0.0999999 2.3 0.7
v -0.0999999 2.3 0.6
v -0.0999999 2.3 0.1
v -0.0999999 2.3 -5.96046e-08
v -0.0999999 2.6 0.7
v -0.0999999 2.6 0.6
v -0.0999999 2.6 0.1
v -0.0999999 2.6 -5.96046e-08
v -0.0999999 2.7 0.7
v -0.0999999 2.7 0.6
v -0.0999999 2.7 0.1
v -0.0999999 2.7 -5.96046e-08
v -0.0999999 2.9 0.7
v -0.0999999 2.9 0.6
v -0.0999999 2.9 0.5
v -0.0999999 2.9 0.2
v -0.0999999 2.9 0.1
v -0.0999999 2.9 -5.96046e-08
v -0.0999999 3 0.5
v -0.0999999 3 0.2
v 5.96046e-08 0.8 0.6
v 5.96046e-08 0.8 0.5
v 5.96046e-08 0.8 0.2
v 5.96046e-08 0.8 0.1
v 5.96046e-08 2.3 0.6
v 5.96046e-08 2.3 0.5
v 5.96046e-08 2.3 0.2
v 5.96046e-08 2.3 0.1
v 5.96046e-08 2.9 0.6
v 5.96046e-08 2.9 0.5
v 5.96046e-08 2.9 0.2
v 5.96046e-08 2.9 0.1
v 0.1 0.8 0.5
v 0.1 0.8 0.2
v 0.1 2.3 0.5
v 0.1 2.3 0.2
v 0.1 2.9 0.5
v 0.1 2.9 0.2
v -0.4 0.8 0.7
v -0.4 2.3 0.7
v -0.4 2.6 0.7
v -0.4 2.7 0.7
v -0.4 2.9 0.7
v -0.3 2.5 0.7
v -0.3 2.6 0.7
v -0.3 2.7 0.7
v -0.3 2.8 0.7
v -0.2 2.5 0.7
v -0.2 2.6 0.7
v -0.2 2.7 0.7
v -0.2 2.8 0.7
v -0.0999999 0.8 0.7
v -0.0999999 2.3 0.7
v -0.0999999 2.6 0.7
v -0.0999999 2.7 0.7
v -0.0999999 2.9 0.7
v -0.5 0.8 0.6
v -0.5 2.3 0.6
v -0.5 2.9 0.6
v -0.4 0.8 0.6
v -0.4 2.3 0.6
v -0.4 2.6 0.6
v -0.4 2.7 0.6
v -0.4 2.9 0.6
v -0.0999999 0.8 0.6
v -0.0999999 2.3 0.6
v -0.0999999 2.6 0.6
v -0.0999999 2.7 0.6
v -0.0999999 2.9 0.6
v 5.96046e-08 0.8 0.6
v 5.96046e-08 2.3 0.6
v 5.96046e-08 2.9 0.6
v -0.6 0.8 0.5
v -0.6 2.3 0.5
v -0.6 2.9 0.5
v -0.5 0.8 0.5
v -0.5 2.3 0.5
v -0.5 2.9 0.5
v -0.4 2.9 0.5
v -0.4 3 0.5
v -0.0999999 2.9 0.5
v -0.0999999 3 0.5
v 5.96046e-08 0.8 0.5
v 5.96046e-08 2.3 0.5
v 5.96046e-08 2.9 0.5
v 0.1 0.8 0.5
v 0.1 2.3 0.5
v 0.1 2.9 0.5
v -0.6 0.8 0.2
v -0.6 2.3 0.2
v -0.6 2.9 0.2
v -0.5 0.8 0.2
v -0.5 2.3 0.2
v -0.5 2.9 0.2
v -0.4 2.9 0.2
v -0.4 3 0.2
v -0.0999999 2.9 0.2
v -0.0999999 3 0.2
v 5.96046e-08 0.8 0.2
v 5.96046e-08 2.3 0.2
v 5.96046e-08 2.9 0.2
v 0.1 0.8 0.2
v 0.1 2.3 0.2
v 0.1 2.9 0.2
v -0.5 0.8 0.1
v -0.5 2.3 0.1
v -0.5 2.9 0.1
v -0.4 0.8 0.1
v -0.4 2.3 0.1
v -0.4 2.6 0.1
v -0.4 2.7 0.1
v -0.4 2.9 0.1
v -0.0999999 0.8 0.1
v -0.0999999 2.3 0.1
v -0.0999999 2.6 0.1
v -0.0999999 2.7 0.1
v -0.0999999 2.9 0.1
v 5.96046e-08 0.8 0.1
v 5.96046e-08 2.3 0.1
v 5.96046e-08 2.9 0.1
v -0.4 0.8 -5.96046e-08
v -0.4 2.3 -5.96046e-08
v -0.4 2.6 -5.96046e-08
v -0.4 2.7 -5.96046e-08
v -0.4 2.9 -5.96046e-08
v -0.0999999 0.8 -5.96046e-08
v -0.0999999 2.3 -5.96046e-08
v -0.0999999 2.6 -5.96046e-08
v -0.0999999 2.7 -5.96046e-08
v -0.0999999 2.9 -5.96046e-08
v -0.4 0.8 0.7
v -0.0999999 0.8 0.7
v -0.5 0.8 0.6
v -0.4 0.8 0.6
v -0.0999999 0.8 0.6
v 5.96046e-08 0.8 0.6
v -0.6 0.8 0.5
v -0.5 0.8 0.5
v -0.4 0.8 0.5
v -0.0999999 0.8 0.5
v 5.96046e-08 0.8 0.5
v 0.1 0.8 0.5
v -0.6 0.8 0.2
v -0.5 0.8 0.2
v -0.4 0.8 0.2
v -0.0999999 0.8 0.2
v 5.96046e-08 0.8 0.2
v 0.1 0.8 0.2
v -0.5 0.8 0.1
v -0.4 0.8 0.1
v -0.0999999 0.8 0.1
v 5.96046e-08 0.8 0.1
v -0.4 0.8 -5.96046e-08
v -0.0999999 0.8 -5.96046e-08
v -0.4 2.9 0.7
v -0.0999999 2.9 0.7
v -0.5 2.9 0.6
v -0.4 2.9 0.6
v -0.0999999 2.9 0.6
v 5.96046e-08 2.9 0.6
v -0.6 2.9 0.5
v -0.5 2.9 0.5
v -0.4 2.9 0.5
v -0.0999999 2.9 0.5
v 5.96046e-08 2.9 0.5
v 0.1 2.9 0.5
v -0.6 2.9 0.2
v -0.5 2.9 0.2
v -0.4 2.9 0.2
v -0.0999999 2.9 0.2
v 5.96046e-08 2.9 0.2
v 0.1 2.9 0.2
v -0.5 2.9 0.1
v -0.4 2.9 0.1
v -0.0999999 2.9 0.1
v 5.96046e-08 2.9 0.1
v -0.4 2.9 -5.96046e-08
v -0.0999999 2.9 -5.96046e-08
v -0.4 3 0.5
v -0.0999999 3 0.5
v -0.4 3 0.2
v -0.0999999 3 0.2

# faces
f 3/1/1 2/1/1 1/1/1
f 4/1/1 2/1/1 3/1/1
f 5/2/1 4/2/1 3/2/1
f 6/2/1 4/2/1 5/2/1
f 11/1/1 8/1/1 7/1/1
f 12/1/1 8/1/1 11/1/1
f 13/1/1 10/1/1 9/1/1
f 14/1/1 10/1/1 13/1/1
f 15/2/1 12/2/1 11/2/1
f 16/2/1 12/2/1 15/2/1
f 17/2/1 14/2/1 13/2/1
f 18/2/1 14/2/1 17/2/1
f 23/1/1 20/1/1 19/1/1
f 24/1/1 20/1/1 23/1/1
f 25/1/1 22/1/1 21/1/1
f 26/1/1 22/1/1 25/1/1
f 27/2/1 24/2/1 23/2/1
f 28/2/1 24/2/1 27/2/1
f 29/2/1 26/2/1 25/2/1
f 30/2/1 26/2/1 29/2/1
f 31/1/1 28/1/1 27/1/1
f 32/1/1 28/1/1 31/1/1
f 33/1/1 30/1/1 29/1/1
f 34/1/1 30/1/1 33/1/1
f 35/2/1 32/2/1 31/2/1
f 36/2/1 32/2/1 35/2/1
f 39/2/1 34/2/1 33/2/1
f 40/2/1 34/2/1 39/2/1
f 41/3/1 38/3/1 37/3/1
f 42/3/1 38/3/1 41/3/1
f 43/1/2 44/1/2 47/1/2
f 47/1/2 44/1/2 48/1/2
f 45/1/2 46/1/2 49/1/2
f 49/1/2 46/1/2 50/1/2
f 47/2/2 48/2/2 51/2/2
f 51/2/2 48/2/2 52/2/2
f 49/2/2 50/2/2 53/2/2
f 53/2/2 50/2/2 54/2/2
f 51/1/2 52/1/2 55/1/2
f 55/1/2 52/1/2 56/1/2
f 53/1/2 54/1/2 57/1/2
f 57/1/2 54/1/2 58/1/2
f 55/2/2 56/2/2 59/2/2
f 59/2/2 56/2/2 60/2/2
f 57/2/2 58/2/2 63/2/2
f 63/2/2 58/2/2 64/2/2
f 61/3/2 62/3/2 65/3/2
f 65/3/2 62/3/2 66/3/2
f 67/1/2 68/1/2 71/1/2
f 71/1/2 68/1/2 72/1/2
f 69/1/2 70/1/2 73/1/2
f 73/1/2 70/1/2 74/1/2
f 71/2/2 72/2/2 75/2/2
f 75/2/2 72/2/2 76/2/2
f 73/2/2 74/2/2 77/2/2
f 77/2/2 74/2/2 78/2/2
f 79/1/2 80/1/2 81/1/2
f 81/1/2 80/1/2 82/1/2
f 81/2/2 82/2/2 83/2/2
f 83/2/2 82/2/2 84/2/2
f 90/2/3 87/2/3 86/2/3
f 91/1/3 88/1/3 87/1/3
f 91/2/3 87/2/3 90/2/3
f 92/2/3 89/2/3 88/2/3
f 92/1/3 88/1/3 91/1/3
f 93/2/3 89/2/3 92/2/3
f 94/1/3 91/1/3 90/1/3
f 94/2/3 90/2/3 86/2/3
f 94/1/3 93/1/3 92/1/3
f 94/1/3 92/1/3 91/1/3
f 95/1/3 93/1/3 94/1/3
f 96/1/3 93/1/3 95/1/3
f 97/2/3 89/2/3 93/2/3
f 97/1/3 93/1/3 96/1/3
f 98/1/3 86/1/3 85/1/3
f 99/2/3 94/2/3 86/2/3
f 99/1/3 86/1/3 98/1/3
f 99/2/3 95/2/3 94/2/3
f 100/1/3 96/1/3 95/1/3
f 100/2/3 95/2/3 99/2/3
f 101/2/3 97/2/3 96/2/3
f 101/1/3 96/1/3 100/1/3
f 102/2/3 89/2/3 97/2/3
f 102/2/3 97/2/3 101/2/3
f 106/1/3 104/1/3 103/1/3
f 107/2/3 105/2/3 104/2/3
f 107/1/3 104/1/3 106/1/3
f 108/2/3 105/2/3 107/2/3
f 109/2/3 105/2/3 108/2/3
f 110/2/3 105/2/3 109/2/3
f 116/1/3 112/1/3 111/1/3
f 117/2/3 115/2/3 114/2/3
f 117/1/3 112/1/3 116/1/3
f 117/2/3 113/2/3 112/2/3
f 117/2/3 114/2/3 113/2/3
f 118/2/3 115/2/3 117/2/3
f 122/1/3 120/1/3 119/1/3
f 123/2/3 121/2/3 120/2/3
f 123/1/3 120/1/3 122/1/3
f 124/2/3 121/2/3 123/2/3
f 127/3/3 126/3/3 125/3/3
f 128/3/3 126/3/3 127/3/3
f 132/1/3 130/1/3 129/1/3
f 133/2/3 131/2/3 130/2/3
f 133/1/3 130/1/3 132/1/3
f 134/2/3 131/2/3 133/2/3
f 135/1/4 136/1/4 138/1/4
f 136/2/4 137/2/4 139/2/4
f 138/1/4 136/1/4 139/1/4
f 139/2/4 137/2/4 140/2/4
f 141/3/4 142/3/4 143/3/4
f 143/3/4 142/3/4 144/3/4
f 145/1/4 146/1/4 148/1/4
f 146/2/4 147/2/4 149/2/4
f 148/1/4 146/1/4 149/1/4
f 149/2/4 147/2/4 150/2/4
f 151/1/4 152/1/4 154/1/4
f 152/2/4 153/2/4 155/2/4
f 154/1/4 152/1/4 155/1/4
f 155/2/4 153/2/4 156/2/4
f 156/2/4 153/2/4 157/2/4
f 157/2/4 153/2/4 158/2/4
f 159/1/4 160/1/4 164/1/4
f 162/2/4 163/2/4 165/2/4
f 164/1/4 160/1/4 165/1/4
f 160/2/4 161/2/4 165/2/4
f 161/2/4 162/2/4 165/2/4
f 165/2/4 163/2/4 166/2/4
f 167/1/4 168/1/4 172/1/4
f 168/2/4 169/2/4 173/2/4
f 172/1/4 168/1/4 173/1/4
f 169/1/4 170/1/4 174/1/4
f 173/2/4 169/2/4 174/2/4
f 170/2/4 171/2/4 175/2/4
f 174/1/4 170/1/4 175/1/4
f 175/2/4 171/2/4 176/2/4
f 180/1/5 178/1/5 177/1/5
f 181/1/5 178/1/5 180/1/5
f 184/1/5 180/1/5 179/1/5
f 185/3/5 181/3/5 180/3/5
f 185/1/5 180/1/5 184/1/5
f 186/1/5 182/1/5 181/1/5
f 186/3/5 181/3/5 185/3/5
f 187/1/5 182/1/5 186/1/5
f 189/1/5 184/1/5 183/1/5
f 190/3/5 185/3/5 184/3/5
f 190/1/5 184/1/5 189/1/5
f 190/3/5 186/3/5 185/3/5
f 190/3/5 187/3/5 186/3/5
f 191/3/5 187/3/5 190/3/5
f 192/3/5 187/3/5 191/3/5
f 193/1/5 188/1/5 187/1/5
f 193/3/5 187/3/5 192/3/5
f 194/1/5 188/1/5 193/1/5
f 195/1/5 191/1/5 190/1/5
f 196/3/5 192/3/5 191/3/5
f 196/1/5 191/1/5 195/1/5
f 197/1/5 193/1/5 192/1/5
f 197/3/5 192/3/5 196/3/5
f 198/1/5 193/1/5 197/1/5
f 199/1/5 197/1/5 196/1/5
f 200/1/5 197/1/5 199/1/5
f 201/2/6 202/2/6 204/2/6
f 204/2/6 202/2/6 205/2/6
f 203/2/6 204/2/6 208/2/6
f 204/3/6 205/3/6 209/3/6
f 208/2/6 204/2/6 209/2/6
f 205/2/6 206/2/6 210/2/6
f 209/3/6 205/3/6 210/3/6
f 210/2/6 206/2/6 211/2/6
f 207/2/6 208/2/6 213/2/6
f 208/3/6 209/3/6 214/3/6
f 213/2/6 208/2/6 214/2/6
f 214/3/6 209/3/6 215/3/6
f 210/3/6 211/3/6 216/3/6
f 211/2/6 212/2/6 217/2/6
f 216/3/6 211/3/6 217/3/6
f 217/2/6 212/2/6 218/2/6
f 214/2/6 215/2/6 219/2/6
f 215/3/6 216/3/6 220/3/6
f 219/2/6 215/2/6 220/2/6
f 216/2/6 217/2/6 221/2/6
f 220/3/6 216/3/6 221/3/6
f 221/2/6 217/2/6 222/2/6
f 220/2/6 221/2/6 223/2/6
f 223/2/6 221/2/6 224/2/6
f 225/3/6 226/3/6 227/3/6
f 227/3/6 226/3/6 228/3/6
