# MagicaVoxel @ Ephtracy

# group
o 

# material
mtllib board.mtl
usemtl palette

# normals
vn -1 0 0
vn 1 0 0
vn 0 0 1
vn 0 0 -1
vn 0 -1 0
vn 0 1 0

# texcoords
vt 0.126953 0.5
vt 0.130859 0.5
vt 0.134766 0.5

# verts
v -0.6 0 -1.5
v -0.6 0 -1.6
v -0.6 7.4 -1.5
v -0.6 7.4 -1.6
v 0.8 0 -1.5
v 0.8 0 -1.6
v 0.8 3.3 -1.5
v 0.8 3.3 -1.6
v 0.8 5.2 -1.5
v 0.8 5.2 -1.6
v 0.8 5.6 -1.5
v 0.8 5.6 -1.6
v 0.8 6.7 -1.5
v 0.8 6.7 -1.6
v 0.8 7.4 -1.5
v 0.8 7.4 -1.6
v -0.6 0 -1.5
v -0.6 7.4 -1.5
v -0.5 4.8 -1.5
v -0.5 5.8 -1.5
v -0.4 1.3 -1.5
v -0.4 2.5 -1.5
v -0.4 3.4 -1.5
v -0.4 5.1 -1.5
v -0.4 5.8 -1.5
v -0.4 6.7 -1.5
v -0.3 1.3 -1.5
v -0.3 1.5 -1.5
v -0.3 2.1 -1.5
v -0.3 2.5 -1.5
v -0.3 2.7 -1.5
v -0.3 3.4 -1.5
v -0.3 4.8 -1.5
v -0.3 5.1 -1.5
v -0.3 5.3 -1.5
v -0.3 6.2 -1.5
v -0.3 6.7 -1.5
v -0.2 0.1 -1.5
v -0.2 1.5 -1.5
v -0.2 2.1 -1.5
v -0.2 2.7 -1.5
v -0.2 3.1 -1.5
v -0.2 3.2 -1.5
v -0.2 4 -1.5
v -0.2 4.4 -1.5
v -0.2 5.3 -1.5
v -0.2 6.2 -1.5
v -0.2 7.1 -1.5
v -0.0999999 0.1 -1.5
v -0.0999999 0.4 -1.5
v -0.0999999 1.3 -1.5
v -0.0999999 2.2 -1.5
v -0.0999999 2.4 -1.5
v -0.0999999 3.1 -1.5
v -0.0999999 3.2 -1.5
v -0.0999999 4 -1.5
v -0.0999999 4.4 -1.5
v -0.0999999 4.5 -1.5
v -0.0999999 4.7 -1.5
v -0.0999999 6 -1.5
v -0.0999999 6.2 -1.5
v -0.0999999 6.8 -1.5
v -0.0999999 7.1 -1.5
v 5.96046e-08 0.2 -1.5
v 5.96046e-08 0.4 -1.5
v 5.96046e-08 1.3 -1.5
v 5.96046e-08 1.8 -1.5
v 5.96046e-08 2.2 -1.5
v 5.96046e-08 2.4 -1.5
v 5.96046e-08 3 -1.5
v 5.96046e-08 3.8 -1.5
v 5.96046e-08 4.5 -1.5
v 5.96046e-08 4.7 -1.5
v 5.96046e-08 5.6 -1.5
v 5.96046e-08 6 -1.5
v 5.96046e-08 6.2 -1.5
v 5.96046e-08 6.3 -1.5
v 5.96046e-08 6.8 -1.5
v 5.96046e-08 7.4 -1.5
v 0.1 0.2 -1.5
v 0.1 0.9 -1.5
v 0.1 2.1 -1.5
v 0.1 3 -1.5
v 0.1 3.8 -1.5
v 0.1 4.1 -1.5
v 0.1 5 -1.5
v 0.1 5.6 -1.5
v 0.1 6.3 -1.5
v 0.1 7.2 -1.5
v 0.1 7.4 -1.5
v 0.2 0.2 -1.5
v 0.2 0.9 -1.5
v 0.2 1.8 -1.5
v 0.2 2.1 -1.5
v 0.2 4 -1.5
v 0.2 4.1 -1.5
v 0.2 4.7 -1.5
v 0.2 5 -1.5
v 0.2 6.8 -1.5
v 0.2 7.2 -1.5
v 0.3 0.2 -1.5
v 0.3 0.3 -1.5
v 0.3 4.7 -1.5
v 0.3 5 -1.5
v 0.3 5.2 -1.5
v 0.3 6.8 -1.5
v 0.3 7.2 -1.5
v 0.4 0.3 -1.5
v 0.4 2.6 -1.5
v 0.4 4 -1.5
v 0.4 4.7 -1.5
v 0.4 5 -1.5
v 0.4 5.2 -1.5
v 0.5 0.9 -1.5
v 0.5 2.6 -1.5
v 0.5 4.7 -1.5
v 0.5 5.2 -1.5
v 0.5 7.2 -1.5
v 0.5 7.4 -1.5
v 0.6 0.9 -1.5
v 0.6 2.5 -1.5
v 0.6 4.7 -1.5
v 0.6 6.1 -1.5
v 0.7 2.5 -1.5
v 0.7 3.3 -1.5
v 0.7 4.7 -1.5
v 0.7 5.2 -1.5
v 0.7 5.6 -1.5
v 0.7 6.1 -1.5
v 0.7 6.7 -1.5
v 0.7 7.4 -1.5
v 0.8 0 -1.5
v 0.8 3.3 -1.5
v 0.8 5.2 -1.5
v 0.8 5.6 -1.5
v 0.8 6.7 -1.5
v 0.8 7.4 -1.5
v -0.6 0 -1.6
v -0.6 7.4 -1.6
v -0.5 4.8 -1.6
v -0.5 5.8 -1.6
v -0.4 1.3 -1.6
v -0.4 2.5 -1.6
v -0.4 3.4 -1.6
v -0.4 5.1 -1.6
v -0.4 5.8 -1.6
v -0.4 6.7 -1.6
v -0.3 1.3 -1.6
v -0.3 1.5 -1.6
v -0.3 2.1 -1.6
v -0.3 2.5 -1.6
v -0.3 2.7 -1.6
v -0.3 3.4 -1.6
v -0.3 4.8 -1.6
v -0.3 5.1 -1.6
v -0.3 5.3 -1.6
v -0.3 6.2 -1.6
v -0.3 6.7 -1.6
v -0.2 0.1 -1.6
v -0.2 1.5 -1.6
v -0.2 2.1 -1.6
v -0.2 2.7 -1.6
v -0.2 3.1 -1.6
v -0.2 3.2 -1.6
v -0.2 4 -1.6
v -0.2 4.4 -1.6
v -0.2 5.3 -1.6
v -0.2 6.2 -1.6
v -0.2 7.1 -1.6
v -0.0999999 0.1 -1.6
v -0.0999999 0.4 -1.6
v -0.0999999 1.3 -1.6
v -0.0999999 2.2 -1.6
v -0.0999999 2.4 -1.6
v -0.0999999 3.1 -1.6
v -0.0999999 3.2 -1.6
v -0.0999999 4 -1.6
v -0.0999999 4.4 -1.6
v -0.0999999 4.5 -1.6
v -0.0999999 4.7 -1.6
v -0.0999999 6 -1.6
v -0.0999999 6.2 -1.6
v -0.0999999 6.8 -1.6
v -0.0999999 7.1 -1.6
v 5.96046e-08 0.2 -1.6
v 5.96046e-08 0.4 -1.6
v 5.96046e-08 1.3 -1.6
v 5.96046e-08 1.8 -1.6
v 5.96046e-08 2.2 -1.6
v 5.96046e-08 2.4 -1.6
v 5.96046e-08 3 -1.6
v 5.96046e-08 3.8 -1.6
v 5.96046e-08 4.5 -1.6
v 5.96046e-08 4.7 -1.6
v 5.96046e-08 5.6 -1.6
v 5.96046e-08 6 -1.6
v 5.96046e-08 6.2 -1.6
v 5.96046e-08 6.3 -1.6
v 5.96046e-08 6.8 -1.6
v 5.96046e-08 7.4 -1.6
v 0.1 0.2 -1.6
v 0.1 0.9 -1.6
v 0.1 2.1 -1.6
v 0.1 3 -1.6
v 0.1 3.8 -1.6
v 0.1 4.1 -1.6
v 0.1 5 -1.6
v 0.1 5.6 -1.6
v 0.1 6.3 -1.6
v 0.1 7.2 -1.6
v 0.1 7.4 -1.6
v 0.2 0.2 -1.6
v 0.2 0.9 -1.6
v 0.2 1.8 -1.6
v 0.2 2.1 -1.6
v 0.2 4 -1.6
v 0.2 4.1 -1.6
v 0.2 4.7 -1.6
v 0.2 5 -1.6
v 0.2 6.8 -1.6
v 0.2 7.2 -1.6
v 0.3 0.2 -1.6
v 0.3 0.3 -1.6
v 0.3 4.7 -1.6
v 0.3 5 -1.6
v 0.3 5.2 -1.6
v 0.3 6.8 -1.6
v 0.3 7.2 -1.6
v 0.4 0.3 -1.6
v 0.4 2.6 -1.6
v 0.4 4 -1.6
v 0.4 4.7 -1.6
v 0.4 5 -1.6
v 0.4 5.2 -1.6
v 0.5 0.9 -1.6
v 0.5 2.6 -1.6
v 0.5 4.7 -1.6
v 0.5 5.2 -1.6
v 0.5 7.2 -1.6
v 0.5 7.4 -1.6
v 0.6 0.9 -1.6
v 0.6 2.5 -1.6
v 0.6 4.7 -1.6
v 0.6 6.1 -1.6
v 0.7 2.5 -1.6
v 0.7 3.3 -1.6
v 0.7 4.7 -1.6
v 0.7 5.2 -1.6
v 0.7 5.6 -1.6
v 0.7 6.1 -1.6
v 0.7 6.7 -1.6
v 0.7 7.4 -1.6
v 0.8 0 -1.6
v 0.8 3.3 -1.6
v 0.8 5.2 -1.6
v 0.8 5.6 -1.6
v 0.8 6.7 -1.6
v 0.8 7.4 -1.6
v -0.6 0 -1.5
v 0.8 0 -1.5
v -0.6 0 -1.6
v 0.8 0 -1.6
v -0.6 7.4 -1.5
v 5.96046e-08 7.4 -1.5
v 0.1 7.4 -1.5
v 0.5 7.4 -1.5
v 0.7 7.4 -1.5
v 0.8 7.4 -1.5
v -0.6 7.4 -1.6
v 5.96046e-08 7.4 -1.6
v 0.1 7.4 -1.6
v 0.5 7.4 -1.6
v 0.7 7.4 -1.6
v 0.8 7.4 -1.6

# faces
f 3/1/1 2/1/1 1/1/1
f 4/1/1 2/1/1 3/1/1
f 5/1/2 6/1/2 7/1/2
f 7/1/2 6/1/2 8/1/2
f 7/3/2 8/3/2 9/3/2
f 9/3/2 8/3/2 10/3/2
f 9/1/2 10/1/2 11/1/2
f 11/1/2 10/1/2 12/1/2
f 11/2/2 12/2/2 13/2/2
f 13/2/2 12/2/2 14/2/2
f 13/1/2 14/1/2 15/1/2
f 15/1/2 14/1/2 16/1/2
f 19/1/3 18/1/3 17/1/3
f 20/1/3 18/1/3 19/1/3
f 21/1/3 19/1/3 17/1/3
f 22/1/3 19/1/3 21/1/3
f 23/1/3 19/1/3 22/1/3
f 24/2/3 20/2/3 19/2/3
f 25/1/3 18/1/3 20/1/3
f 25/2/3 20/2/3 24/2/3
f 26/1/3 18/1/3 25/1/3
f 27/1/3 21/1/3 17/1/3
f 27/2/3 22/2/3 21/2/3
f 28/2/3 22/2/3 27/2/3
f 29/2/3 22/2/3 28/2/3
f 30/3/3 23/3/3 22/3/3
f 30/2/3 22/2/3 29/2/3
f 31/3/3 23/3/3 30/3/3
f 32/1/3 19/1/3 23/1/3
f 32/3/3 23/3/3 31/3/3
f 33/2/3 24/2/3 19/2/3
f 33/1/3 19/1/3 32/1/3
f 34/3/3 26/3/3 25/3/3
f 34/2/3 24/2/3 33/2/3
f 34/3/3 25/3/3 24/3/3
f 35/3/3 26/3/3 34/3/3
f 36/3/3 26/3/3 35/3/3
f 37/1/3 18/1/3 26/1/3
f 37/3/3 26/3/3 36/3/3
f 38/1/3 27/1/3 17/1/3
f 38/1/3 28/1/3 27/1/3
f 39/2/3 29/2/3 28/2/3
f 39/1/3 28/1/3 38/1/3
f 40/3/3 31/3/3 30/3/3
f 40/2/3 29/2/3 39/2/3
f 40/3/3 30/3/3 29/3/3
f 41/1/3 32/1/3 31/1/3
f 41/3/3 31/3/3 40/3/3
f 41/1/3 33/1/3 32/1/3
f 41/1/3 34/1/3 33/1/3
f 41/1/3 35/1/3 34/1/3
f 42/1/3 35/1/3 41/1/3
f 43/1/3 35/1/3 42/1/3
f 44/1/3 35/1/3 43/1/3
f 45/1/3 35/1/3 44/1/3
f 46/2/3 36/2/3 35/2/3
f 46/1/3 35/1/3 45/1/3
f 47/1/3 37/1/3 36/1/3
f 47/2/3 36/2/3 46/2/3
f 48/1/3 18/1/3 37/1/3
f 48/1/3 37/1/3 47/1/3
f 49/2/3 40/2/3 39/2/3
f 49/2/3 39/2/3 38/2/3
f 49/1/3 38/1/3 17/1/3
f 49/2/3 41/2/3 40/2/3
f 49/2/3 42/2/3 41/2/3
f 50/2/3 42/2/3 49/2/3
f 51/2/3 42/2/3 50/2/3
f 52/2/3 42/2/3 51/2/3
f 53/2/3 42/2/3 52/2/3
f 54/1/3 43/1/3 42/1/3
f 54/2/3 42/2/3 53/2/3
f 55/3/3 44/3/3 43/3/3
f 55/1/3 43/1/3 54/1/3
f 56/1/3 45/1/3 44/1/3
f 56/3/3 44/3/3 55/3/3
f 57/2/3 48/2/3 47/2/3
f 57/1/3 45/1/3 56/1/3
f 57/2/3 46/2/3 45/2/3
f 57/2/3 47/2/3 46/2/3
f 58/2/3 48/2/3 57/2/3
f 59/2/3 48/2/3 58/2/3
f 60/2/3 48/2/3 59/2/3
f 61/2/3 48/2/3 60/2/3
f 62/2/3 48/2/3 61/2/3
f 63/1/3 18/1/3 48/1/3
f 63/2/3 48/2/3 62/2/3
f 64/1/3 50/1/3 49/1/3
f 65/2/3 51/2/3 50/2/3
f 65/1/3 50/1/3 64/1/3
f 66/3/3 52/3/3 51/3/3
f 66/2/3 51/2/3 65/2/3
f 67/3/3 52/3/3 66/3/3
f 68/1/3 53/1/3 52/1/3
f 68/3/3 52/3/3 67/3/3
f 69/3/3 56/3/3 55/3/3
f 69/1/3 53/1/3 68/1/3
f 69/3/3 55/3/3 54/3/3
f 69/3/3 54/3/3 53/3/3
f 69/3/3 57/3/3 56/3/3
f 69/3/3 58/3/3 57/3/3
f 70/3/3 58/3/3 69/3/3
f 71/3/3 58/3/3 70/3/3
f 72/1/3 59/1/3 58/1/3
f 72/3/3 58/3/3 71/3/3
f 73/3/3 60/3/3 59/3/3
f 73/1/3 59/1/3 72/1/3
f 74/3/3 60/3/3 73/3/3
f 75/1/3 61/1/3 60/1/3
f 75/3/3 60/3/3 74/3/3
f 76/2/3 62/2/3 61/2/3
f 76/1/3 61/1/3 75/1/3
f 77/2/3 62/2/3 76/2/3
f 78/1/3 63/1/3 62/1/3
f 78/2/3 62/2/3 77/2/3
f 79/1/3 18/1/3 63/1/3
f 79/1/3 63/1/3 78/1/3
f 80/2/3 66/2/3 65/2/3
f 80/2/3 65/2/3 64/2/3
f 80/1/3 64/1/3 49/1/3
f 80/2/3 67/2/3 66/2/3
f 81/2/3 67/2/3 80/2/3
f 82/1/3 68/1/3 67/1/3
f 82/1/3 69/1/3 68/1/3
f 82/1/3 70/1/3 69/1/3
f 83/3/3 71/3/3 70/3/3
f 83/1/3 70/1/3 82/1/3
f 84/1/3 73/1/3 72/1/3
f 84/3/3 71/3/3 83/3/3
f 84/1/3 74/1/3 73/1/3
f 84/1/3 72/1/3 71/1/3
f 85/1/3 74/1/3 84/1/3
f 86/1/3 74/1/3 85/1/3
f 87/3/3 75/3/3 74/3/3
f 87/1/3 74/1/3 86/1/3
f 87/3/3 77/3/3 76/3/3
f 87/3/3 76/3/3 75/3/3
f 88/2/3 79/2/3 78/2/3
f 88/3/3 77/3/3 87/3/3
f 88/2/3 78/2/3 77/2/3
f 89/2/3 79/2/3 88/2/3
f 90/2/3 79/2/3 89/2/3
f 91/1/3 80/1/3 49/1/3
f 91/3/3 81/3/3 80/3/3
f 92/2/3 67/2/3 81/2/3
f 92/3/3 81/3/3 91/3/3
f 93/1/3 82/1/3 67/1/3
f 93/2/3 67/2/3 92/2/3
f 94/3/3 85/3/3 84/3/3
f 94/1/3 82/1/3 93/1/3
f 94/3/3 84/3/3 83/3/3
f 94/3/3 83/3/3 82/3/3
f 95/3/3 85/3/3 94/3/3
f 96/1/3 86/1/3 85/1/3
f 96/3/3 85/3/3 95/3/3
f 97/1/3 86/1/3 96/1/3
f 98/3/3 87/3/3 86/3/3
f 98/1/3 86/1/3 97/1/3
f 98/3/3 89/3/3 88/3/3
f 98/3/3 88/3/3 87/3/3
f 99/3/3 89/3/3 98/3/3
f 100/1/3 90/1/3 89/1/3
f 100/3/3 89/3/3 99/3/3
f 101/2/3 95/2/3 94/2/3
f 101/1/3 91/1/3 49/1/3
f 101/2/3 93/2/3 92/2/3
f 101/2/3 94/2/3 93/2/3
f 101/2/3 92/2/3 91/2/3
f 102/2/3 95/2/3 101/2/3
f 103/1/3 97/1/3 96/1/3
f 103/3/3 98/3/3 97/3/3
f 103/1/3 96/1/3 95/1/3
f 103/3/3 99/3/3 98/3/3
f 104/3/3 99/3/3 103/3/3
f 105/3/3 99/3/3 104/3/3
f 106/1/3 100/1/3 99/1/3
f 106/3/3 99/3/3 105/3/3
f 107/1/3 90/1/3 100/1/3
f 107/1/3 100/1/3 106/1/3
f 108/2/3 95/2/3 102/2/3
f 108/1/3 102/1/3 101/1/3
f 109/2/3 95/2/3 108/2/3
f 110/1/3 103/1/3 95/1/3
f 110/2/3 95/2/3 109/2/3
f 110/1/3 104/1/3 103/1/3
f 111/1/3 104/1/3 110/1/3
f 112/3/3 105/3/3 104/3/3
f 112/1/3 104/1/3 111/1/3
f 113/2/3 106/2/3 105/2/3
f 113/3/3 105/3/3 112/3/3
f 113/2/3 107/2/3 106/2/3
f 114/1/3 109/1/3 108/1/3
f 115/3/3 111/3/3 110/3/3
f 115/1/3 109/1/3 114/1/3
f 115/3/3 110/3/3 109/3/3
f 116/1/3 112/1/3 111/1/3
f 116/3/3 111/3/3 115/3/3
f 116/1/3 113/1/3 112/1/3
f 117/2/3 107/2/3 113/2/3
f 117/1/3 113/1/3 116/1/3
f 118/1/3 90/1/3 107/1/3
f 118/2/3 107/2/3 117/2/3
f 119/1/3 90/1/3 118/1/3
f 120/2/3 115/2/3 114/2/3
f 120/1/3 114/1/3 108/1/3
f 120/2/3 119/2/3 118/2/3
f 120/2/3 118/2/3 117/2/3
f 120/2/3 116/2/3 115/2/3
f 120/2/3 117/2/3 116/2/3
f 121/2/3 119/2/3 120/2/3
f 122/2/3 119/2/3 121/2/3
f 123/2/3 119/2/3 122/2/3
f 124/1/3 121/1/3 120/1/3
f 124/3/3 122/3/3 121/3/3
f 125/3/3 122/3/3 124/3/3
f 126/1/3 123/1/3 122/1/3
f 126/3/3 122/3/3 125/3/3
f 127/1/3 123/1/3 126/1/3
f 128/1/3 123/1/3 127/1/3
f 129/2/3 119/2/3 123/2/3
f 129/1/3 123/1/3 128/1/3
f 130/2/3 119/2/3 129/2/3
f 131/2/3 119/2/3 130/2/3
f 132/1/3 49/1/3 17/1/3
f 132/1/3 108/1/3 101/1/3
f 132/1/3 101/1/3 49/1/3
f 132/1/3 120/1/3 108/1/3
f 132/1/3 125/1/3 124/1/3
f 132/1/3 124/1/3 120/1/3
f 133/3/3 127/3/3 126/3/3
f 133/1/3 125/1/3 132/1/3
f 133/3/3 126/3/3 125/3/3
f 134/1/3 128/1/3 127/1/3
f 134/3/3 127/3/3 133/3/3
f 135/2/3 130/2/3 129/2/3
f 135/1/3 128/1/3 134/1/3
f 135/2/3 129/2/3 128/2/3
f 136/1/3 131/1/3 130/1/3
f 136/2/3 130/2/3 135/2/3
f 137/1/3 131/1/3 136/1/3
f 138/1/4 139/1/4 140/1/4
f 140/1/4 139/1/4 141/1/4
f 138/1/4 140/1/4 142/1/4
f 142/1/4 140/1/4 143/1/4
f 143/1/4 140/1/4 144/1/4
f 140/2/4 141/2/4 145/2/4
f 141/1/4 139/1/4 146/1/4
f 145/2/4 141/2/4 146/2/4
f 146/1/4 139/1/4 147/1/4
f 138/1/4 142/1/4 148/1/4
f 142/2/4 143/2/4 148/2/4
f 148/2/4 143/2/4 149/2/4
f 149/2/4 143/2/4 150/2/4
f 143/3/4 144/3/4 151/3/4
f 150/2/4 143/2/4 151/2/4
f 151/3/4 144/3/4 152/3/4
f 144/1/4 140/1/4 153/1/4
f 152/3/4 144/3/4 153/3/4
f 140/2/4 145/2/4 154/2/4
f 153/1/4 140/1/4 154/1/4
f 146/3/4 147/3/4 155/3/4
f 154/2/4 145/2/4 155/2/4
f 145/3/4 146/3/4 155/3/4
f 155/3/4 147/3/4 156/3/4
f 156/3/4 147/3/4 157/3/4
f 147/1/4 139/1/4 158/1/4
f 157/3/4 147/3/4 158/3/4
f 138/1/4 148/1/4 159/1/4
f 148/1/4 149/1/4 159/1/4
f 149/2/4 150/2/4 160/2/4
f 159/1/4 149/1/4 160/1/4
f 151/3/4 152/3/4 161/3/4
f 160/2/4 150/2/4 161/2/4
f 150/3/4 151/3/4 161/3/4
f 152/1/4 153/1/4 162/1/4
f 161/3/4 152/3/4 162/3/4
f 153/1/4 154/1/4 162/1/4
f 154/1/4 155/1/4 162/1/4
f 155/1/4 156/1/4 162/1/4
f 162/1/4 156/1/4 163/1/4
f 163/1/4 156/1/4 164/1/4
f 164/1/4 156/1/4 165/1/4
f 165/1/4 156/1/4 166/1/4
f 156/2/4 157/2/4 167/2/4
f 166/1/4 156/1/4 167/1/4
f 157/1/4 158/1/4 168/1/4
f 167/2/4 157/2/4 168/2/4
f 158/1/4 139/1/4 169/1/4
f 168/1/4 158/1/4 169/1/4
f 160/2/4 161/2/4 170/2/4
f 159/2/4 160/2/4 170/2/4
f 138/1/4 159/1/4 170/1/4
f 161/2/4 162/2/4 170/2/4
f 162/2/4 163/2/4 170/2/4
f 170/2/4 163/2/4 171/2/4
f 171/2/4 163/2/4 172/2/4
f 172/2/4 163/2/4 173/2/4
f 173/2/4 163/2/4 174/2/4
f 163/1/4 164/1/4 175/1/4
f 174/2/4 163/2/4 175/2/4
f 164/3/4 165/3/4 176/3/4
f 175/1/4 164/1/4 176/1/4
f 165/1/4 166/1/4 177/1/4
f 176/3/4 165/3/4 177/3/4
f 168/2/4 169/2/4 178/2/4
f 177/1/4 166/1/4 178/1/4
f 166/2/4 167/2/4 178/2/4
f 167/2/4 168/2/4 178/2/4
f 178/2/4 169/2/4 179/2/4
f 179/2/4 169/2/4 180/2/4
f 180/2/4 169/2/4 181/2/4
f 181/2/4 169/2/4 182/2/4
f 182/2/4 169/2/4 183/2/4
f 169/1/4 139/1/4 184/1/4
f 183/2/4 169/2/4 184/2/4
f 170/1/4 171/1/4 185/1/4
f 171/2/4 172/2/4 186/2/4
f 185/1/4 171/1/4 186/1/4
f 172/3/4 173/3/4 187/3/4
f 186/2/4 172/2/4 187/2/4
f 187/3/4 173/3/4 188/3/4
f 173/1/4 174/1/4 189/1/4
f 188/3/4 173/3/4 189/3/4
f 176/3/4 177/3/4 190/3/4
f 189/1/4 174/1/4 190/1/4
f 175/3/4 176/3/4 190/3/4
f 174/3/4 175/3/4 190/3/4
f 177/3/4 178/3/4 190/3/4
f 178/3/4 179/3/4 190/3/4
f 190/3/4 179/3/4 191/3/4
f 191/3/4 179/3/4 192/3/4
f 179/1/4 180/1/4 193/1/4
f 192/3/4 179/3/4 193/3/4
f 180/3/4 181/3/4 194/3/4
f 193/1/4 180/1/4 194/1/4
f 194/3/4 181/3/4 195/3/4
f 181/1/4 182/1/4 196/1/4
f 195/3/4 181/3/4 196/3/4
f 182/2/4 183/2/4 197/2/4
f 196/1/4 182/1/4 197/1/4
f 197/2/4 183/2/4 198/2/4
f 183/1/4 184/1/4 199/1/4
f 198/2/4 183/2/4 199/2/4
f 184/1/4 139/1/4 200/1/4
f 199/1/4 184/1/4 200/1/4
f 186/2/4 187/2/4 201/2/4
f 185/2/4 186/2/4 201/2/4
f 170/1/4 185/1/4 201/1/4
f 187/2/4 188/2/4 201/2/4
f 201/2/4 188/2/4 202/2/4
f 188/1/4 189/1/4 203/1/4
f 189/1/4 190/1/4 203/1/4
f 190/1/4 191/1/4 203/1/4
f 191/3/4 192/3/4 204/3/4
f 203/1/4 191/1/4 204/1/4
f 193/1/4 194/1/4 205/1/4
f 204/3/4 192/3/4 205/3/4
f 194/1/4 195/1/4 205/1/4
f 192/1/4 193/1/4 205/1/4
f 205/1/4 195/1/4 206/1/4
f 206/1/4 195/1/4 207/1/4
f 195/3/4 196/3/4 208/3/4
f 207/1/4 195/1/4 208/1/4
f 197/3/4 198/3/4 208/3/4
f 196/3/4 197/3/4 208/3/4
f 199/2/4 200/2/4 209/2/4
f 208/3/4 198/3/4 209/3/4
f 198/2/4 199/2/4 209/2/4
f 209/2/4 200/2/4 210/2/4
f 210/2/4 200/2/4 211/2/4
f 170/1/4 201/1/4 212/1/4
f 201/3/4 202/3/4 212/3/4
f 202/2/4 188/2/4 213/2/4
f 212/3/4 202/3/4 213/3/4
f 188/1/4 203/1/4 214/1/4
f 213/2/4 188/2/4 214/2/4
f 205/3/4 206/3/4 215/3/4
f 214/1/4 203/1/4 215/1/4
f 204/3/4 205/3/4 215/3/4
f 203/3/4 204/3/4 215/3/4
f 215/3/4 206/3/4 216/3/4
f 206/1/4 207/1/4 217/1/4
f 216/3/4 206/3/4 217/3/4
f 217/1/4 207/1/4 218/1/4
f 207/3/4 208/3/4 219/3/4
f 218/1/4 207/1/4 219/1/4
f 209/3/4 210/3/4 219/3/4
f 208/3/4 209/3/4 219/3/4
f 219/3/4 210/3/4 220/3/4
f 210/1/4 211/1/4 221/1/4
f 220/3/4 210/3/4 221/3/4
f 215/2/4 216/2/4 222/2/4
f 170/1/4 212/1/4 222/1/4
f 213/2/4 214/2/4 222/2/4
f 214/2/4 215/2/4 222/2/4
f 212/2/4 213/2/4 222/2/4
f 222/2/4 216/2/4 223/2/4
f 217/1/4 218/1/4 224/1/4
f 218/3/4 219/3/4 224/3/4
f 216/1/4 217/1/4 224/1/4
f 219/3/4 220/3/4 224/3/4
f 224/3/4 220/3/4 225/3/4
f 225/3/4 220/3/4 226/3/4
f 220/1/4 221/1/4 227/1/4
f 226/3/4 220/3/4 227/3/4
f 221/1/4 211/1/4 228/1/4
f 227/1/4 221/1/4 228/1/4
f 223/2/4 216/2/4 229/2/4
f 222/1/4 223/1/4 229/1/4
f 229/2/4 216/2/4 230/2/4
f 216/1/4 224/1/4 231/1/4
f 230/2/4 216/2/4 231/2/4
f 224/1/4 225/1/4 231/1/4
f 231/1/4 225/1/4 232/1/4
f 225/3/4 226/3/4 233/3/4
f 232/1/4 225/1/4 233/1/4
f 226/2/4 227/2/4 234/2/4
f 233/3/4 226/3/4 234/3/4
f 227/2/4 228/2/4 234/2/4
f 229/1/4 230/1/4 235/1/4
f 231/3/4 232/3/4 236/3/4
f 235/1/4 230/1/4 236/1/4
f 230/3/4 231/3/4 236/3/4
f 232/1/4 233/1/4 237/1/4
f 236/3/4 232/3/4 237/3/4
f 233/1/4 234/1/4 237/1/4
f 234/2/4 228/2/4 238/2/4
f 237/1/4 234/1/4 238/1/4
f 228/1/4 211/1/4 239/1/4
f 238/2/4 228/2/4 239/2/4
f 239/1/4 211/1/4 240/1/4
f 235/2/4 236/2/4 241/2/4
f 229/1/4 235/1/4 241/1/4
f 239/2/4 240/2/4 241/2/4
f 238/2/4 239/2/4 241/2/4
f 236/2/4 237/2/4 241/2/4
f 237/2/4 238/2/4 241/2/4
f 241/2/4 240/2/4 242/2/4
f 242/2/4 240/2/4 243/2/4
f 243/2/4 240/2/4 244/2/4
f 241/1/4 242/1/4 245/1/4
f 242/3/4 243/3/4 245/3/4
f 245/3/4 243/3/4 246/3/4
f 243/1/4 244/1/4 247/1/4
f 246/3/4 243/3/4 247/3/4
f 247/1/4 244/1/4 248/1/4
f 248/1/4 244/1/4 249/1/4
f 244/2/4 240/2/4 250/2/4
f 249/1/4 244/1/4 250/1/4
f 250/2/4 240/2/4 251/2/4
f 251/2/4 240/2/4 252/2/4
f 138/1/4 170/1/4 253/1/4
f 222/1/4 229/1/4 253/1/4
f 170/1/4 222/1/4 253/1/4
f 229/1/4 241/1/4 253/1/4
f 245/1/4 246/1/4 253/1/4
f 241/1/4 245/1/4 253/1/4
f 247/3/4 248/3/4 254/3/4
f 253/1/4 246/1/4 254/1/4
f 246/3/4 247/3/4 254/3/4
f 248/1/4 249/1/4 255/1/4
f 254/3/4 248/3/4 255/3/4
f 250/2/4 251/2/4 256/2/4
f 255/1/4 249/1/4 256/1/4
f 249/2/4 250/2/4 256/2/4
f 251/1/4 252/1/4 257/1/4
f 256/2/4 251/2/4 257/2/4
f 257/1/4 252/1/4 258/1/4
f 261/1/5 260/1/5 259/1/5
f 262/1/5 260/1/5 261/1/5
f 263/1/6 264/1/6 269/1/6
f 264/2/6 265/2/6 270/2/6
f 269/1/6 264/1/6 270/1/6
f 265/1/6 266/1/6 271/1/6
f 270/2/6 265/2/6 271/2/6
f 266/2/6 267/2/6 272/2/6
f 271/1/6 266/1/6 272/1/6
f 267/1/6 268/1/6 273/1/6
f 272/2/6 267/2/6 273/2/6
f 273/1/6 268/1/6 274/1/6
