# MagicaVoxel @ Ephtracy

# group
o 

# material
mtllib empty syringe.mtl
usemtl palette

# normals
vn -1 0 0
vn 1 0 0
vn 0 0 1
vn 0 0 -1
vn 0 -1 0
vn 0 1 0

# texcoords
vt 0.970703 0.5
vt 0.974609 0.5
vt 0.978516 0.5
vt 0.982422 0.5

# verts
v -1 0.7 0.3
v -1 0.7 0
v -1 0.8 0.3
v -1 0.8 0
v -0.9 0.7 0.4
v -0.9 0.7 0.3
v -0.9 0.7 0
v -0.9 0.7 -0.1
v -0.9 0.8 0.4
v -0.9 0.8 0.3
v -0.9 0.8 0
v -0.9 0.8 -0.1
v -0.8 0 0.3
v -0.8 0 0
v -0.8 0.1 0.3
v -0.8 0.1 0
v -0.8 0.8 0.2
v -0.8 0.8 0.1
v -0.8 2.6 0.2
v -0.8 2.6 0.1
v -0.7 0 0.4
v -0.7 0 0.3
v -0.7 0 0
v -0.7 0 -0.1
v -0.7 0.1 0.4
v -0.7 0.1 0.3
v -0.7 0.1 0
v -0.7 0.1 -0.1
v -0.7 0.2 0.3
v -0.7 0.2 0
v -0.7 0.5 0.2
v -0.7 0.5 0.1
v -0.7 0.7 0.2
v -0.7 0.7 0.1
v -0.7 0.8 0.3
v -0.7 0.8 0.2
v -0.7 0.8 0.1
v -0.7 0.8 0
v -0.7 2.6 0.3
v -0.7 2.6 0.2
v -0.7 2.6 0.1
v -0.7 2.6 0
v -0.6 0 0.5
v -0.6 0 0.4
v -0.6 0 -0.1
v -0.6 0 -0.2
v -0.6 0.1 0.5
v -0.6 0.1 0.4
v -0.6 0.1 0.3
v -0.6 0.1 0
v -0.6 0.1 -0.1
v -0.6 0.1 -0.2
v -0.6 0.2 0.4
v -0.6 0.2 0.3
v -0.6 0.2 0
v -0.6 0.2 -0.1
v -0.6 0.5 0.2
v -0.6 0.5 0.1
v -0.6 0.7 0.3
v -0.6 0.7 0.2
v -0.6 0.7 0.1
v -0.6 0.7 0
v -0.6 0.8 0.4
v -0.6 0.8 0.3
v -0.6 0.8 0
v -0.6 0.8 -0.1
v -0.6 2.6 0.4
v -0.6 2.6 0.3
v -0.6 2.6 0.2
v -0.6 2.6 0.1
v -0.6 2.6 0
v -0.6 2.6 -0.1
v -0.6 2.9 0.2
v -0.6 2.9 0.1
v -0.5 0.5 0.4
v -0.5 0.5 0.3
v -0.5 0.5 0
v -0.5 0.5 -0.1
v -0.5 0.7 0.5
v -0.5 0.7 0.4
v -0.5 0.7 0.3
v -0.5 0.7 0
v -0.5 0.7 -0.1
v -0.5 0.7 -0.2
v -0.5 2.6 0.5
v -0.5 2.6 0.4
v -0.5 2.6 0.3
v -0.5 2.6 0.2
v -0.5 2.6 0.1
v -0.5 2.6 0
v -0.5 2.6 -0.1
v -0.5 2.6 -0.2
v -0.5 2.9 0.3
v -0.5 2.9 0.2
v -0.5 2.9 0.1
v -0.5 2.9 0
v -0.5 3 0.2
v -0.5 3 0.1
v -0.5 4.3 0.2
v -0.5 4.3 0.1
v -0.4 0.5 0.4
v -0.4 0.5 0.3
v -0.4 0.5 0
v -0.4 0.5 -0.1
v -0.4 0.7 0.5
v -0.4 0.7 0.4
v -0.4 0.7 0.3
v -0.4 0.7 0
v -0.4 0.7 -0.1
v -0.4 0.7 -0.2
v -0.4 2.6 0.5
v -0.4 2.6 0.4
v -0.4 2.6 0.3
v -0.4 2.6 0.2
v -0.4 2.6 0.1
v -0.4 2.6 0
v -0.4 2.6 -0.1
v -0.4 2.6 -0.2
v -0.4 2.9 0.3
v -0.4 2.9 0.2
v -0.4 2.9 0.1
v -0.4 2.9 0
v -0.4 3 0.2
v -0.4 3 0.1
v -0.4 4.3 0.2
v -0.4 4.3 0.1
v -0.3 0 0.5
v -0.3 0 0.4
v -0.3 0 -0.1
v -0.3 0 -0.2
v -0.3 0.1 0.5
v -0.3 0.1 0.4
v -0.3 0.1 0.3
v -0.3 0.1 0
v -0.3 0.1 -0.1
v -0.3 0.1 -0.2
v -0.3 0.2 0.4
v -0.3 0.2 0.3
v -0.3 0.2 0
v -0.3 0.2 -0.1
v -0.3 0.5 0.2
v -0.3 0.5 0.1
v -0.3 0.7 0.3
v -0.3 0.7 0.2
v -0.3 0.7 0.1
v -0.3 0.7 0
v -0.3 0.8 0.4
v -0.3 0.8 0.3
v -0.3 0.8 0
v -0.3 0.8 -0.1
v -0.3 2.6 0.4
v -0.3 2.6 0.3
v -0.3 2.6 0.2
v -0.3 2.6 0.1
v -0.3 2.6 0
v -0.3 2.6 -0.1
v -0.3 2.9 0.2
v -0.3 2.9 0.1
v -0.2 0 0.4
v -0.2 0 0.3
v -0.2 0 0
v -0.2 0 -0.1
v -0.2 0.1 0.4
v -0.2 0.1 0.3
v -0.2 0.1 0
v -0.2 0.1 -0.1
v -0.2 0.2 0.3
v -0.2 0.2 0
v -0.2 0.5 0.2
v -0.2 0.5 0.1
v -0.2 0.7 0.2
v -0.2 0.7 0.1
v -0.2 0.8 0.3
v -0.2 0.8 0.2
v -0.2 0.8 0.1
v -0.2 0.8 0
v -0.2 2.6 0.3
v -0.2 2.6 0.2
v -0.2 2.6 0.1
v -0.2 2.6 0
v -0.0999999 0 0.3
v -0.0999999 0 0
v -0.0999999 0.1 0.3
v -0.0999999 0.1 0
v -0.0999999 0.8 0.2
v -0.0999999 0.8 0.1
v -0.0999999 2.6 0.2
v -0.0999999 2.6 0.1
v 1.19209e-07 0.7 0.4
v 1.19209e-07 0.7 0.3
v 1.19209e-07 0.7 0
v 1.19209e-07 0.7 -0.1
v 1.19209e-07 0.8 0.4
v 1.19209e-07 0.8 0.3
v 1.19209e-07 0.8 0
v 1.19209e-07 0.8 -0.1
v 0.1 0.7 0.3
v 0.1 0.7 0
v 0.1 0.8 0.3
v 0.1 0.8 0
v -0.6 0 0.5
v -0.6 0.1 0.5
v -0.5 0.7 0.5
v -0.5 2.6 0.5
v -0.4 0.7 0.5
v -0.4 2.6 0.5
v -0.3 0 0.5
v -0.3 0.1 0.5
v -0.9 0.7 0.4
v -0.9 0.8 0.4
v -0.7 0 0.4
v -0.7 0.1 0.4
v -0.6 0 0.4
v -0.6 0.1 0.4
v -0.6 0.2 0.4
v -0.6 0.8 0.4
v -0.6 2.6 0.4
v -0.5 0.5 0.4
v -0.5 0.7 0.4
v -0.5 2.6 0.4
v -0.4 0.5 0.4
v -0.4 0.7 0.4
v -0.4 2.6 0.4
v -0.3 0 0.4
v -0.3 0.1 0.4
v -0.3 0.2 0.4
v -0.3 0.8 0.4
v -0.3 2.6 0.4
v -0.2 0 0.4
v -0.2 0.1 0.4
v 1.19209e-07 0.7 0.4
v 1.19209e-07 0.8 0.4
v -1 0.7 0.3
v -1 0.8 0.3
v -0.9 0.7 0.3
v -0.9 0.8 0.3
v -0.8 0 0.3
v -0.8 0.1 0.3
v -0.7 0 0.3
v -0.7 0.1 0.3
v -0.7 0.2 0.3
v -0.7 0.8 0.3
v -0.7 2.6 0.3
v -0.6 0.1 0.3
v -0.6 0.2 0.3
v -0.6 0.7 0.3
v -0.6 0.8 0.3
v -0.6 2.6 0.3
v -0.5 0.5 0.3
v -0.5 0.7 0.3
v -0.5 2.6 0.3
v -0.5 2.9 0.3
v -0.4 0.5 0.3
v -0.4 0.7 0.3
v -0.4 2.6 0.3
v -0.4 2.9 0.3
v -0.3 0.1 0.3
v -0.3 0.2 0.3
v -0.3 0.7 0.3
v -0.3 0.8 0.3
v -0.3 2.6 0.3
v -0.2 0 0.3
v -0.2 0.1 0.3
v -0.2 0.2 0.3
v -0.2 0.8 0.3
v -0.2 2.6 0.3
v -0.0999999 0 0.3
v -0.0999999 0.1 0.3
v 1.19209e-07 0.7 0.3
v 1.19209e-07 0.8 0.3
v 0.1 0.7 0.3
v 0.1 0.8 0.3
v -0.8 0.8 0.2
v -0.8 2.6 0.2
v -0.7 0.5 0.2
v -0.7 0.7 0.2
v -0.7 0.8 0.2
v -0.7 2.6 0.2
v -0.6 0.5 0.2
v -0.6 0.7 0.2
v -0.6 2.6 0.2
v -0.6 2.9 0.2
v -0.5 2.6 0.2
v -0.5 2.9 0.2
v -0.5 3 0.2
v -0.5 4.3 0.2
v -0.4 2.6 0.2
v -0.4 2.9 0.2
v -0.4 3 0.2
v -0.4 4.3 0.2
v -0.3 0.5 0.2
v -0.3 0.7 0.2
v -0.3 2.6 0.2
v -0.3 2.9 0.2
v -0.2 0.5 0.2
v -0.2 0.7 0.2
v -0.2 0.8 0.2
v -0.2 2.6 0.2
v -0.0999999 0.8 0.2
v -0.0999999 2.6 0.2
v -0.8 0.8 0.1
v -0.8 2.6 0.1
v -0.7 0.5 0.1
v -0.7 0.7 0.1
v -0.7 0.8 0.1
v -0.7 2.6 0.1
v -0.6 0.5 0.1
v -0.6 0.7 0.1
v -0.6 2.6 0.1
v -0.6 2.9 0.1
v -0.5 2.6 0.1
v -0.5 2.9 0.1
v -0.5 3 0.1
v -0.5 4.3 0.1
v -0.4 2.6 0.1
v -0.4 2.9 0.1
v -0.4 3 0.1
v -0.4 4.3 0.1
v -0.3 0.5 0.1
v -0.3 0.7 0.1
v -0.3 2.6 0.1
v -0.3 2.9 0.1
v -0.2 0.5 0.1
v -0.2 0.7 0.1
v -0.2 0.8 0.1
v -0.2 2.6 0.1
v -0.0999999 0.8 0.1
v -0.0999999 2.6 0.1
v -1 0.7 0
v -1 0.8 0
v -0.9 0.7 0
v -0.9 0.8 0
v -0.8 0 0
v -0.8 0.1 0
v -0.7 0 0
v -0.7 0.1 0
v -0.7 0.2 0
v -0.7 0.8 0
v -0.7 2.6 0
v -0.6 0.1 0
v -0.6 0.2 0
v -0.6 0.7 0
v -0.6 0.8 0
v -0.6 2.6 0
v -0.5 0.5 0
v -0.5 0.7 0
v -0.5 2.6 0
v -0.5 2.9 0
v -0.4 0.5 0
v -0.4 0.7 0
v -0.4 2.6 0
v -0.4 2.9 0
v -0.3 0.1 0
v -0.3 0.2 0
v -0.3 0.7 0
v -0.3 0.8 0
v -0.3 2.6 0
v -0.2 0 0
v -0.2 0.1 0
v -0.2 0.2 0
v -0.2 0.8 0
v -0.2 2.6 0
v -0.0999999 0 0
v -0.0999999 0.1 0
v 1.19209e-07 0.7 0
v 1.19209e-07 0.8 0
v 0.1 0.7 0
v 0.1 0.8 0
v -0.9 0.7 -0.1
v -0.9 0.8 -0.1
v -0.7 0 -0.1
v -0.7 0.1 -0.1
v -0.6 0 -0.1
v -0.6 0.1 -0.1
v -0.6 0.2 -0.1
v -0.6 0.8 -0.1
v -0.6 2.6 -0.1
v -0.5 0.5 -0.1
v -0.5 0.7 -0.1
v -0.5 2.6 -0.1
v -0.4 0.5 -0.1
v -0.4 0.7 -0.1
v -0.4 2.6 -0.1
v -0.3 0 -0.1
v -0.3 0.1 -0.1
v -0.3 0.2 -0.1
v -0.3 0.8 -0.1
v -0.3 2.6 -0.1
v -0.2 0 -0.1
v -0.2 0.1 -0.1
v 1.19209e-07 0.7 -0.1
v 1.19209e-07 0.8 -0.1
v -0.6 0 -0.2
v -0.6 0.1 -0.2
v -0.5 0.7 -0.2
v -0.5 2.6 -0.2
v -0.4 0.7 -0.2
v -0.4 2.6 -0.2
v -0.3 0 -0.2
v -0.3 0.1 -0.2
v -0.6 0 0.5
v -0.3 0 0.5
v -0.7 0 0.4
v -0.6 0 0.4
v -0.3 0 0.4
v -0.2 0 0.4
v -0.8 0 0.3
v -0.7 0 0.3
v -0.6 0 0.3
v -0.3 0 0.3
v -0.2 0 0.3
v -0.0999999 0 0.3
v -0.8 0 0
v -0.7 0 0
v -0.6 0 0
v -0.3 0 0
v -0.2 0 0
v -0.0999999 0 0
v -0.7 0 -0.1
v -0.6 0 -0.1
v -0.3 0 -0.1
v -0.2 0 -0.1
v -0.6 0 -0.2
v -0.3 0 -0.2
v -0.5 0.5 0.4
v -0.4 0.5 0.4
v -0.5 0.5 0.3
v -0.4 0.5 0.3
v -0.7 0.5 0.2
v -0.6 0.5 0.2
v -0.3 0.5 0.2
v -0.2 0.5 0.2
v -0.7 0.5 0.1
v -0.6 0.5 0.1
v -0.3 0.5 0.1
v -0.2 0.5 0.1
v -0.5 0.5 0
v -0.4 0.5 0
v -0.5 0.5 -0.1
v -0.4 0.5 -0.1
v -0.5 0.7 0.5
v -0.4 0.7 0.5
v -0.9 0.7 0.4
v -0.5 0.7 0.4
v -0.4 0.7 0.4
v 1.19209e-07 0.7 0.4
v -1 0.7 0.3
v -0.9 0.7 0.3
v -0.6 0.7 0.3
v -0.5 0.7 0.3
v -0.4 0.7 0.3
v -0.3 0.7 0.3
v 1.19209e-07 0.7 0.3
v 0.1 0.7 0.3
v -0.7 0.7 0.2
v -0.6 0.7 0.2
v -0.3 0.7 0.2
v -0.2 0.7 0.2
v -0.7 0.7 0.1
v -0.6 0.7 0.1
v -0.3 0.7 0.1
v -0.2 0.7 0.1
v -1 0.7 0
v -0.9 0.7 0
v -0.6 0.7 0
v -0.5 0.7 0
v -0.4 0.7 0
v -0.3 0.7 0
v 1.19209e-07 0.7 0
v 0.1 0.7 0
v -0.9 0.7 -0.1
v -0.5 0.7 -0.1
v -0.4 0.7 -0.1
v 1.19209e-07 0.7 -0.1
v -0.5 0.7 -0.2
v -0.4 0.7 -0.2
v -0.6 0.1 0.5
v -0.3 0.1 0.5
v -0.7 0.1 0.4
v -0.6 0.1 0.4
v -0.3 0.1 0.4
v -0.2 0.1 0.4
v -0.8 0.1 0.3
v -0.7 0.1 0.3
v -0.6 0.1 0.3
v -0.3 0.1 0.3
v -0.2 0.1 0.3
v -0.0999999 0.1 0.3
v -0.8 0.1 0
v -0.7 0.1 0
v -0.6 0.1 0
v -0.3 0.1 0
v -0.2 0.1 0
v -0.0999999 0.1 0
v -0.7 0.1 -0.1
v -0.6 0.1 -0.1
v -0.3 0.1 -0.1
v -0.2 0.1 -0.1
v -0.6 0.1 -0.2
v -0.3 0.1 -0.2
v -0.6 0.2 0.4
v -0.3 0.2 0.4
v -0.7 0.2 0.3
v -0.6 0.2 0.3
v -0.3 0.2 0.3
v -0.2 0.2 0.3
v -0.7 0.2 0
v -0.6 0.2 0
v -0.3 0.2 0
v -0.2 0.2 0
v -0.6 0.2 -0.1
v -0.3 0.2 -0.1
v -0.9 0.8 0.4
v -0.6 0.8 0.4
v -0.3 0.8 0.4
v 1.19209e-07 0.8 0.4
v -1 0.8 0.3
v -0.9 0.8 0.3
v -0.7 0.8 0.3
v -0.6 0.8 0.3
v -0.3 0.8 0.3
v -0.2 0.8 0.3
v 1.19209e-07 0.8 0.3
v 0.1 0.8 0.3
v -0.8 0.8 0.2
v -0.7 0.8 0.2
v -0.2 0.8 0.2
v -0.0999999 0.8 0.2
v -0.8 0.8 0.1
v -0.7 0.8 0.1
v -0.2 0.8 0.1
v -0.0999999 0.8 0.1
v -1 0.8 0
v -0.9 0.8 0
v -0.7 0.8 0
v -0.6 0.8 0
v -0.3 0.8 0
v -0.2 0.8 0
v 1.19209e-07 0.8 0
v 0.1 0.8 0
v -0.9 0.8 -0.1
v -0.6 0.8 -0.1
v -0.3 0.8 -0.1
v 1.19209e-07 0.8 -0.1
v -0.5 2.6 0.5
v -0.4 2.6 0.5
v -0.6 2.6 0.4
v -0.5 2.6 0.4
v -0.4 2.6 0.4
v -0.3 2.6 0.4
v -0.7 2.6 0.3
v -0.6 2.6 0.3
v -0.5 2.6 0.3
v -0.4 2.6 0.3
v -0.3 2.6 0.3
v -0.2 2.6 0.3
v -0.8 2.6 0.2
v -0.7 2.6 0.2
v -0.6 2.6 0.2
v -0.5 2.6 0.2
v -0.4 2.6 0.2
v -0.3 2.6 0.2
v -0.2 2.6 0.2
v -0.0999999 2.6 0.2
v -0.8 2.6 0.1
v -0.7 2.6 0.1
v -0.6 2.6 0.1
v -0.5 2.6 0.1
v -0.4 2.6 0.1
v -0.3 2.6 0.1
v -0.2 2.6 0.1
v -0.0999999 2.6 0.1
v -0.7 2.6 0
v -0.6 2.6 0
v -0.5 2.6 0
v -0.4 2.6 0
v -0.3 2.6 0
v -0.2 2.6 0
v -0.6 2.6 -0.1
v -0.5 2.6 -0.1
v -0.4 2.6 -0.1
v -0.3 2.6 -0.1
v -0.5 2.6 -0.2
v -0.4 2.6 -0.2
v -0.5 2.9 0.3
v -0.4 2.9 0.3
v -0.6 2.9 0.2
v -0.5 2.9 0.2
v -0.4 2.9 0.2
v -0.3 2.9 0.2
v -0.6 2.9 0.1
v -0.5 2.9 0.1
v -0.4 2.9 0.1
v -0.3 2.9 0.1
v -0.5 2.9 0
v -0.4 2.9 0
v -0.5 4.3 0.2
v -0.4 4.3 0.2
v -0.5 4.3 0.1
v -0.4 4.3 0.1

# faces
f 3/2/1 2/2/1 1/2/1
f 4/2/1 2/2/1 3/2/1
f 9/2/1 6/2/1 5/2/1
f 10/2/1 6/2/1 9/2/1
f 11/2/1 8/2/1 7/2/1
f 12/2/1 8/2/1 11/2/1
f 15/4/1 14/4/1 13/4/1
f 16/4/1 14/4/1 15/4/1
f 19/2/1 18/2/1 17/2/1
f 20/2/1 18/2/1 19/2/1
f 25/4/1 22/4/1 21/4/1
f 26/4/1 22/4/1 25/4/1
f 27/4/1 24/4/1 23/4/1
f 28/4/1 24/4/1 27/4/1
f 29/4/1 27/4/1 26/4/1
f 30/4/1 27/4/1 29/4/1
f 33/4/1 32/4/1 31/4/1
f 34/4/1 32/4/1 33/4/1
f 39/2/1 36/2/1 35/2/1
f 40/2/1 36/2/1 39/2/1
f 41/2/1 38/2/1 37/2/1
f 42/2/1 38/2/1 41/2/1
f 47/4/1 44/4/1 43/4/1
f 48/4/1 44/4/1 47/4/1
f 51/4/1 46/4/1 45/4/1
f 52/4/1 46/4/1 51/4/1
f 53/4/1 49/4/1 48/4/1
f 54/4/1 49/4/1 53/4/1
f 55/4/1 51/4/1 50/4/1
f 56/4/1 51/4/1 55/4/1
f 57/4/1 55/4/1 54/4/1
f 58/4/1 55/4/1 57/4/1
f 59/4/1 57/4/1 54/4/1
f 60/4/1 57/4/1 59/4/1
f 61/4/1 55/4/1 58/4/1
f 62/4/1 55/4/1 61/4/1
f 67/2/1 64/2/1 63/2/1
f 68/2/1 64/2/1 67/2/1
f 71/2/1 66/2/1 65/2/1
f 72/2/1 66/2/1 71/2/1
f 73/3/1 70/3/1 69/3/1
f 74/3/1 70/3/1 73/3/1
f 80/4/1 76/4/1 75/4/1
f 81/4/1 76/4/1 80/4/1
f 82/4/1 78/4/1 77/4/1
f 83/4/1 78/4/1 82/4/1
f 85/2/1 80/2/1 79/2/1
f 86/2/1 80/2/1 85/2/1
f 91/2/1 84/2/1 83/2/1
f 92/2/1 84/2/1 91/2/1
f 93/3/1 88/3/1 87/3/1
f 94/3/1 88/3/1 93/3/1
f 95/3/1 90/3/1 89/3/1
f 96/3/1 90/3/1 95/3/1
f 97/3/1 95/3/1 94/3/1
f 98/3/1 95/3/1 97/3/1
f 99/4/1 98/4/1 97/4/1
f 100/4/1 98/4/1 99/4/1
f 101/4/2 102/4/2 106/4/2
f 106/4/2 102/4/2 107/4/2
f 103/4/2 104/4/2 108/4/2
f 108/4/2 104/4/2 109/4/2
f 105/2/2 106/2/2 111/2/2
f 111/2/2 106/2/2 112/2/2
f 109/2/2 110/2/2 117/2/2
f 117/2/2 110/2/2 118/2/2
f 113/3/2 114/3/2 119/3/2
f 119/3/2 114/3/2 120/3/2
f 115/3/2 116/3/2 121/3/2
f 121/3/2 116/3/2 122/3/2
f 120/3/2 121/3/2 123/3/2
f 123/3/2 121/3/2 124/3/2
f 123/4/2 124/4/2 125/4/2
f 125/4/2 124/4/2 126/4/2
f 127/4/2 128/4/2 131/4/2
f 131/4/2 128/4/2 132/4/2
f 129/4/2 130/4/2 135/4/2
f 135/4/2 130/4/2 136/4/2
f 132/4/2 133/4/2 137/4/2
f 137/4/2 133/4/2 138/4/2
f 134/4/2 135/4/2 139/4/2
f 139/4/2 135/4/2 140/4/2
f 138/4/2 139/4/2 141/4/2
f 141/4/2 139/4/2 142/4/2
f 138/4/2 141/4/2 143/4/2
f 143/4/2 141/4/2 144/4/2
f 142/4/2 139/4/2 145/4/2
f 145/4/2 139/4/2 146/4/2
f 147/2/2 148/2/2 151/2/2
f 151/2/2 148/2/2 152/2/2
f 149/2/2 150/2/2 155/2/2
f 155/2/2 150/2/2 156/2/2
f 153/3/2 154/3/2 157/3/2
f 157/3/2 154/3/2 158/3/2
f 159/4/2 160/4/2 163/4/2
f 163/4/2 160/4/2 164/4/2
f 161/4/2 162/4/2 165/4/2
f 165/4/2 162/4/2 166/4/2
f 164/4/2 165/4/2 167/4/2
f 167/4/2 165/4/2 168/4/2
f 169/4/2 170/4/2 171/4/2
f 171/4/2 170/4/2 172/4/2
f 173/2/2 174/2/2 177/2/2
f 177/2/2 174/2/2 178/2/2
f 175/2/2 176/2/2 179/2/2
f 179/2/2 176/2/2 180/2/2
f 181/4/2 182/4/2 183/4/2
f 183/4/2 182/4/2 184/4/2
f 185/2/2 186/2/2 187/2/2
f 187/2/2 186/2/2 188/2/2
f 189/2/2 190/2/2 193/2/2
f 193/2/2 190/2/2 194/2/2
f 191/2/2 192/2/2 195/2/2
f 195/2/2 192/2/2 196/2/2
f 197/2/2 198/2/2 199/2/2
f 199/2/2 198/2/2 200/2/2
f 205/2/3 204/2/3 203/2/3
f 206/2/3 204/2/3 205/2/3
f 207/4/3 202/4/3 201/4/3
f 208/4/3 202/4/3 207/4/3
f 213/4/3 212/4/3 211/4/3
f 214/4/3 212/4/3 213/4/3
f 216/2/3 210/2/3 209/2/3
f 219/2/3 217/2/3 216/2/3
f 219/2/3 216/2/3 209/2/3
f 220/2/3 217/2/3 219/2/3
f 221/4/3 219/4/3 218/4/3
f 222/4/3 219/4/3 221/4/3
f 225/4/3 215/4/3 214/4/3
f 226/4/3 215/4/3 225/4/3
f 227/2/3 223/2/3 222/2/3
f 228/2/3 223/2/3 227/2/3
f 229/4/3 225/4/3 224/4/3
f 230/4/3 225/4/3 229/4/3
f 231/2/3 227/2/3 222/2/3
f 232/2/3 227/2/3 231/2/3
f 235/2/3 234/2/3 233/2/3
f 236/2/3 234/2/3 235/2/3
f 239/4/3 238/4/3 237/4/3
f 240/4/3 238/4/3 239/4/3
f 244/4/3 241/4/3 240/4/3
f 245/4/3 241/4/3 244/4/3
f 247/2/3 243/2/3 242/2/3
f 248/2/3 243/2/3 247/2/3
f 249/4/3 246/4/3 245/4/3
f 250/4/3 246/4/3 249/4/3
f 253/4/3 249/4/3 245/4/3
f 255/3/3 252/3/3 251/3/3
f 256/3/3 252/3/3 255/3/3
f 258/4/3 254/4/3 253/4/3
f 258/4/3 253/4/3 245/4/3
f 259/4/3 254/4/3 258/4/3
f 263/4/3 258/4/3 257/4/3
f 264/4/3 258/4/3 263/4/3
f 265/2/3 261/2/3 260/2/3
f 266/2/3 261/2/3 265/2/3
f 267/4/3 263/4/3 262/4/3
f 268/4/3 263/4/3 267/4/3
f 271/2/3 270/2/3 269/2/3
f 272/2/3 270/2/3 271/2/3
f 277/2/3 274/2/3 273/2/3
f 278/2/3 274/2/3 277/2/3
f 279/4/3 276/4/3 275/4/3
f 280/4/3 276/4/3 279/4/3
f 283/3/3 282/3/3 281/3/3
f 284/3/3 282/3/3 283/3/3
f 288/3/3 285/3/3 284/3/3
f 289/4/3 286/4/3 285/4/3
f 289/3/3 285/3/3 288/3/3
f 290/4/3 286/4/3 289/4/3
f 293/3/3 288/3/3 287/3/3
f 294/3/3 288/3/3 293/3/3
f 295/4/3 292/4/3 291/4/3
f 296/4/3 292/4/3 295/4/3
f 299/2/3 298/2/3 297/2/3
f 300/2/3 298/2/3 299/2/3
f 301/2/4 302/2/4 305/2/4
f 305/2/4 302/2/4 306/2/4
f 303/4/4 304/4/4 307/4/4
f 307/4/4 304/4/4 308/4/4
f 309/3/4 310/3/4 311/3/4
f 311/3/4 310/3/4 312/3/4
f 312/3/4 313/3/4 316/3/4
f 313/4/4 314/4/4 317/4/4
f 316/3/4 313/3/4 317/3/4
f 317/4/4 314/4/4 318/4/4
f 315/3/4 316/3/4 321/3/4
f 321/3/4 316/3/4 322/3/4
f 319/4/4 320/4/4 323/4/4
f 323/4/4 320/4/4 324/4/4
f 325/2/4 326/2/4 327/2/4
f 327/2/4 326/2/4 328/2/4
f 329/2/4 330/2/4 331/2/4
f 331/2/4 330/2/4 332/2/4
f 333/4/4 334/4/4 335/4/4
f 335/4/4 334/4/4 336/4/4
f 336/4/4 337/4/4 340/4/4
f 340/4/4 337/4/4 341/4/4
f 338/2/4 339/2/4 343/2/4
f 343/2/4 339/2/4 344/2/4
f 341/4/4 342/4/4 345/4/4
f 345/4/4 342/4/4 346/4/4
f 341/4/4 345/4/4 349/4/4
f 347/3/4 348/3/4 351/3/4
f 351/3/4 348/3/4 352/3/4
f 349/4/4 350/4/4 354/4/4
f 341/4/4 349/4/4 354/4/4
f 354/4/4 350/4/4 355/4/4
f 353/4/4 354/4/4 359/4/4
f 359/4/4 354/4/4 360/4/4
f 356/2/4 357/2/4 361/2/4
f 361/2/4 357/2/4 362/2/4
f 358/4/4 359/4/4 363/4/4
f 363/4/4 359/4/4 364/4/4
f 365/2/4 366/2/4 367/2/4
f 367/2/4 366/2/4 368/2/4
f 371/4/4 372/4/4 373/4/4
f 373/4/4 372/4/4 374/4/4
f 369/2/4 370/2/4 376/2/4
f 376/2/4 377/2/4 379/2/4
f 369/2/4 376/2/4 379/2/4
f 379/2/4 377/2/4 380/2/4
f 378/4/4 379/4/4 381/4/4
f 381/4/4 379/4/4 382/4/4
f 374/4/4 375/4/4 385/4/4
f 385/4/4 375/4/4 386/4/4
f 382/2/4 383/2/4 387/2/4
f 387/2/4 383/2/4 388/2/4
f 384/4/4 385/4/4 389/4/4
f 389/4/4 385/4/4 390/4/4
f 382/2/4 387/2/4 391/2/4
f 391/2/4 387/2/4 392/2/4
f 395/2/4 396/2/4 397/2/4
f 397/2/4 396/2/4 398/2/4
f 393/4/4 394/4/4 399/4/4
f 399/4/4 394/4/4 400/4/4
f 404/4/5 402/4/5 401/4/5
f 405/4/5 402/4/5 404/4/5
f 408/4/5 404/4/5 403/4/5
f 409/1/5 405/1/5 404/1/5
f 409/4/5 404/4/5 408/4/5
f 410/4/5 406/4/5 405/4/5
f 410/1/5 405/1/5 409/1/5
f 411/4/5 406/4/5 410/4/5
f 413/4/5 408/4/5 407/4/5
f 414/1/5 409/1/5 408/1/5
f 414/4/5 408/4/5 413/4/5
f 414/1/5 410/1/5 409/1/5
f 414/1/5 411/1/5 410/1/5
f 415/1/5 411/1/5 414/1/5
f 416/1/5 411/1/5 415/1/5
f 417/4/5 412/4/5 411/4/5
f 417/1/5 411/1/5 416/1/5
f 418/4/5 412/4/5 417/4/5
f 419/4/5 415/4/5 414/4/5
f 420/1/5 416/1/5 415/1/5
f 420/4/5 415/4/5 419/4/5
f 421/4/5 417/4/5 416/4/5
f 421/1/5 416/1/5 420/1/5
f 422/4/5 417/4/5 421/4/5
f 423/4/5 421/4/5 420/4/5
f 424/4/5 421/4/5 423/4/5
f 427/4/5 426/4/5 425/4/5
f 428/4/5 426/4/5 427/4/5
f 433/4/5 430/4/5 429/4/5
f 434/4/5 430/4/5 433/4/5
f 435/4/5 432/4/5 431/4/5
f 436/4/5 432/4/5 435/4/5
f 439/4/5 438/4/5 437/4/5
f 440/4/5 438/4/5 439/4/5
f 444/2/5 442/2/5 441/2/5
f 445/2/5 442/2/5 444/2/5
f 448/2/5 444/2/5 443/2/5
f 449/2/5 444/2/5 448/2/5
f 450/2/5 444/2/5 449/2/5
f 451/2/5 446/2/5 445/2/5
f 452/2/5 446/2/5 451/2/5
f 453/2/5 446/2/5 452/2/5
f 455/2/5 448/2/5 447/2/5
f 455/2/5 449/2/5 448/2/5
f 456/2/5 449/2/5 455/2/5
f 457/2/5 454/2/5 453/2/5
f 457/2/5 453/2/5 452/2/5
f 458/2/5 454/2/5 457/2/5
f 459/2/5 455/2/5 447/2/5
f 462/2/5 454/2/5 458/2/5
f 463/2/5 460/2/5 459/2/5
f 463/2/5 459/2/5 447/2/5
f 464/2/5 460/2/5 463/2/5
f 465/2/5 460/2/5 464/2/5
f 468/2/5 462/2/5 461/2/5
f 469/2/5 454/2/5 462/2/5
f 469/2/5 462/2/5 468/2/5
f 470/2/5 454/2/5 469/2/5
f 471/2/5 466/2/5 465/2/5
f 471/2/5 465/2/5 464/2/5
f 472/2/5 466/2/5 471/2/5
f 473/2/5 468/2/5 467/2/5
f 473/2/5 469/2/5 468/2/5
f 474/2/5 469/2/5 473/2/5
f 475/2/5 473/2/5 472/2/5
f 476/2/5 473/2/5 475/2/5
f 477/4/6 478/4/6 480/4/6
f 480/4/6 478/4/6 481/4/6
f 479/4/6 480/4/6 484/4/6
f 484/4/6 480/4/6 485/4/6
f 481/4/6 482/4/6 486/4/6
f 486/4/6 482/4/6 487/4/6
f 483/4/6 484/4/6 489/4/6
f 489/4/6 484/4/6 490/4/6
f 487/4/6 488/4/6 493/4/6
f 493/4/6 488/4/6 494/4/6
f 490/4/6 491/4/6 495/4/6
f 495/4/6 491/4/6 496/4/6
f 492/4/6 493/4/6 497/4/6
f 497/4/6 493/4/6 498/4/6
f 496/4/6 497/4/6 499/4/6
f 499/4/6 497/4/6 500/4/6
f 501/4/6 502/4/6 504/4/6
f 504/4/6 502/4/6 505/4/6
f 503/4/6 504/4/6 507/4/6
f 507/4/6 504/4/6 508/4/6
f 505/4/6 506/4/6 509/4/6
f 509/4/6 506/4/6 510/4/6
f 508/4/6 509/4/6 511/4/6
f 511/4/6 509/4/6 512/4/6
f 513/2/6 514/2/6 518/2/6
f 518/2/6 514/2/6 519/2/6
f 519/2/6 514/2/6 520/2/6
f 515/2/6 516/2/6 521/2/6
f 521/2/6 516/2/6 522/2/6
f 522/2/6 516/2/6 523/2/6
f 517/2/6 518/2/6 525/2/6
f 518/2/6 519/2/6 525/2/6
f 525/2/6 519/2/6 526/2/6
f 523/2/6 524/2/6 527/2/6
f 522/2/6 523/2/6 527/2/6
f 527/2/6 524/2/6 528/2/6
f 517/2/6 525/2/6 529/2/6
f 528/2/6 524/2/6 532/2/6
f 529/2/6 530/2/6 533/2/6
f 517/2/6 529/2/6 533/2/6
f 533/2/6 530/2/6 534/2/6
f 534/2/6 530/2/6 535/2/6
f 531/2/6 532/2/6 538/2/6
f 532/2/6 524/2/6 539/2/6
f 538/2/6 532/2/6 539/2/6
f 539/2/6 524/2/6 540/2/6
f 535/2/6 536/2/6 541/2/6
f 534/2/6 535/2/6 541/2/6
f 541/2/6 536/2/6 542/2/6
f 537/2/6 538/2/6 543/2/6
f 538/2/6 539/2/6 543/2/6
f 543/2/6 539/2/6 544/2/6
f 545/2/6 546/2/6 548/2/6
f 548/2/6 546/2/6 549/2/6
f 547/2/6 548/2/6 552/2/6
f 549/2/6 550/2/6 552/2/6
f 548/2/6 549/2/6 552/2/6
f 552/2/6 550/2/6 553/2/6
f 553/2/6 550/2/6 554/2/6
f 554/2/6 550/2/6 555/2/6
f 551/2/6 552/2/6 558/2/6
f 552/2/6 553/2/6 558/2/6
f 558/2/6 553/2/6 559/2/6
f 559/2/6 553/2/6 560/2/6
f 554/2/6 555/2/6 561/2/6
f 555/2/6 556/2/6 561/2/6
f 561/2/6 556/2/6 562/2/6
f 562/2/6 556/2/6 563/2/6
f 558/2/6 559/2/6 565/2/6
f 557/2/6 558/2/6 565/2/6
f 565/2/6 559/2/6 566/2/6
f 566/2/6 559/2/6 567/2/6
f 563/2/6 564/2/6 570/2/6
f 562/2/6 563/2/6 570/2/6
f 570/2/6 564/2/6 571/2/6
f 571/2/6 564/2/6 572/2/6
f 567/2/6 568/2/6 573/2/6
f 566/2/6 567/2/6 573/2/6
f 573/2/6 568/2/6 574/2/6
f 574/2/6 568/2/6 575/2/6
f 570/2/6 571/2/6 576/2/6
f 569/2/6 570/2/6 576/2/6
f 576/2/6 571/2/6 577/2/6
f 577/2/6 571/2/6 578/2/6
f 574/2/6 575/2/6 579/2/6
f 576/2/6 577/2/6 579/2/6
f 575/2/6 576/2/6 579/2/6
f 579/2/6 577/2/6 580/2/6
f 580/2/6 577/2/6 581/2/6
f 581/2/6 577/2/6 582/2/6
f 580/2/6 581/2/6 583/2/6
f 583/2/6 581/2/6 584/2/6
f 585/3/6 586/3/6 588/3/6
f 588/3/6 586/3/6 589/3/6
f 587/3/6 588/3/6 591/3/6
f 591/3/6 588/3/6 592/3/6
f 589/3/6 590/3/6 593/3/6
f 593/3/6 590/3/6 594/3/6
f 592/3/6 593/3/6 595/3/6
f 595/3/6 593/3/6 596/3/6
f 597/4/6 598/4/6 599/4/6
f 599/4/6 598/4/6 600/4/6
