# MagicaVoxel @ Ephtracy

# group
o 

# material
mtllib green book.mtl
usemtl palette

# normals
vn -1 0 0
vn 1 0 0
vn 0 0 1
vn 0 0 -1
vn 0 -1 0
vn 0 1 0

# texcoords
vt 0.126953 0.5
vt 0.130859 0.5
vt 0.134766 0.5
vt 0.138672 0.5
vt 0.142578 0.5

# verts
v -1.2 0.1 1.8
v -1.2 0.1 -1.2
v -1.2 0.3 1.8
v -1.2 0.3 -1.2
v -1.1 0 1.8
v -1.1 0 -1.2
v -1.1 0.1 1.8
v -1.1 0.1 -1.2
v -1.1 0.3 1.8
v -1.1 0.3 -1.2
v -1.1 0.4 1.8
v -1.1 0.4 -1.2
v -1 0.1 1.8
v -1 0.1 1.7
v -1 0.1 -1.1
v -1 0.1 -1.2
v -1 0.2 1.7
v -1 0.2 -1.1
v -1 0.3 1.8
v -1 0.3 1.7
v -1 0.3 -1.1
v -1 0.3 -1.2
v 1 0.1 1.7
v 1 0.1 -1.1
v 1 0.2 1.7
v 1 0.2 -1.1
v 1 0.3 1.7
v 1 0.3 -1.1
v 1.1 0 1.8
v 1.1 0 -1.2
v 1.1 0.1 1.8
v 1.1 0.1 -1.2
v 1.1 0.3 1.8
v 1.1 0.3 -1.2
v 1.1 0.4 1.8
v 1.1 0.4 -1.2
v -1.2 0.1 1.8
v -1.2 0.3 1.8
v -1.1 0 1.8
v -1.1 0.1 1.8
v -1.1 0.3 1.8
v -1.1 0.4 1.8
v -1 0.1 1.8
v -1 0.3 1.8
v 1.1 0 1.8
v 1.1 0.1 1.8
v 1.1 0.3 1.8
v 1.1 0.4 1.8
v -1 0.1 1.7
v -1 0.2 1.7
v -1 0.3 1.7
v 1 0.1 1.7
v 1 0.2 1.7
v 1 0.3 1.7
v -1 0.1 -1.1
v -1 0.2 -1.1
v -1 0.3 -1.1
v 1 0.1 -1.1
v 1 0.2 -1.1
v 1 0.3 -1.1
v -1.2 0.1 -1.2
v -1.2 0.3 -1.2
v -1.1 0 -1.2
v -1.1 0.1 -1.2
v -1.1 0.3 -1.2
v -1.1 0.4 -1.2
v -1 0.1 -1.2
v -1 0.3 -1.2
v 1.1 0 -1.2
v 1.1 0.1 -1.2
v 1.1 0.3 -1.2
v 1.1 0.4 -1.2
v -1.1 0 1.8
v 1.1 0 1.8
v -1.1 0 -1.2
v 1.1 0 -1.2
v -1.2 0.1 1.8
v -1.1 0.1 1.8
v -1.2 0.1 -1.2
v -1.1 0.1 -1.2
v -1 0.3 1.8
v 1.1 0.3 1.8
v -1 0.3 1.7
v 1 0.3 1.7
v -1 0.3 -1.1
v 1 0.3 -1.1
v -1 0.3 -1.2
v 1.1 0.3 -1.2
v -1 0.1 1.8
v 1.1 0.1 1.8
v -1 0.1 1.7
v 1 0.1 1.7
v -1 0.1 -1.1
v 1 0.1 -1.1
v -1 0.1 -1.2
v 1.1 0.1 -1.2
v -1.2 0.3 1.8
v -1.1 0.3 1.8
v -1.2 0.3 -1.2
v -1.1 0.3 -1.2
v -1.1 0.4 1.8
v 1.1 0.4 1.8
v -0.4 0.4 0.4
v -0.2 0.4 0.4
v 1.19209e-07 0.4 0.4
v 0.5 0.4 0.4
v -0.4 0.4 0.3
v -0.3 0.4 0.3
v -0.0999999 0.4 0.3
v 1.19209e-07 0.4 0.3
v -0.4 0.4 0.2
v -0.3 0.4 0.2
v -0.2 0.4 0.2
v -0.0999999 0.4 0.2
v 0.1 0.4 0.2
v 0.2 0.4 0.2
v -0.3 0.4 0.0999999
v 1.19209e-07 0.4 0.0999999
v 0.4 0.4 0.0999999
v 0.5 0.4 0.0999999
v -0.4 0.4 0
v -0.3 0.4 0
v 1.19209e-07 0.4 0
v 0.1 0.4 0
v 0.2 0.4 0
v 0.3 0.4 0
v 0.4 0.4 0
v 0.5 0.4 0
v -0.4 0.4 -0.1
v -0.3 0.4 -0.1
v 1.19209e-07 0.4 -0.1
v 0.1 0.4 -0.1
v 0.2 0.4 -0.1
v 0.3 0.4 -0.1
v -0.4 0.4 -0.2
v 0.5 0.4 -0.2
v -0.9 0.4 -0.3
v -0.7 0.4 -0.3
v -0.6 0.4 -0.3
v -0.3 0.4 -0.3
v -0.2 0.4 -0.3
v 1.19209e-07 0.4 -0.3
v -0.8 0.4 -0.4
v -0.7 0.4 -0.4
v -0.5 0.4 -0.4
v -0.3 0.4 -0.4
v -0.2 0.4 -0.4
v 1.19209e-07 0.4 -0.4
v -0.8 0.4 -0.5
v -0.6 0.4 -0.5
v -0.5 0.4 -0.5
v -0.3 0.4 -0.5
v -0.2 0.4 -0.5
v -0.0999999 0.4 -0.5
v -0.6 0.4 -0.6
v -0.5 0.4 -0.6
v -0.0999999 0.4 -0.6
v 1.19209e-07 0.4 -0.6
v -0.8 0.4 -0.7
v -0.6 0.4 -0.7
v -0.5 0.4 -0.7
v -0.3 0.4 -0.7
v -0.2 0.4 -0.7
v -0.0999999 0.4 -0.7
v -0.9 0.4 -0.8
v -0.8 0.4 -0.8
v -0.6 0.4 -0.8
v -0.5 0.4 -0.8
v -0.3 0.4 -0.8
v -0.2 0.4 -0.8
v -0.0999999 0.4 -0.8
v -0.9 0.4 -0.9
v -0.8 0.4 -0.9
v -0.6 0.4 -0.9
v -0.5 0.4 -0.9
v -0.3 0.4 -0.9
v -0.2 0.4 -0.9
v 1.19209e-07 0.4 -0.9
v -1.1 0.4 -1.2
v 1.1 0.4 -1.2

# faces
f 3/1/1 2/1/1 1/1/1
f 4/1/1 2/1/1 3/1/1
f 7/1/1 6/1/1 5/1/1
f 8/1/1 6/1/1 7/1/1
f 11/1/1 10/1/1 9/1/1
f 12/1/1 10/1/1 11/1/1
f 13/1/2 14/1/2 17/1/2
f 15/1/2 16/1/2 18/1/2
f 13/1/2 17/1/2 19/1/2
f 19/1/2 17/1/2 20/1/2
f 18/1/2 16/1/2 21/1/2
f 21/1/2 16/1/2 22/1/2
f 23/3/2 24/3/2 25/3/2
f 25/3/2 24/3/2 26/3/2
f 25/2/2 26/2/2 27/2/2
f 27/2/2 26/2/2 28/2/2
f 29/1/2 30/1/2 31/1/2
f 31/1/2 30/1/2 32/1/2
f 33/1/2 34/1/2 35/1/2
f 35/1/2 34/1/2 36/1/2
f 40/1/3 38/1/3 37/1/3
f 41/1/3 38/1/3 40/1/3
f 43/1/3 40/1/3 39/1/3
f 43/1/3 42/1/3 41/1/3
f 43/1/3 41/1/3 40/1/3
f 44/1/3 42/1/3 43/1/3
f 45/1/3 43/1/3 39/1/3
f 46/1/3 43/1/3 45/1/3
f 47/1/3 42/1/3 44/1/3
f 48/1/3 42/1/3 47/1/3
f 52/3/3 50/3/3 49/3/3
f 53/2/3 51/2/3 50/2/3
f 53/3/3 50/3/3 52/3/3
f 54/2/3 51/2/3 53/2/3
f 55/3/4 56/3/4 58/3/4
f 56/2/4 57/2/4 59/2/4
f 58/3/4 56/3/4 59/3/4
f 59/2/4 57/2/4 60/2/4
f 61/1/4 62/1/4 64/1/4
f 64/1/4 62/1/4 65/1/4
f 63/1/4 64/1/4 67/1/4
f 65/1/4 66/1/4 67/1/4
f 64/1/4 65/1/4 67/1/4
f 67/1/4 66/1/4 68/1/4
f 63/1/4 67/1/4 69/1/4
f 69/1/4 67/1/4 70/1/4
f 68/1/4 66/1/4 71/1/4
f 71/1/4 66/1/4 72/1/4
f 75/1/5 74/1/5 73/1/5
f 76/1/5 74/1/5 75/1/5
f 79/1/5 78/1/5 77/1/5
f 80/1/5 78/1/5 79/1/5
f 83/1/5 82/1/5 81/1/5
f 84/1/5 82/1/5 83/1/5
f 86/1/5 82/1/5 84/1/5
f 87/1/5 86/1/5 85/1/5
f 88/1/5 82/1/5 86/1/5
f 88/1/5 86/1/5 87/1/5
f 89/1/6 90/1/6 91/1/6
f 91/1/6 90/1/6 92/1/6
f 92/1/6 90/1/6 94/1/6
f 93/1/6 94/1/6 95/1/6
f 94/1/6 90/1/6 96/1/6
f 95/1/6 94/1/6 96/1/6
f 97/1/6 98/1/6 99/1/6
f 99/1/6 98/1/6 100/1/6
f 101/1/6 102/1/6 103/1/6
f 103/1/6 102/1/6 104/1/6
f 104/1/6 102/1/6 105/1/6
f 105/1/6 102/1/6 106/1/6
f 101/1/6 103/1/6 107/1/6
f 103/4/6 104/4/6 107/4/6
f 107/4/6 104/4/6 108/4/6
f 104/5/6 105/5/6 109/5/6
f 105/4/6 106/4/6 110/4/6
f 109/5/6 105/5/6 110/5/6
f 101/1/6 107/1/6 111/1/6
f 107/5/6 108/5/6 111/5/6
f 108/4/6 104/4/6 112/4/6
f 111/5/6 108/5/6 112/5/6
f 104/5/6 109/5/6 113/5/6
f 112/4/6 104/4/6 113/4/6
f 109/4/6 110/4/6 114/4/6
f 113/5/6 109/5/6 114/5/6
f 110/4/6 106/4/6 115/4/6
f 114/4/6 110/4/6 115/4/6
f 115/4/6 106/4/6 116/4/6
f 111/4/6 112/4/6 117/4/6
f 113/4/6 114/4/6 117/4/6
f 112/4/6 113/4/6 117/4/6
f 114/4/6 115/4/6 117/4/6
f 117/4/6 115/4/6 118/4/6
f 116/4/6 106/4/6 119/4/6
f 106/1/6 102/1/6 120/1/6
f 119/4/6 106/4/6 120/4/6
f 101/1/6 111/1/6 121/1/6
f 111/4/6 117/4/6 121/4/6
f 117/5/6 118/5/6 122/5/6
f 121/4/6 117/4/6 122/4/6
f 118/4/6 115/4/6 123/4/6
f 122/5/6 118/5/6 123/5/6
f 115/5/6 116/5/6 124/5/6
f 123/4/6 115/4/6 124/4/6
f 116/4/6 119/4/6 125/4/6
f 124/5/6 116/5/6 125/5/6
f 125/4/6 119/4/6 126/4/6
f 119/5/6 120/5/6 127/5/6
f 126/4/6 119/4/6 127/4/6
f 120/1/6 102/1/6 128/1/6
f 127/5/6 120/5/6 128/5/6
f 121/5/6 122/5/6 129/5/6
f 101/1/6 121/1/6 129/1/6
f 122/4/6 123/4/6 130/4/6
f 129/5/6 122/5/6 130/5/6
f 123/5/6 124/5/6 131/5/6
f 130/4/6 123/4/6 131/4/6
f 124/4/6 125/4/6 132/4/6
f 131/5/6 124/5/6 132/5/6
f 125/5/6 126/5/6 133/5/6
f 132/4/6 125/4/6 133/4/6
f 126/4/6 127/4/6 134/4/6
f 133/5/6 126/5/6 134/5/6
f 127/4/6 128/4/6 134/4/6
f 129/4/6 130/4/6 135/4/6
f 132/4/6 133/4/6 135/4/6
f 133/4/6 134/4/6 135/4/6
f 130/4/6 131/4/6 135/4/6
f 131/4/6 132/4/6 135/4/6
f 101/1/6 129/1/6 135/1/6
f 134/4/6 128/4/6 136/4/6
f 135/4/6 134/4/6 136/4/6
f 128/1/6 102/1/6 136/1/6
f 101/1/6 135/1/6 137/1/6
f 135/1/6 136/1/6 137/1/6
f 137/1/6 136/1/6 138/1/6
f 138/1/6 136/1/6 139/1/6
f 139/1/6 136/1/6 140/1/6
f 140/1/6 136/1/6 141/1/6
f 141/1/6 136/1/6 142/1/6
f 137/4/6 138/4/6 143/4/6
f 138/5/6 139/5/6 144/5/6
f 143/4/6 138/4/6 144/4/6
f 139/4/6 140/4/6 145/4/6
f 140/5/6 141/5/6 146/5/6
f 145/4/6 140/4/6 146/4/6
f 141/4/6 142/4/6 147/4/6
f 146/5/6 141/5/6 147/5/6
f 142/1/6 136/1/6 148/1/6
f 147/4/6 142/4/6 148/4/6
f 137/4/6 143/4/6 149/4/6
f 143/5/6 144/5/6 149/5/6
f 144/5/6 139/5/6 150/5/6
f 149/5/6 144/5/6 150/5/6
f 139/4/6 145/4/6 150/4/6
f 145/5/6 146/5/6 151/5/6
f 150/4/6 145/4/6 151/4/6
f 146/4/6 147/4/6 152/4/6
f 151/5/6 146/5/6 152/5/6
f 147/5/6 148/5/6 153/5/6
f 152/4/6 147/4/6 153/4/6
f 153/5/6 148/5/6 154/5/6
f 150/4/6 151/4/6 155/4/6
f 151/4/6 152/4/6 155/4/6
f 153/4/6 154/4/6 155/4/6
f 152/4/6 153/4/6 155/4/6
f 149/4/6 150/4/6 155/4/6
f 155/4/6 154/4/6 156/4/6
f 154/5/6 148/5/6 157/5/6
f 156/4/6 154/4/6 157/4/6
f 148/1/6 136/1/6 158/1/6
f 157/5/6 148/5/6 158/5/6
f 137/4/6 149/4/6 159/4/6
f 149/4/6 155/4/6 159/4/6
f 155/5/6 156/5/6 160/5/6
f 159/4/6 155/4/6 160/4/6
f 156/4/6 157/4/6 161/4/6
f 160/5/6 156/5/6 161/5/6
f 157/4/6 158/4/6 161/4/6
f 161/4/6 158/4/6 162/4/6
f 162/4/6 158/4/6 163/4/6
f 163/4/6 158/4/6 164/4/6
f 101/1/6 137/1/6 165/1/6
f 137/4/6 159/4/6 165/4/6
f 159/5/6 160/5/6 166/5/6
f 165/4/6 159/4/6 166/4/6
f 160/4/6 161/4/6 167/4/6
f 166/5/6 160/5/6 167/5/6
f 161/5/6 162/5/6 168/5/6
f 167/4/6 161/4/6 168/4/6
f 162/4/6 163/4/6 169/4/6
f 168/5/6 162/5/6 169/5/6
f 163/5/6 164/5/6 170/5/6
f 169/4/6 163/4/6 170/4/6
f 164/4/6 158/4/6 171/4/6
f 170/5/6 164/5/6 171/5/6
f 101/1/6 165/1/6 172/1/6
f 165/5/6 166/5/6 172/5/6
f 166/4/6 167/4/6 173/4/6
f 172/5/6 166/5/6 173/5/6
f 167/5/6 168/5/6 174/5/6
f 173/4/6 167/4/6 174/4/6
f 168/4/6 169/4/6 175/4/6
f 174/5/6 168/5/6 175/5/6
f 169/5/6 170/5/6 176/5/6
f 175/4/6 169/4/6 176/4/6
f 170/4/6 171/4/6 177/4/6
f 176/5/6 170/5/6 177/5/6
f 171/4/6 158/4/6 178/4/6
f 177/4/6 171/4/6 178/4/6
f 158/1/6 136/1/6 178/1/6
f 174/1/6 175/1/6 179/1/6
f 173/1/6 174/1/6 179/1/6
f 177/1/6 178/1/6 179/1/6
f 101/1/6 172/1/6 179/1/6
f 175/1/6 176/1/6 179/1/6
f 172/1/6 173/1/6 179/1/6
f 176/1/6 177/1/6 179/1/6
f 136/1/6 102/1/6 180/1/6
f 179/1/6 178/1/6 180/1/6
f 178/1/6 136/1/6 180/1/6
