# MagicaVoxel @ Ephtracy

# group
o 

# material
mtllib dining table.mtl
usemtl palette

# normals
vn -1 0 0
vn 1 0 0
vn 0 0 1
vn 0 0 -1
vn 0 -1 0
vn 0 1 0

# texcoords
vt 0.689453 0.5
vt 0.693359 0.5
vt 0.697266 0.5

# verts
v -4.7 3.6 1.7
v -4.7 3.6 -2.6
v -4.7 3.9 1.7
v -4.7 3.9 -2.6
v -4.2 0.1 1.3
v -4.2 0.1 1
v -4.2 0.1 -1.9
v -4.2 0.1 -2.2
v -4.2 0.3 1.3
v -4.2 0.3 1
v -4.2 0.3 -1.9
v -4.2 0.3 -2.2
v -4.2 3.7 1.3
v -4.2 3.7 1
v -4.2 3.7 -1.9
v -4.2 3.7 -2.2
v -4.1 0.1 1.4
v -4.1 0.1 1.3
v -4.1 0.1 1
v -4.1 0.1 0.9
v -4.1 0.1 -1.8
v -4.1 0.1 -1.9
v -4.1 0.1 -2.2
v -4.1 0.1 -2.3
v -4.1 0.3 1.4
v -4.1 0.3 1.3
v -4.1 0.3 1
v -4.1 0.3 0.9
v -4.1 0.3 -1.8
v -4.1 0.3 -1.9
v -4.1 0.3 -2.2
v -4.1 0.3 -2.3
v -4.1 3.7 1.4
v -4.1 3.7 1.3
v -4.1 3.7 1
v -4.1 3.7 0.9
v -4.1 3.7 -1.8
v -4.1 3.7 -1.9
v -4.1 3.7 -2.2
v -4.1 3.7 -2.3
v -3.8 0.1 1.3
v -3.8 0.1 1
v -3.8 0.3 1.3
v -3.8 0.3 1
v -3.8 3.7 1.3
v -3.8 3.7 1
v 3.7 0.1 1.3
v 3.7 0.1 1
v 3.7 0.1 -1.9
v 3.7 0.1 -2.2
v 3.7 0.3 1.3
v 3.7 0.3 1
v 3.7 0.3 -1.9
v 3.7 0.3 -2.2
v 3.7 3.7 1.3
v 3.7 3.7 1
v 3.7 3.7 -1.9
v 3.7 3.7 -2.2
v 3.8 0.1 1.4
v 3.8 0.1 1.3
v 3.8 0.1 1
v 3.8 0.1 0.9
v 3.8 0.1 -1.8
v 3.8 0.1 -1.9
v 3.8 0.1 -2.2
v 3.8 0.1 -2.3
v 3.8 0.3 1.4
v 3.8 0.3 1.3
v 3.8 0.3 1
v 3.8 0.3 0.9
v 3.8 0.3 -1.8
v 3.8 0.3 -1.9
v 3.8 0.3 -2.2
v 3.8 0.3 -2.3
v 3.8 3.7 1.4
v 3.8 3.7 1.3
v 3.8 3.7 1
v 3.8 3.7 0.9
v 3.8 3.7 -1.8
v 3.8 3.7 -1.9
v 3.8 3.7 -2.2
v 3.8 3.7 -2.3
v 4.1 0.1 1.3
v 4.1 0.1 1
v 4.1 0.1 -1.9
v 4.1 0.1 -2.2
v 4.1 0.3 1.3
v 4.1 0.3 1
v 4.1 0.3 -1.9
v 4.1 0.3 -2.2
v 4.1 3.7 1.3
v 4.1 3.7 1
v 4.1 3.7 -1.9
v 4.1 3.7 -2.2
v 4.5 3.6 1.5
v 4.5 3.6 -2.4
v 4.5 3.7 1.5
v 4.5 3.7 -2.4
v -4.5 3.6 1.5
v -4.5 3.6 -2.4
v -4.5 3.7 1.5
v -4.5 3.7 -2.4
v -4.1 0.1 1.3
v -4.1 0.1 1
v -4.1 0.3 1.3
v -4.1 0.3 1
v -4.1 3.7 1.3
v -4.1 3.7 1
v -3.8 0.1 1.4
v -3.8 0.1 1.3
v -3.8 0.1 1
v -3.8 0.1 0.9
v -3.8 0.1 -1.8
v -3.8 0.1 -1.9
v -3.8 0.1 -2.2
v -3.8 0.1 -2.3
v -3.8 0.3 1.4
v -3.8 0.3 1.3
v -3.8 0.3 1
v -3.8 0.3 0.9
v -3.8 0.3 -1.8
v -3.8 0.3 -1.9
v -3.8 0.3 -2.2
v -3.8 0.3 -2.3
v -3.8 3.7 1.4
v -3.8 3.7 1.3
v -3.8 3.7 1
v -3.8 3.7 0.9
v -3.8 3.7 -1.8
v -3.8 3.7 -1.9
v -3.8 3.7 -2.2
v -3.8 3.7 -2.3
v -3.7 0.1 1.3
v -3.7 0.1 1
v -3.7 0.1 -1.9
v -3.7 0.1 -2.2
v -3.7 0.3 1.3
v -3.7 0.3 1
v -3.7 0.3 -1.9
v -3.7 0.3 -2.2
v -3.7 3.7 1.3
v -3.7 3.7 1
v -3.7 3.7 -1.9
v -3.7 3.7 -2.2
v 3.8 0.1 1.3
v 3.8 0.1 1
v 3.8 0.1 -1.9
v 3.8 0.1 -2.2
v 3.8 0.3 1.3
v 3.8 0.3 1
v 3.8 0.3 -1.9
v 3.8 0.3 -2.2
v 3.8 3.7 1.3
v 3.8 3.7 1
v 3.8 3.7 -1.9
v 3.8 3.7 -2.2
v 4.1 0.1 1.4
v 4.1 0.1 1.3
v 4.1 0.1 1
v 4.1 0.1 0.9
v 4.1 0.1 -1.8
v 4.1 0.1 -1.9
v 4.1 0.1 -2.2
v 4.1 0.1 -2.3
v 4.1 0.3 1.4
v 4.1 0.3 1.3
v 4.1 0.3 1
v 4.1 0.3 0.9
v 4.1 0.3 -1.8
v 4.1 0.3 -1.9
v 4.1 0.3 -2.2
v 4.1 0.3 -2.3
v 4.1 3.7 1.4
v 4.1 3.7 1.3
v 4.1 3.7 1
v 4.1 3.7 0.9
v 4.1 3.7 -1.8
v 4.1 3.7 -1.9
v 4.1 3.7 -2.2
v 4.1 3.7 -2.3
v 4.2 0.1 1.3
v 4.2 0.1 1
v 4.2 0.1 -1.9
v 4.2 0.1 -2.2
v 4.2 0.3 1.3
v 4.2 0.3 1
v 4.2 0.3 -1.9
v 4.2 0.3 -2.2
v 4.2 3.7 1.3
v 4.2 3.7 1
v 4.2 3.7 -1.9
v 4.2 3.7 -2.2
v 4.7 3.6 1.7
v 4.7 3.6 -2.6
v 4.7 3.9 1.7
v 4.7 3.9 -2.6
v -4.7 3.6 1.7
v -4.7 3.9 1.7
v 4.7 3.6 1.7
v 4.7 3.9 1.7
v -4.1 0.1 1.4
v -4.1 0.3 1.4
v -4.1 3.7 1.4
v -3.8 0.1 1.4
v -3.8 0.3 1.4
v -3.8 3.7 1.4
v 3.8 0.1 1.4
v 3.8 0.3 1.4
v 3.8 3.7 1.4
v 4.1 0.1 1.4
v 4.1 0.3 1.4
v 4.1 3.7 1.4
v -4.2 0.1 1.3
v -4.2 0.3 1.3
v -4.2 3.7 1.3
v -4.1 0.1 1.3
v -4.1 0.3 1.3
v -4.1 3.7 1.3
v -3.8 0.1 1.3
v -3.8 0.3 1.3
v -3.8 3.7 1.3
v -3.7 0.1 1.3
v -3.7 0.3 1.3
v -3.7 3.7 1.3
v 3.7 0.1 1.3
v 3.7 0.3 1.3
v 3.7 3.7 1.3
v 3.8 0.1 1.3
v 3.8 0.3 1.3
v 3.8 3.7 1.3
v 4.1 0.1 1.3
v 4.1 0.3 1.3
v 4.1 3.7 1.3
v 4.2 0.1 1.3
v 4.2 0.3 1.3
v 4.2 3.7 1.3
v -4.1 0.1 1
v -4.1 0.3 1
v -4.1 3.7 1
v -3.8 0.1 1
v -3.8 0.3 1
v -3.8 3.7 1
v 3.8 0.1 1
v 3.8 0.3 1
v 3.8 3.7 1
v 4.1 0.1 1
v 4.1 0.3 1
v 4.1 3.7 1
v -4.1 0.1 -1.8
v -4.1 0.3 -1.8
v -4.1 3.7 -1.8
v -3.8 0.1 -1.8
v -3.8 0.3 -1.8
v -3.8 3.7 -1.8
v 3.8 0.1 -1.8
v 3.8 0.3 -1.8
v 3.8 3.7 -1.8
v 4.1 0.1 -1.8
v 4.1 0.3 -1.8
v 4.1 3.7 -1.8
v -4.2 0.1 -1.9
v -4.2 0.3 -1.9
v -4.2 3.7 -1.9
v -4.1 0.1 -1.9
v -4.1 0.3 -1.9
v -4.1 3.7 -1.9
v -3.8 0.1 -1.9
v -3.8 0.3 -1.9
v -3.8 3.7 -1.9
v -3.7 0.1 -1.9
v -3.7 0.3 -1.9
v -3.7 3.7 -1.9
v 3.7 0.1 -1.9
v 3.7 0.3 -1.9
v 3.7 3.7 -1.9
v 3.8 0.1 -1.9
v 3.8 0.3 -1.9
v 3.8 3.7 -1.9
v 4.1 0.1 -1.9
v 4.1 0.3 -1.9
v 4.1 3.7 -1.9
v 4.2 0.1 -1.9
v 4.2 0.3 -1.9
v 4.2 3.7 -1.9
v 3.8 0.1 -2.2
v 3.8 0.3 -2.2
v 3.8 3.7 -2.2
v 4.1 0.1 -2.2
v 4.1 0.3 -2.2
v 4.1 3.7 -2.2
v -4.5 3.6 -2.4
v -4.5 3.7 -2.4
v 4.5 3.6 -2.4
v 4.5 3.7 -2.4
v -4.5 3.6 1.5
v -4.5 3.7 1.5
v 4.5 3.6 1.5
v 4.5 3.7 1.5
v -4.1 0.1 1.3
v -4.1 0.3 1.3
v -4.1 3.7 1.3
v -3.8 0.1 1.3
v -3.8 0.3 1.3
v -3.8 3.7 1.3
v 3.8 0.1 1.3
v 3.8 0.3 1.3
v 3.8 3.7 1.3
v 4.1 0.1 1.3
v 4.1 0.3 1.3
v 4.1 3.7 1.3
v -4.2 0.1 1
v -4.2 0.3 1
v -4.2 3.7 1
v -4.1 0.1 1
v -4.1 0.3 1
v -4.1 3.7 1
v -3.8 0.1 1
v -3.8 0.3 1
v -3.8 3.7 1
v -3.7 0.1 1
v -3.7 0.3 1
v -3.7 3.7 1
v 3.7 0.1 1
v 3.7 0.3 1
v 3.7 3.7 1
v 3.8 0.1 1
v 3.8 0.3 1
v 3.8 3.7 1
v 4.1 0.1 1
v 4.1 0.3 1
v 4.1 3.7 1
v 4.2 0.1 1
v 4.2 0.3 1
v 4.2 3.7 1
v -4.1 0.1 0.9
v -4.1 0.3 0.9
v -4.1 3.7 0.9
v -3.8 0.1 0.9
v -3.8 0.3 0.9
v -3.8 3.7 0.9
v 3.8 0.1 0.9
v 3.8 0.3 0.9
v 3.8 3.7 0.9
v 4.1 0.1 0.9
v 4.1 0.3 0.9
v 4.1 3.7 0.9
v 3.8 0.1 -1.9
v 3.8 0.3 -1.9
v 3.8 3.7 -1.9
v 4.1 0.1 -1.9
v 4.1 0.3 -1.9
v 4.1 3.7 -1.9
v -4.2 0.1 -2.2
v -4.2 0.3 -2.2
v -4.2 3.7 -2.2
v -4.1 0.1 -2.2
v -4.1 0.3 -2.2
v -4.1 3.7 -2.2
v -3.8 0.1 -2.2
v -3.8 0.3 -2.2
v -3.8 3.7 -2.2
v -3.7 0.1 -2.2
v -3.7 0.3 -2.2
v -3.7 3.7 -2.2
v 3.7 0.1 -2.2
v 3.7 0.3 -2.2
v 3.7 3.7 -2.2
v 3.8 0.1 -2.2
v 3.8 0.3 -2.2
v 3.8 3.7 -2.2
v 4.1 0.1 -2.2
v 4.1 0.3 -2.2
v 4.1 3.7 -2.2
v 4.2 0.1 -2.2
v 4.2 0.3 -2.2
v 4.2 3.7 -2.2
v -4.1 0.1 -2.3
v -4.1 0.3 -2.3
v -4.1 3.7 -2.3
v -3.8 0.1 -2.3
v -3.8 0.3 -2.3
v -3.8 3.7 -2.3
v 3.8 0.1 -2.3
v 3.8 0.3 -2.3
v 3.8 3.7 -2.3
v 4.1 0.1 -2.3
v 4.1 0.3 -2.3
v 4.1 3.7 -2.3
v -4.7 3.6 -2.6
v -4.7 3.9 -2.6
v 4.7 3.6 -2.6
v 4.7 3.9 -2.6
v -4.1 0.1 1.4
v -3.8 0.1 1.4
v 3.8 0.1 1.4
v 4.1 0.1 1.4
v -4.2 0.1 1.3
v -4.1 0.1 1.3
v -3.8 0.1 1.3
v -3.7 0.1 1.3
v 3.7 0.1 1.3
v 3.8 0.1 1.3
v 4.1 0.1 1.3
v 4.2 0.1 1.3
v -4.2 0.1 1
v -4.1 0.1 1
v -3.8 0.1 1
v -3.7 0.1 1
v 3.7 0.1 1
v 3.8 0.1 1
v 4.1 0.1 1
v 4.2 0.1 1
v -4.1 0.1 0.9
v -3.8 0.1 0.9
v 3.8 0.1 0.9
v 4.1 0.1 0.9
v -4.1 0.1 -1.8
v -3.8 0.1 -1.8
v 3.8 0.1 -1.8
v 4.1 0.1 -1.8
v -4.2 0.1 -1.9
v -4.1 0.1 -1.9
v -3.8 0.1 -1.9
v -3.7 0.1 -1.9
v 3.7 0.1 -1.9
v 3.8 0.1 -1.9
v 4.1 0.1 -1.9
v 4.2 0.1 -1.9
v -4.2 0.1 -2.2
v -4.1 0.1 -2.2
v -3.8 0.1 -2.2
v -3.7 0.1 -2.2
v 3.7 0.1 -2.2
v 3.8 0.1 -2.2
v 4.1 0.1 -2.2
v 4.2 0.1 -2.2
v -4.1 0.1 -2.3
v -3.8 0.1 -2.3
v 3.8 0.1 -2.3
v 4.1 0.1 -2.3
v -4.7 3.6 1.7
v 4.7 3.6 1.7
v -4.5 3.6 1.5
v 4.5 3.6 1.5
v -4.5 3.6 -2.4
v 4.5 3.6 -2.4
v -4.7 3.6 -2.6
v 4.7 3.6 -2.6
v -4.5 3.7 1.5
v 4.5 3.7 1.5
v -4.1 3.7 1.4
v -3.8 3.7 1.4
v 3.8 3.7 1.4
v 4.1 3.7 1.4
v -4.2 3.7 1.3
v -4.1 3.7 1.3
v -3.8 3.7 1.3
v -3.7 3.7 1.3
v 3.7 3.7 1.3
v 3.8 3.7 1.3
v 4.1 3.7 1.3
v 4.2 3.7 1.3
v -4.2 3.7 1
v -4.1 3.7 1
v -3.8 3.7 1
v -3.7 3.7 1
v 3.7 3.7 1
v 3.8 3.7 1
v 4.1 3.7 1
v 4.2 3.7 1
v -4.1 3.7 0.9
v -3.8 3.7 0.9
v 3.8 3.7 0.9
v 4.1 3.7 0.9
v -4.1 3.7 -1.8
v -3.8 3.7 -1.8
v 3.8 3.7 -1.8
v 4.1 3.7 -1.8
v -4.2 3.7 -1.9
v -4.1 3.7 -1.9
v -3.8 3.7 -1.9
v -3.7 3.7 -1.9
v 3.7 3.7 -1.9
v 3.8 3.7 -1.9
v 4.1 3.7 -1.9
v 4.2 3.7 -1.9
v -4.2 3.7 -2.2
v -4.1 3.7 -2.2
v -3.8 3.7 -2.2
v -3.7 3.7 -2.2
v 3.7 3.7 -2.2
v 3.8 3.7 -2.2
v 4.1 3.7 -2.2
v 4.2 3.7 -2.2
v -4.1 3.7 -2.3
v -3.8 3.7 -2.3
v 3.8 3.7 -2.3
v 4.1 3.7 -2.3
v -4.5 3.7 -2.4
v 4.5 3.7 -2.4
v -4.7 3.9 1.7
v 4.7 3.9 1.7
v -4.7 3.9 -2.6
v 4.7 3.9 -2.6

# faces
f 3/1/1 2/1/1 1/1/1
f 4/1/1 2/1/1 3/1/1
f 9/3/1 6/3/1 5/3/1
f 10/3/1 6/3/1 9/3/1
f 11/3/1 8/3/1 7/3/1
f 12/3/1 8/3/1 11/3/1
f 13/2/1 10/2/1 9/2/1
f 14/2/1 10/2/1 13/2/1
f 15/2/1 12/2/1 11/2/1
f 16/2/1 12/2/1 15/2/1
f 25/3/1 18/3/1 17/3/1
f 26/3/1 18/3/1 25/3/1
f 27/3/1 20/3/1 19/3/1
f 28/3/1 20/3/1 27/3/1
f 29/3/1 22/3/1 21/3/1
f 30/3/1 22/3/1 29/3/1
f 31/3/1 24/3/1 23/3/1
f 32/3/1 24/3/1 31/3/1
f 33/2/1 26/2/1 25/2/1
f 34/2/1 26/2/1 33/2/1
f 35/2/1 28/2/1 27/2/1
f 36/2/1 28/2/1 35/2/1
f 37/2/1 30/2/1 29/2/1
f 38/2/1 30/2/1 37/2/1
f 39/2/1 32/2/1 31/2/1
f 40/2/1 32/2/1 39/2/1
f 43/3/1 42/3/1 41/3/1
f 44/3/1 42/3/1 43/3/1
f 45/2/1 44/2/1 43/2/1
f 46/2/1 44/2/1 45/2/1
f 51/3/1 48/3/1 47/3/1
f 52/3/1 48/3/1 51/3/1
f 53/3/1 50/3/1 49/3/1
f 54/3/1 50/3/1 53/3/1
f 55/2/1 52/2/1 51/2/1
f 56/2/1 52/2/1 55/2/1
f 57/2/1 54/2/1 53/2/1
f 58/2/1 54/2/1 57/2/1
f 67/3/1 60/3/1 59/3/1
f 68/3/1 60/3/1 67/3/1
f 69/3/1 62/3/1 61/3/1
f 70/3/1 62/3/1 69/3/1
f 71/3/1 64/3/1 63/3/1
f 72/3/1 64/3/1 71/3/1
f 73/3/1 66/3/1 65/3/1
f 74/3/1 66/3/1 73/3/1
f 75/2/1 68/2/1 67/2/1
f 76/2/1 68/2/1 75/2/1
f 77/2/1 70/2/1 69/2/1
f 78/2/1 70/2/1 77/2/1
f 79/2/1 72/2/1 71/2/1
f 80/2/1 72/2/1 79/2/1
f 81/2/1 74/2/1 73/2/1
f 82/2/1 74/2/1 81/2/1
f 87/3/1 84/3/1 83/3/1
f 88/3/1 84/3/1 87/3/1
f 89/3/1 86/3/1 85/3/1
f 90/3/1 86/3/1 89/3/1
f 91/2/1 88/2/1 87/2/1
f 92/2/1 88/2/1 91/2/1
f 93/2/1 90/2/1 89/2/1
f 94/2/1 90/2/1 93/2/1
f 97/1/1 96/1/1 95/1/1
f 98/1/1 96/1/1 97/1/1
f 99/1/2 100/1/2 101/1/2
f 101/1/2 100/1/2 102/1/2
f 103/3/2 104/3/2 105/3/2
f 105/3/2 104/3/2 106/3/2
f 105/2/2 106/2/2 107/2/2
f 107/2/2 106/2/2 108/2/2
f 109/3/2 110/3/2 117/3/2
f 117/3/2 110/3/2 118/3/2
f 111/3/2 112/3/2 119/3/2
f 119/3/2 112/3/2 120/3/2
f 113/3/2 114/3/2 121/3/2
f 121/3/2 114/3/2 122/3/2
f 115/3/2 116/3/2 123/3/2
f 123/3/2 116/3/2 124/3/2
f 117/2/2 118/2/2 125/2/2
f 125/2/2 118/2/2 126/2/2
f 119/2/2 120/2/2 127/2/2
f 127/2/2 120/2/2 128/2/2
f 121/2/2 122/2/2 129/2/2
f 129/2/2 122/2/2 130/2/2
f 123/2/2 124/2/2 131/2/2
f 131/2/2 124/2/2 132/2/2
f 133/3/2 134/3/2 137/3/2
f 137/3/2 134/3/2 138/3/2
f 135/3/2 136/3/2 139/3/2
f 139/3/2 136/3/2 140/3/2
f 137/2/2 138/2/2 141/2/2
f 141/2/2 138/2/2 142/2/2
f 139/2/2 140/2/2 143/2/2
f 143/2/2 140/2/2 144/2/2
f 145/3/2 146/3/2 149/3/2
f 149/3/2 146/3/2 150/3/2
f 147/3/2 148/3/2 151/3/2
f 151/3/2 148/3/2 152/3/2
f 149/2/2 150/2/2 153/2/2
f 153/2/2 150/2/2 154/2/2
f 151/2/2 152/2/2 155/2/2
f 155/2/2 152/2/2 156/2/2
f 157/3/2 158/3/2 165/3/2
f 165/3/2 158/3/2 166/3/2
f 159/3/2 160/3/2 167/3/2
f 167/3/2 160/3/2 168/3/2
f 161/3/2 162/3/2 169/3/2
f 169/3/2 162/3/2 170/3/2
f 163/3/2 164/3/2 171/3/2
f 171/3/2 164/3/2 172/3/2
f 165/2/2 166/2/2 173/2/2
f 173/2/2 166/2/2 174/2/2
f 167/2/2 168/2/2 175/2/2
f 175/2/2 168/2/2 176/2/2
f 169/2/2 170/2/2 177/2/2
f 177/2/2 170/2/2 178/2/2
f 171/2/2 172/2/2 179/2/2
f 179/2/2 172/2/2 180/2/2
f 181/3/2 182/3/2 185/3/2
f 185/3/2 182/3/2 186/3/2
f 183/3/2 184/3/2 187/3/2
f 187/3/2 184/3/2 188/3/2
f 185/2/2 186/2/2 189/2/2
f 189/2/2 186/2/2 190/2/2
f 187/2/2 188/2/2 191/2/2
f 191/2/2 188/2/2 192/2/2
f 193/1/2 194/1/2 195/1/2
f 195/1/2 194/1/2 196/1/2
f 199/1/3 198/1/3 197/1/3
f 200/1/3 198/1/3 199/1/3
f 204/3/3 202/3/3 201/3/3
f 205/2/3 203/2/3 202/2/3
f 205/3/3 202/3/3 204/3/3
f 206/2/3 203/2/3 205/2/3
f 210/3/3 208/3/3 207/3/3
f 211/2/3 209/2/3 208/2/3
f 211/3/3 208/3/3 210/3/3
f 212/2/3 209/2/3 211/2/3
f 216/3/3 214/3/3 213/3/3
f 217/2/3 215/2/3 214/2/3
f 217/3/3 214/3/3 216/3/3
f 218/2/3 215/2/3 217/2/3
f 222/3/3 220/3/3 219/3/3
f 223/2/3 221/2/3 220/2/3
f 223/3/3 220/3/3 222/3/3
f 224/2/3 221/2/3 223/2/3
f 228/3/3 226/3/3 225/3/3
f 229/2/3 227/2/3 226/2/3
f 229/3/3 226/3/3 228/3/3
f 230/2/3 227/2/3 229/2/3
f 234/3/3 232/3/3 231/3/3
f 235/2/3 233/2/3 232/2/3
f 235/3/3 232/3/3 234/3/3
f 236/2/3 233/2/3 235/2/3
f 240/3/3 238/3/3 237/3/3
f 241/2/3 239/2/3 238/2/3
f 241/3/3 238/3/3 240/3/3
f 242/2/3 239/2/3 241/2/3
f 246/3/3 244/3/3 243/3/3
f 247/2/3 245/2/3 244/2/3
f 247/3/3 244/3/3 246/3/3
f 248/2/3 245/2/3 247/2/3
f 252/3/3 250/3/3 249/3/3
f 253/2/3 251/2/3 250/2/3
f 253/3/3 250/3/3 252/3/3
f 254/2/3 251/2/3 253/2/3
f 258/3/3 256/3/3 255/3/3
f 259/2/3 257/2/3 256/2/3
f 259/3/3 256/3/3 258/3/3
f 260/2/3 257/2/3 259/2/3
f 264/3/3 262/3/3 261/3/3
f 265/2/3 263/2/3 262/2/3
f 265/3/3 262/3/3 264/3/3
f 266/2/3 263/2/3 265/2/3
f 270/3/3 268/3/3 267/3/3
f 271/2/3 269/2/3 268/2/3
f 271/3/3 268/3/3 270/3/3
f 272/2/3 269/2/3 271/2/3
f 276/3/3 274/3/3 273/3/3
f 277/2/3 275/2/3 274/2/3
f 277/3/3 274/3/3 276/3/3
f 278/2/3 275/2/3 277/2/3
f 282/3/3 280/3/3 279/3/3
f 283/2/3 281/2/3 280/2/3
f 283/3/3 280/3/3 282/3/3
f 284/2/3 281/2/3 283/2/3
f 288/3/3 286/3/3 285/3/3
f 289/2/3 287/2/3 286/2/3
f 289/3/3 286/3/3 288/3/3
f 290/2/3 287/2/3 289/2/3
f 293/1/3 292/1/3 291/1/3
f 294/1/3 292/1/3 293/1/3
f 295/1/4 296/1/4 297/1/4
f 297/1/4 296/1/4 298/1/4
f 299/3/4 300/3/4 302/3/4
f 300/2/4 301/2/4 303/2/4
f 302/3/4 300/3/4 303/3/4
f 303/2/4 301/2/4 304/2/4
f 305/3/4 306/3/4 308/3/4
f 306/2/4 307/2/4 309/2/4
f 308/3/4 306/3/4 309/3/4
f 309/2/4 307/2/4 310/2/4
f 311/3/4 312/3/4 314/3/4
f 312/2/4 313/2/4 315/2/4
f 314/3/4 312/3/4 315/3/4
f 315/2/4 313/2/4 316/2/4
f 317/3/4 318/3/4 320/3/4
f 318/2/4 319/2/4 321/2/4
f 320/3/4 318/3/4 321/3/4
f 321/2/4 319/2/4 322/2/4
f 323/3/4 324/3/4 326/3/4
f 324/2/4 325/2/4 327/2/4
f 326/3/4 324/3/4 327/3/4
f 327/2/4 325/2/4 328/2/4
f 329/3/4 330/3/4 332/3/4
f 330/2/4 331/2/4 333/2/4
f 332/3/4 330/3/4 333/3/4
f 333/2/4 331/2/4 334/2/4
f 335/3/4 336/3/4 338/3/4
f 336/2/4 337/2/4 339/2/4
f 338/3/4 336/3/4 339/3/4
f 339/2/4 337/2/4 340/2/4
f 341/3/4 342/3/4 344/3/4
f 342/2/4 343/2/4 345/2/4
f 344/3/4 342/3/4 345/3/4
f 345/2/4 343/2/4 346/2/4
f 347/3/4 348/3/4 350/3/4
f 348/2/4 349/2/4 351/2/4
f 350/3/4 348/3/4 351/3/4
f 351/2/4 349/2/4 352/2/4
f 353/3/4 354/3/4 356/3/4
f 354/2/4 355/2/4 357/2/4
f 356/3/4 354/3/4 357/3/4
f 357/2/4 355/2/4 358/2/4
f 359/3/4 360/3/4 362/3/4
f 360/2/4 361/2/4 363/2/4
f 362/3/4 360/3/4 363/3/4
f 363/2/4 361/2/4 364/2/4
f 365/3/4 366/3/4 368/3/4
f 366/2/4 367/2/4 369/2/4
f 368/3/4 366/3/4 369/3/4
f 369/2/4 367/2/4 370/2/4
f 371/3/4 372/3/4 374/3/4
f 372/2/4 373/2/4 375/2/4
f 374/3/4 372/3/4 375/3/4
f 375/2/4 373/2/4 376/2/4
f 377/3/4 378/3/4 380/3/4
f 378/2/4 379/2/4 381/2/4
f 380/3/4 378/3/4 381/3/4
f 381/2/4 379/2/4 382/2/4
f 383/3/4 384/3/4 386/3/4
f 384/2/4 385/2/4 387/2/4
f 386/3/4 384/3/4 387/3/4
f 387/2/4 385/2/4 388/2/4
f 389/1/4 390/1/4 391/1/4
f 391/1/4 390/1/4 392/1/4
f 398/3/5 394/3/5 393/3/5
f 399/3/5 394/3/5 398/3/5
f 402/3/5 396/3/5 395/3/5
f 403/3/5 396/3/5 402/3/5
f 405/3/5 398/3/5 397/3/5
f 406/3/5 398/3/5 405/3/5
f 407/3/5 400/3/5 399/3/5
f 408/3/5 400/3/5 407/3/5
f 409/3/5 402/3/5 401/3/5
f 410/3/5 402/3/5 409/3/5
f 411/3/5 404/3/5 403/3/5
f 412/3/5 404/3/5 411/3/5
f 413/3/5 407/3/5 406/3/5
f 414/3/5 407/3/5 413/3/5
f 415/3/5 411/3/5 410/3/5
f 416/3/5 411/3/5 415/3/5
f 422/3/5 418/3/5 417/3/5
f 423/3/5 418/3/5 422/3/5
f 426/3/5 420/3/5 419/3/5
f 427/3/5 420/3/5 426/3/5
f 429/3/5 424/3/5 423/3/5
f 429/3/5 422/3/5 421/3/5
f 429/3/5 423/3/5 422/3/5
f 430/3/5 424/3/5 429/3/5
f 431/3/5 424/3/5 430/3/5
f 432/3/5 424/3/5 431/3/5
f 433/3/5 426/3/5 425/3/5
f 434/3/5 426/3/5 433/3/5
f 435/3/5 428/3/5 427/3/5
f 436/3/5 428/3/5 435/3/5
f 437/3/5 431/3/5 430/3/5
f 438/3/5 431/3/5 437/3/5
f 439/3/5 435/3/5 434/3/5
f 440/3/5 435/3/5 439/3/5
f 443/1/5 442/1/5 441/1/5
f 444/1/5 442/1/5 443/1/5
f 445/1/5 443/1/5 441/1/5
f 446/1/5 442/1/5 444/1/5
f 447/1/5 445/1/5 441/1/5
f 447/1/5 446/1/5 445/1/5
f 448/1/5 442/1/5 446/1/5
f 448/1/5 446/1/5 447/1/5
f 451/1/5 450/1/5 449/1/5
f 452/1/5 450/1/5 451/1/5
f 453/1/5 450/1/5 452/1/5
f 454/1/5 450/1/5 453/1/5
f 455/1/5 451/1/5 449/1/5
f 456/1/5 451/1/5 455/1/5
f 457/1/5 453/1/5 452/1/5
f 458/1/5 453/1/5 457/1/5
f 459/1/5 453/1/5 458/1/5
f 460/1/5 453/1/5 459/1/5
f 461/1/5 450/1/5 454/1/5
f 462/1/5 450/1/5 461/1/5
f 463/1/5 455/1/5 449/1/5
f 464/1/5 457/1/5 456/1/5
f 465/1/5 457/1/5 464/1/5
f 466/1/5 459/1/5 458/1/5
f 467/1/5 459/1/5 466/1/5
f 468/1/5 461/1/5 460/1/5
f 469/1/5 461/1/5 468/1/5
f 470/1/5 450/1/5 462/1/5
f 471/1/5 464/1/5 463/1/5
f 472/1/5 467/1/5 466/1/5
f 472/1/5 466/1/5 465/1/5
f 472/1/5 468/1/5 467/1/5
f 473/1/5 468/1/5 472/1/5
f 474/1/5 470/1/5 469/1/5
f 475/1/5 473/1/5 472/1/5
f 475/1/5 474/1/5 473/1/5
f 475/1/5 471/1/5 463/1/5
f 475/1/5 472/1/5 471/1/5
f 476/1/5 474/1/5 475/1/5
f 477/1/5 474/1/5 476/1/5
f 478/1/5 470/1/5 474/1/5
f 478/1/5 474/1/5 477/1/5
f 479/1/5 463/1/5 449/1/5
f 479/1/5 475/1/5 463/1/5
f 480/1/5 475/1/5 479/1/5
f 481/1/5 477/1/5 476/1/5
f 482/1/5 477/1/5 481/1/5
f 483/1/5 477/1/5 482/1/5
f 484/1/5 477/1/5 483/1/5
f 485/1/5 470/1/5 478/1/5
f 486/1/5 450/1/5 470/1/5
f 486/1/5 470/1/5 485/1/5
f 487/1/5 479/1/5 449/1/5
f 490/1/5 483/1/5 482/1/5
f 491/1/5 483/1/5 490/1/5
f 492/1/5 485/1/5 484/1/5
f 493/1/5 485/1/5 492/1/5
f 494/1/5 450/1/5 486/1/5
f 495/1/5 488/1/5 487/1/5
f 496/1/5 491/1/5 490/1/5
f 496/1/5 490/1/5 489/1/5
f 496/1/5 492/1/5 491/1/5
f 497/1/5 492/1/5 496/1/5
f 498/1/5 494/1/5 493/1/5
f 499/1/5 497/1/5 496/1/5
f 499/1/5 498/1/5 497/1/5
f 499/1/5 495/1/5 487/1/5
f 499/1/5 487/1/5 449/1/5
f 499/1/5 496/1/5 495/1/5
f 500/1/5 494/1/5 498/1/5
f 500/1/5 498/1/5 499/1/5
f 500/1/5 450/1/5 494/1/5
f 501/1/6 502/1/6 503/1/6
f 503/1/6 502/1/6 504/1/6
