# MagicaVoxel @ Ephtracy

# group
o 

# material
mtllib shelf blue.mtl
usemtl palette

# normals
vn -1 0 0
vn 1 0 0
vn 0 0 1
vn 0 0 -1
vn 0 -1 0
vn 0 1 0

# texcoords
vt 0.751953 0.5
vt 0.755859 0.5

# verts
v -1.7 3.3 -0.9
v -1.7 3.3 -2
v -1.7 3.4 -0.9
v -1.7 3.4 -2
v -1.6 3.2 -0.9
v -1.6 3.2 -2
v -1.6 3.3 -0.8
v -1.6 3.3 -0.9
v -1.6 3.3 -2
v -1.6 3.4 -0.8
v -1.6 3.4 -0.9
v -1.5 2.5 -1.9
v -1.5 2.5 -2
v -1.5 2.7 -1.8
v -1.5 2.7 -1.9
v -1.5 2.9 -1.7
v -1.5 2.9 -1.8
v -1.5 3 -1.4
v -1.5 3 -1.7
v -1.5 3.1 -1.3
v -1.5 3.1 -1.4
v -1.5 3.2 -1.3
v -1.5 3.2 -2
v 1.3 2.5 -1.9
v 1.3 2.5 -2
v 1.3 2.7 -1.8
v 1.3 2.7 -1.9
v 1.3 2.9 -1.7
v 1.3 2.9 -1.8
v 1.3 3 -1.4
v 1.3 3 -1.7
v 1.3 3.1 -1.3
v 1.3 3.1 -1.4
v 1.3 3.2 -1.3
v 1.3 3.2 -2
v -1.3 2.5 -1.9
v -1.3 2.5 -2
v -1.3 2.7 -1.8
v -1.3 2.7 -1.9
v -1.3 2.9 -1.7
v -1.3 2.9 -1.8
v -1.3 3 -1.4
v -1.3 3 -1.7
v -1.3 3.1 -1.3
v -1.3 3.1 -1.4
v -1.3 3.2 -1.3
v -1.3 3.2 -2
v 1.5 2.5 -1.9
v 1.5 2.5 -2
v 1.5 2.7 -1.8
v 1.5 2.7 -1.9
v 1.5 2.9 -1.7
v 1.5 2.9 -1.8
v 1.5 3 -1.4
v 1.5 3 -1.7
v 1.5 3.1 -1.3
v 1.5 3.1 -1.4
v 1.5 3.2 -1.3
v 1.5 3.2 -2
v 1.6 3.2 -0.9
v 1.6 3.2 -2
v 1.6 3.3 -0.8
v 1.6 3.3 -0.9
v 1.6 3.3 -2
v 1.6 3.4 -0.8
v 1.6 3.4 -0.9
v 1.7 3.3 -0.9
v 1.7 3.3 -2
v 1.7 3.4 -0.9
v 1.7 3.4 -2
v -1.6 3.3 -0.8
v -1.6 3.4 -0.8
v 1.6 3.3 -0.8
v 1.6 3.4 -0.8
v -1.7 3.3 -0.9
v -1.7 3.4 -0.9
v -1.6 3.2 -0.9
v -1.6 3.3 -0.9
v -1.6 3.4 -0.9
v 1.6 3.2 -0.9
v 1.6 3.3 -0.9
v 1.6 3.4 -0.9
v 1.7 3.3 -0.9
v 1.7 3.4 -0.9
v -1.5 3.1 -1.3
v -1.5 3.2 -1.3
v -1.3 3.1 -1.3
v -1.3 3.2 -1.3
v 1.3 3.1 -1.3
v 1.3 3.2 -1.3
v 1.5 3.1 -1.3
v 1.5 3.2 -1.3
v -1.5 3 -1.4
v -1.5 3.1 -1.4
v -1.3 3 -1.4
v -1.3 3.1 -1.4
v 1.3 3 -1.4
v 1.3 3.1 -1.4
v 1.5 3 -1.4
v 1.5 3.1 -1.4
v -1.5 2.9 -1.7
v -1.5 3 -1.7
v -1.3 2.9 -1.7
v -1.3 3 -1.7
v 1.3 2.9 -1.7
v 1.3 3 -1.7
v 1.5 2.9 -1.7
v 1.5 3 -1.7
v -1.5 2.7 -1.8
v -1.5 2.9 -1.8
v -1.3 2.7 -1.8
v -1.3 2.9 -1.8
v 1.3 2.7 -1.8
v 1.3 2.9 -1.8
v 1.5 2.7 -1.8
v 1.5 2.9 -1.8
v -1.5 2.5 -1.9
v -1.5 2.7 -1.9
v -1.3 2.5 -1.9
v -1.3 2.7 -1.9
v 1.3 2.5 -1.9
v 1.3 2.7 -1.9
v 1.5 2.5 -1.9
v 1.5 2.7 -1.9
v -1.7 3.3 -2
v -1.7 3.4 -2
v -1.6 3.2 -2
v -1.6 3.3 -2
v -1.5 2.5 -2
v -1.5 3.2 -2
v -1.3 2.5 -2
v -1.3 3.2 -2
v 1.3 2.5 -2
v 1.3 3.2 -2
v 1.5 2.5 -2
v 1.5 3.2 -2
v 1.6 3.2 -2
v 1.6 3.3 -2
v 1.7 3.3 -2
v 1.7 3.4 -2
v -1.5 2.5 -1.9
v -1.3 2.5 -1.9
v 1.3 2.5 -1.9
v 1.5 2.5 -1.9
v -1.5 2.5 -2
v -1.3 2.5 -2
v 1.3 2.5 -2
v 1.5 2.5 -2
v -1.5 2.7 -1.8
v -1.3 2.7 -1.8
v 1.3 2.7 -1.8
v 1.5 2.7 -1.8
v -1.5 2.7 -1.9
v -1.3 2.7 -1.9
v 1.3 2.7 -1.9
v 1.5 2.7 -1.9
v -1.5 2.9 -1.7
v -1.3 2.9 -1.7
v 1.3 2.9 -1.7
v 1.5 2.9 -1.7
v -1.5 2.9 -1.8
v -1.3 2.9 -1.8
v 1.3 2.9 -1.8
v 1.5 2.9 -1.8
v -1.5 3 -1.4
v -1.3 3 -1.4
v 1.3 3 -1.4
v 1.5 3 -1.4
v -1.5 3 -1.7
v -1.3 3 -1.7
v 1.3 3 -1.7
v 1.5 3 -1.7
v -1.5 3.1 -1.3
v -1.3 3.1 -1.3
v 1.3 3.1 -1.3
v 1.5 3.1 -1.3
v -1.5 3.1 -1.4
v -1.3 3.1 -1.4
v 1.3 3.1 -1.4
v 1.5 3.1 -1.4
v -1.6 3.2 -0.9
v 1.6 3.2 -0.9
v -1.5 3.2 -1.3
v -1.3 3.2 -1.3
v 1.3 3.2 -1.3
v 1.5 3.2 -1.3
v -1.6 3.2 -2
v -1.5 3.2 -2
v -1.3 3.2 -2
v 1.3 3.2 -2
v 1.5 3.2 -2
v 1.6 3.2 -2
v -1.6 3.3 -0.8
v 1.6 3.3 -0.8
v -1.7 3.3 -0.9
v -1.6 3.3 -0.9
v 1.6 3.3 -0.9
v 1.7 3.3 -0.9
v -1.7 3.3 -2
v -1.6 3.3 -2
v 1.6 3.3 -2
v 1.7 3.3 -2
v -1.6 3.4 -0.8
v 1.6 3.4 -0.8
v -1.7 3.4 -0.9
v -1.6 3.4 -0.9
v 1.6 3.4 -0.9
v 1.7 3.4 -0.9
v -1.7 3.4 -2
v 1.7 3.4 -2

# faces
f 3/1/1 2/1/1 1/1/1
f 4/1/1 2/1/1 3/1/1
f 8/1/1 6/1/1 5/1/1
f 9/1/1 6/1/1 8/1/1
f 10/1/1 8/1/1 7/1/1
f 11/1/1 8/1/1 10/1/1
f 15/2/1 13/2/1 12/2/1
f 17/2/1 15/2/1 14/2/1
f 19/2/1 17/2/1 16/2/1
f 21/2/1 19/2/1 18/2/1
f 22/2/1 21/2/1 20/2/1
f 23/2/1 13/2/1 15/2/1
f 23/2/1 21/2/1 22/2/1
f 23/2/1 15/2/1 17/2/1
f 23/2/1 19/2/1 21/2/1
f 23/2/1 17/2/1 19/2/1
f 27/2/1 25/2/1 24/2/1
f 29/2/1 27/2/1 26/2/1
f 31/2/1 29/2/1 28/2/1
f 33/2/1 31/2/1 30/2/1
f 34/2/1 33/2/1 32/2/1
f 35/2/1 25/2/1 27/2/1
f 35/2/1 33/2/1 34/2/1
f 35/2/1 27/2/1 29/2/1
f 35/2/1 31/2/1 33/2/1
f 35/2/1 29/2/1 31/2/1
f 36/2/2 37/2/2 39/2/2
f 38/2/2 39/2/2 41/2/2
f 40/2/2 41/2/2 43/2/2
f 42/2/2 43/2/2 45/2/2
f 44/2/2 45/2/2 46/2/2
f 39/2/2 37/2/2 47/2/2
f 46/2/2 45/2/2 47/2/2
f 41/2/2 39/2/2 47/2/2
f 45/2/2 43/2/2 47/2/2
f 43/2/2 41/2/2 47/2/2
f 48/2/2 49/2/2 51/2/2
f 50/2/2 51/2/2 53/2/2
f 52/2/2 53/2/2 55/2/2
f 54/2/2 55/2/2 57/2/2
f 56/2/2 57/2/2 58/2/2
f 51/2/2 49/2/2 59/2/2
f 58/2/2 57/2/2 59/2/2
f 53/2/2 51/2/2 59/2/2
f 57/2/2 55/2/2 59/2/2
f 55/2/2 53/2/2 59/2/2
f 60/1/2 61/1/2 63/1/2
f 63/1/2 61/1/2 64/1/2
f 62/1/2 63/1/2 65/1/2
f 65/1/2 63/1/2 66/1/2
f 67/1/2 68/1/2 69/1/2
f 69/1/2 68/1/2 70/1/2
f 73/1/3 72/1/3 71/1/3
f 74/1/3 72/1/3 73/1/3
f 78/1/3 76/1/3 75/1/3
f 79/1/3 76/1/3 78/1/3
f 80/1/3 78/1/3 77/1/3
f 81/1/3 78/1/3 80/1/3
f 83/1/3 82/1/3 81/1/3
f 84/1/3 82/1/3 83/1/3
f 87/2/3 86/2/3 85/2/3
f 88/2/3 86/2/3 87/2/3
f 91/2/3 90/2/3 89/2/3
f 92/2/3 90/2/3 91/2/3
f 95/2/3 94/2/3 93/2/3
f 96/2/3 94/2/3 95/2/3
f 99/2/3 98/2/3 97/2/3
f 100/2/3 98/2/3 99/2/3
f 103/2/3 102/2/3 101/2/3
f 104/2/3 102/2/3 103/2/3
f 107/2/3 106/2/3 105/2/3
f 108/2/3 106/2/3 107/2/3
f 111/2/3 110/2/3 109/2/3
f 112/2/3 110/2/3 111/2/3
f 115/2/3 114/2/3 113/2/3
f 116/2/3 114/2/3 115/2/3
f 119/2/3 118/2/3 117/2/3
f 120/2/3 118/2/3 119/2/3
f 123/2/3 122/2/3 121/2/3
f 124/2/3 122/2/3 123/2/3
f 125/1/4 126/1/4 128/1/4
f 127/1/4 128/1/4 130/1/4
f 129/2/4 130/2/4 131/2/4
f 130/1/4 128/1/4 132/1/4
f 131/2/4 130/2/4 132/2/4
f 132/1/4 128/1/4 134/1/4
f 133/2/4 134/2/4 135/2/4
f 134/1/4 128/1/4 136/1/4
f 135/2/4 134/2/4 136/2/4
f 136/1/4 128/1/4 137/1/4
f 128/1/4 126/1/4 138/1/4
f 137/1/4 128/1/4 138/1/4
f 138/1/4 126/1/4 139/1/4
f 139/1/4 126/1/4 140/1/4
f 145/2/5 142/2/5 141/2/5
f 146/2/5 142/2/5 145/2/5
f 147/2/5 144/2/5 143/2/5
f 148/2/5 144/2/5 147/2/5
f 153/2/5 150/2/5 149/2/5
f 154/2/5 150/2/5 153/2/5
f 155/2/5 152/2/5 151/2/5
f 156/2/5 152/2/5 155/2/5
f 161/2/5 158/2/5 157/2/5
f 162/2/5 158/2/5 161/2/5
f 163/2/5 160/2/5 159/2/5
f 164/2/5 160/2/5 163/2/5
f 169/2/5 166/2/5 165/2/5
f 170/2/5 166/2/5 169/2/5
f 171/2/5 168/2/5 167/2/5
f 172/2/5 168/2/5 171/2/5
f 177/2/5 174/2/5 173/2/5
f 178/2/5 174/2/5 177/2/5
f 179/2/5 176/2/5 175/2/5
f 180/2/5 176/2/5 179/2/5
f 183/1/5 182/1/5 181/1/5
f 184/1/5 182/1/5 183/1/5
f 185/1/5 182/1/5 184/1/5
f 186/1/5 182/1/5 185/1/5
f 187/1/5 183/1/5 181/1/5
f 188/1/5 183/1/5 187/1/5
f 189/1/5 185/1/5 184/1/5
f 190/1/5 185/1/5 189/1/5
f 191/1/5 182/1/5 186/1/5
f 192/1/5 182/1/5 191/1/5
f 196/1/5 194/1/5 193/1/5
f 197/1/5 194/1/5 196/1/5
f 199/1/5 196/1/5 195/1/5
f 200/1/5 196/1/5 199/1/5
f 201/1/5 198/1/5 197/1/5
f 202/1/5 198/1/5 201/1/5
f 203/1/6 204/1/6 206/1/6
f 206/1/6 204/1/6 207/1/6
f 205/1/6 206/1/6 209/1/6
f 207/1/6 208/1/6 209/1/6
f 206/1/6 207/1/6 209/1/6
f 209/1/6 208/1/6 210/1/6
