# MagicaVoxel @ Ephtracy

# group
o 

# material
mtllib first aid kit.mtl
usemtl palette

# normals
vn -1 0 0
vn 1 0 0
vn 0 0 1
vn 0 0 -1
vn 0 -1 0
vn 0 1 0

# texcoords
vt 0.533203 0.5
vt 0.537109 0.5
vt 0.541016 0.5
vt 0.544922 0.5

# verts
v -1.3 0.1 0.4
v -1.3 0.1 -0.3
v -1.3 0.2 0.3
v -1.3 0.2 -0.2
v -1.3 1.8 0.3
v -1.3 1.8 -0.2
v -1.3 1.9 0.4
v -1.3 1.9 -0.3
v -1.2 0 0.4
v -1.2 0 -0.3
v -1.2 0.1 0.4
v -1.2 0.1 -0.3
v -1.2 1.9 0.4
v -1.2 1.9 -0.3
v -1.2 2 0.4
v -1.2 2 -0.3
v -0.8 1.9 0.4
v -0.8 1.9 0.3
v -0.8 1.9 -0.2
v -0.8 1.9 -0.3
v -0.8 2 0.4
v -0.8 2 0.3
v -0.8 2 -0.2
v -0.8 2 -0.3
v -0.7 2 0.4
v -0.7 2 -0.3
v -0.7 2.1 0.4
v -0.7 2.1 -0.3
v 0.8 1.7 0.4
v 0.8 1.7 -0.3
v 0.8 1.8 0.4
v 0.8 1.8 -0.3
v 0.8 1.9 0.4
v 0.8 1.9 -0.3
v 0.8 2 0.4
v 0.8 2 0.3
v 0.8 2 -0.2
v 0.8 2 -0.3
v 0.9 1.8 0.4
v 0.9 1.8 0.3
v 0.9 1.8 -0.2
v 0.9 1.8 -0.3
v 0.9 1.9 0.4
v 0.9 1.9 0.3
v 0.9 1.9 -0.2
v 0.9 1.9 -0.3
v 1.3 1.9 0.4
v 1.3 1.9 0.3
v 1.3 1.9 -0.2
v 1.3 1.9 -0.3
v 1.3 2 0.4
v 1.3 2 0.3
v 1.3 2 -0.2
v 1.3 2 -0.3
v -1.1 1.9 0.4
v -1.1 1.9 0.3
v -1.1 1.9 -0.2
v -1.1 1.9 -0.3
v -1.1 2 0.4
v -1.1 2 0.3
v -1.1 2 -0.2
v -1.1 2 -0.3
v -0.7 1.8 0.4
v -0.7 1.8 0.3
v -0.7 1.8 -0.2
v -0.7 1.8 -0.3
v -0.7 1.9 0.4
v -0.7 1.9 0.3
v -0.7 1.9 -0.2
v -0.7 1.9 -0.3
v -0.6 1.7 0.4
v -0.6 1.7 -0.3
v -0.6 1.8 0.4
v -0.6 1.8 -0.3
v -0.6 1.9 0.4
v -0.6 1.9 -0.3
v -0.6 2 0.4
v -0.6 2 0.3
v -0.6 2 -0.2
v -0.6 2 -0.3
v 0.9 2 0.4
v 0.9 2 -0.3
v 0.9 2.1 0.4
v 0.9 2.1 -0.3
v 1 1.9 0.4
v 1 1.9 0.3
v 1 1.9 -0.2
v 1 1.9 -0.3
v 1 2 0.4
v 1 2 0.3
v 1 2 -0.2
v 1 2 -0.3
v 1.4 0 0.4
v 1.4 0 -0.3
v 1.4 0.1 0.4
v 1.4 0.1 -0.3
v 1.4 1.9 0.4
v 1.4 1.9 -0.3
v 1.4 2 0.4
v 1.4 2 -0.3
v 1.5 0.1 0.4
v 1.5 0.1 -0.3
v 1.5 0.2 0.3
v 1.5 0.2 -0.2
v 1.5 1.8 0.3
v 1.5 1.8 -0.2
v 1.5 1.9 0.4
v 1.5 1.9 -0.3
v -1.3 0.1 0.4
v -1.3 1.9 0.4
v -1.2 0 0.4
v -1.2 0.1 0.4
v -1.2 0.2 0.4
v -1.2 1.7 0.4
v -1.2 1.9 0.4
v -1.2 2 0.4
v -1.1 0.1 0.4
v -1.1 0.2 0.4
v -1.1 1.7 0.4
v -1.1 1.8 0.4
v -1.1 1.9 0.4
v -1.1 2 0.4
v -1 0.4 0.4
v -1 1.4 0.4
v -0.9 0.3 0.4
v -0.9 0.4 0.4
v -0.9 1.4 0.4
v -0.9 1.5 0.4
v -0.8 1.9 0.4
v -0.8 2 0.4
v -0.7 1.7 0.4
v -0.7 1.8 0.4
v -0.7 1.9 0.4
v -0.7 2 0.4
v -0.7 2.1 0.4
v -0.6 1.6 0.4
v -0.6 1.7 0.4
v -0.6 1.8 0.4
v -0.6 1.9 0.4
v -0.6 2 0.4
v -0.2 0.8 0.4
v -0.2 1 0.4
v 0 0.6 0.4
v 0 0.8 0.4
v 0 1 0.4
v 0 1.2 0.4
v 0.2 0.6 0.4
v 0.2 0.8 0.4
v 0.2 1 0.4
v 0.2 1.2 0.4
v 0.4 0.8 0.4
v 0.4 1 0.4
v 0.8 1.6 0.4
v 0.8 1.7 0.4
v 0.8 1.8 0.4
v 0.8 1.9 0.4
v 0.8 2 0.4
v 0.9 1.7 0.4
v 0.9 1.8 0.4
v 0.9 1.9 0.4
v 0.9 2 0.4
v 0.9 2.1 0.4
v 1 1.9 0.4
v 1 2 0.4
v 1.1 0.3 0.4
v 1.1 0.4 0.4
v 1.1 1.4 0.4
v 1.1 1.5 0.4
v 1.2 0.4 0.4
v 1.2 1.4 0.4
v 1.3 0.1 0.4
v 1.3 0.2 0.4
v 1.3 1.7 0.4
v 1.3 1.8 0.4
v 1.3 1.9 0.4
v 1.3 2 0.4
v 1.4 0 0.4
v 1.4 0.1 0.4
v 1.4 0.2 0.4
v 1.4 1.7 0.4
v 1.4 1.9 0.4
v 1.4 2 0.4
v 1.5 0.1 0.4
v 1.5 1.9 0.4
v -1.1 1.9 0.3
v -1.1 2 0.3
v -0.8 1.9 0.3
v -0.8 2 0.3
v 1 1.9 0.3
v 1 2 0.3
v 1.3 1.9 0.3
v 1.3 2 0.3
v -1.1 1.9 -0.2
v -1.1 2 -0.2
v -0.8 1.9 -0.2
v -0.8 2 -0.2
v 1 1.9 -0.2
v 1 2 -0.2
v 1.3 1.9 -0.2
v 1.3 2 -0.2
v -1.3 0.1 -0.3
v -1.3 1.9 -0.3
v -1.2 0 -0.3
v -1.2 0.1 -0.3
v -1.2 0.2 -0.3
v -1.2 1.7 -0.3
v -1.2 1.9 -0.3
v -1.2 2 -0.3
v -1.1 0.1 -0.3
v -1.1 0.2 -0.3
v -1.1 1.7 -0.3
v -1.1 1.8 -0.3
v -1.1 1.9 -0.3
v -1.1 2 -0.3
v -1 0.4 -0.3
v -1 1.4 -0.3
v -0.9 0.3 -0.3
v -0.9 0.4 -0.3
v -0.9 1.4 -0.3
v -0.9 1.5 -0.3
v -0.8 1.9 -0.3
v -0.8 2 -0.3
v -0.7 1.7 -0.3
v -0.7 1.8 -0.3
v -0.7 1.9 -0.3
v -0.7 2 -0.3
v -0.7 2.1 -0.3
v -0.6 1.6 -0.3
v -0.6 1.7 -0.3
v -0.6 1.8 -0.3
v -0.6 1.9 -0.3
v -0.6 2 -0.3
v -0.2 0.8 -0.3
v -0.2 1 -0.3
v 0 0.6 -0.3
v 0 0.8 -0.3
v 0 1 -0.3
v 0 1.2 -0.3
v 0.2 0.6 -0.3
v 0.2 0.8 -0.3
v 0.2 1 -0.3
v 0.2 1.2 -0.3
v 0.4 0.8 -0.3
v 0.4 1 -0.3
v 0.8 1.6 -0.3
v 0.8 1.7 -0.3
v 0.8 1.8 -0.3
v 0.8 1.9 -0.3
v 0.8 2 -0.3
v 0.9 1.7 -0.3
v 0.9 1.8 -0.3
v 0.9 1.9 -0.3
v 0.9 2 -0.3
v 0.9 2.1 -0.3
v 1 1.9 -0.3
v 1 2 -0.3
v 1.1 0.3 -0.3
v 1.1 0.4 -0.3
v 1.1 1.4 -0.3
v 1.1 1.5 -0.3
v 1.2 0.4 -0.3
v 1.2 1.4 -0.3
v 1.3 0.1 -0.3
v 1.3 0.2 -0.3
v 1.3 1.7 -0.3
v 1.3 1.8 -0.3
v 1.3 1.9 -0.3
v 1.3 2 -0.3
v 1.4 0 -0.3
v 1.4 0.1 -0.3
v 1.4 0.2 -0.3
v 1.4 1.7 -0.3
v 1.4 1.9 -0.3
v 1.4 2 -0.3
v 1.5 0.1 -0.3
v 1.5 1.9 -0.3
v -1.2 0 0.4
v 1.4 0 0.4
v -1.1 0 0.3
v 1.3 0 0.3
v -1.1 0 -0.2
v 1.3 0 -0.2
v -1.2 0 -0.3
v 1.4 0 -0.3
v -1.3 0.1 0.4
v -1.2 0.1 0.4
v 1.4 0.1 0.4
v 1.5 0.1 0.4
v -1.3 0.1 -0.3
v -1.2 0.1 -0.3
v 1.4 0.1 -0.3
v 1.5 0.1 -0.3
v -0.7 1.9 0.4
v -0.6 1.9 0.4
v 0.8 1.9 0.4
v 0.9 1.9 0.4
v -0.7 1.9 0.3
v 0.9 1.9 0.3
v -0.7 1.9 -0.2
v 0.9 1.9 -0.2
v -0.7 1.9 -0.3
v -0.6 1.9 -0.3
v 0.8 1.9 -0.3
v 0.9 1.9 -0.3
v -0.6 2 0.4
v 0.8 2 0.4
v -0.6 2 0.3
v 0.8 2 0.3
v -0.6 2 -0.2
v 0.8 2 -0.2
v -0.6 2 -0.3
v 0.8 2 -0.3
v -0.6 1.7 0.4
v 0.8 1.7 0.4
v -0.5 1.7 0.3
v 0.7 1.7 0.3
v -0.5 1.7 -0.2
v 0.7 1.7 -0.2
v -0.6 1.7 -0.3
v 0.8 1.7 -0.3
v -0.7 1.8 0.4
v -0.6 1.8 0.4
v 0.8 1.8 0.4
v 0.9 1.8 0.4
v -0.7 1.8 0.3
v 0.9 1.8 0.3
v -0.7 1.8 -0.2
v 0.9 1.8 -0.2
v -0.7 1.8 -0.3
v -0.6 1.8 -0.3
v 0.8 1.8 -0.3
v 0.9 1.8 -0.3
v -1.3 1.9 0.4
v -1.2 1.9 0.4
v -1.1 1.9 0.4
v -0.8 1.9 0.4
v 1 1.9 0.4
v 1.3 1.9 0.4
v 1.4 1.9 0.4
v 1.5 1.9 0.4
v -1.1 1.9 0.3
v -0.8 1.9 0.3
v 1 1.9 0.3
v 1.3 1.9 0.3
v -1.1 1.9 -0.2
v -0.8 1.9 -0.2
v 1 1.9 -0.2
v 1.3 1.9 -0.2
v -1.3 1.9 -0.3
v -1.2 1.9 -0.3
v -1.1 1.9 -0.3
v -0.8 1.9 -0.3
v 1 1.9 -0.3
v 1.3 1.9 -0.3
v 1.4 1.9 -0.3
v 1.5 1.9 -0.3
v -1.2 2 0.4
v -1.1 2 0.4
v -0.8 2 0.4
v -0.7 2 0.4
v 0.9 2 0.4
v 1 2 0.4
v 1.3 2 0.4
v 1.4 2 0.4
v -1.1 2 0.3
v -0.8 2 0.3
v 1 2 0.3
v 1.3 2 0.3
v -1.1 2 0.2
v -0.8 2 0.2
v 1 2 0.2
v 1.3 2 0.2
v -1.1 2 -0.1
v -0.8 2 -0.1
v 1 2 -0.1
v 1.3 2 -0.1
v -1.1 2 -0.2
v -0.8 2 -0.2
v 1 2 -0.2
v 1.3 2 -0.2
v -1.2 2 -0.3
v -1.1 2 -0.3
v -0.8 2 -0.3
v -0.7 2 -0.3
v 0.9 2 -0.3
v 1 2 -0.3
v 1.3 2 -0.3
v 1.4 2 -0.3
v -0.7 2.1 0.4
v 0.9 2.1 0.4
v -0.6 2.1 0.3
v 0.8 2.1 0.3
v -0.6 2.1 -0.2
v 0.8 2.1 -0.2
v -0.7 2.1 -0.3
v 0.9 2.1 -0.3

# faces
f 3/2/1 2/2/1 1/2/1
f 4/2/1 2/2/1 3/2/1
f 5/2/1 3/2/1 1/2/1
f 5/1/1 4/1/1 3/1/1
f 6/2/1 2/2/1 4/2/1
f 6/1/1 4/1/1 5/1/1
f 7/2/1 5/2/1 1/2/1
f 7/2/1 6/2/1 5/2/1
f 8/2/1 2/2/1 6/2/1
f 8/2/1 6/2/1 7/2/1
f 11/2/1 10/2/1 9/2/1
f 12/2/1 10/2/1 11/2/1
f 15/2/1 14/2/1 13/2/1
f 16/2/1 14/2/1 15/2/1
f 21/2/1 18/2/1 17/2/1
f 22/2/1 18/2/1 21/2/1
f 23/2/1 20/2/1 19/2/1
f 24/2/1 20/2/1 23/2/1
f 27/2/1 26/2/1 25/2/1
f 28/2/1 26/2/1 27/2/1
f 31/2/1 30/2/1 29/2/1
f 32/2/1 30/2/1 31/2/1
f 35/2/1 34/2/1 33/2/1
f 36/2/1 34/2/1 35/2/1
f 37/2/1 34/2/1 36/2/1
f 38/2/1 34/2/1 37/2/1
f 43/2/1 40/2/1 39/2/1
f 44/1/1 41/1/1 40/1/1
f 44/2/1 40/2/1 43/2/1
f 45/2/1 42/2/1 41/2/1
f 45/1/1 41/1/1 44/1/1
f 46/2/1 42/2/1 45/2/1
f 51/2/1 48/2/1 47/2/1
f 52/2/1 48/2/1 51/2/1
f 53/2/1 50/2/1 49/2/1
f 54/2/1 50/2/1 53/2/1
f 55/2/2 56/2/2 59/2/2
f 59/2/2 56/2/2 60/2/2
f 57/2/2 58/2/2 61/2/2
f 61/2/2 58/2/2 62/2/2
f 63/2/2 64/2/2 67/2/2
f 64/1/2 65/1/2 68/1/2
f 67/2/2 64/2/2 68/2/2
f 65/2/2 66/2/2 69/2/2
f 68/1/2 65/1/2 69/1/2
f 69/2/2 66/2/2 70/2/2
f 71/2/2 72/2/2 73/2/2
f 73/2/2 72/2/2 74/2/2
f 75/2/2 76/2/2 77/2/2
f 77/2/2 76/2/2 78/2/2
f 78/2/2 76/2/2 79/2/2
f 79/2/2 76/2/2 80/2/2
f 81/2/2 82/2/2 83/2/2
f 83/2/2 82/2/2 84/2/2
f 85/2/2 86/2/2 89/2/2
f 89/2/2 86/2/2 90/2/2
f 87/2/2 88/2/2 91/2/2
f 91/2/2 88/2/2 92/2/2
f 93/2/2 94/2/2 95/2/2
f 95/2/2 94/2/2 96/2/2
f 97/2/2 98/2/2 99/2/2
f 99/2/2 98/2/2 100/2/2
f 101/2/2 102/2/2 103/2/2
f 103/2/2 102/2/2 104/2/2
f 101/2/2 103/2/2 105/2/2
f 103/1/2 104/1/2 105/1/2
f 104/2/2 102/2/2 106/2/2
f 105/1/2 104/1/2 106/1/2
f 101/2/2 105/2/2 107/2/2
f 105/2/2 106/2/2 107/2/2
f 106/2/2 102/2/2 108/2/2
f 107/2/2 106/2/2 108/2/2
f 112/2/3 110/2/3 109/2/3
f 113/2/3 110/2/3 112/2/3
f 114/2/3 110/2/3 113/2/3
f 115/2/3 110/2/3 114/2/3
f 117/2/3 112/2/3 111/2/3
f 117/2/3 113/2/3 112/2/3
f 118/1/3 114/1/3 113/1/3
f 118/2/3 113/2/3 117/2/3
f 119/2/3 116/2/3 115/2/3
f 119/1/3 114/1/3 118/1/3
f 119/2/3 115/2/3 114/2/3
f 120/2/3 116/2/3 119/2/3
f 121/2/3 116/2/3 120/2/3
f 122/2/3 116/2/3 121/2/3
f 123/1/3 118/1/3 117/1/3
f 123/1/3 119/1/3 118/1/3
f 123/1/3 120/1/3 119/1/3
f 124/1/3 120/1/3 123/1/3
f 125/1/3 123/1/3 117/1/3
f 126/3/3 124/3/3 123/3/3
f 126/1/3 123/1/3 125/1/3
f 127/1/3 120/1/3 124/1/3
f 127/3/3 124/3/3 126/3/3
f 128/1/3 120/1/3 127/1/3
f 129/2/3 121/2/3 120/2/3
f 131/1/3 120/1/3 128/1/3
f 132/2/3 130/2/3 129/2/3
f 132/1/3 120/1/3 131/1/3
f 132/2/3 129/2/3 120/2/3
f 133/2/3 130/2/3 132/2/3
f 134/2/3 130/2/3 133/2/3
f 136/1/3 131/1/3 128/1/3
f 137/2/3 132/2/3 131/2/3
f 137/1/3 131/1/3 136/1/3
f 138/2/3 132/2/3 137/2/3
f 139/2/3 134/2/3 133/2/3
f 139/2/3 135/2/3 134/2/3
f 140/2/3 135/2/3 139/2/3
f 141/3/3 126/3/3 125/3/3
f 141/3/3 127/3/3 126/3/3
f 141/3/3 128/3/3 127/3/3
f 142/3/3 128/3/3 141/3/3
f 143/3/3 141/3/3 125/3/3
f 144/4/3 142/4/3 141/4/3
f 144/3/3 141/3/3 143/3/3
f 145/3/3 128/3/3 142/3/3
f 145/4/3 142/4/3 144/4/3
f 146/3/3 128/3/3 145/3/3
f 147/4/3 144/4/3 143/4/3
f 147/3/3 143/3/3 125/3/3
f 147/4/3 146/4/3 145/4/3
f 147/4/3 145/4/3 144/4/3
f 148/4/3 146/4/3 147/4/3
f 149/4/3 146/4/3 148/4/3
f 150/3/3 128/3/3 146/3/3
f 150/4/3 146/4/3 149/4/3
f 151/4/3 149/4/3 148/4/3
f 151/3/3 148/3/3 147/3/3
f 152/3/3 150/3/3 149/3/3
f 152/4/3 149/4/3 151/4/3
f 153/2/3 137/2/3 136/2/3
f 153/1/3 136/1/3 128/1/3
f 154/2/3 137/2/3 153/2/3
f 157/2/3 135/2/3 140/2/3
f 158/2/3 155/2/3 154/2/3
f 158/1/3 154/1/3 153/1/3
f 159/2/3 155/2/3 158/2/3
f 160/2/3 157/2/3 156/2/3
f 161/2/3 135/2/3 157/2/3
f 161/2/3 157/2/3 160/2/3
f 162/2/3 135/2/3 161/2/3
f 163/2/3 160/2/3 159/2/3
f 163/2/3 161/2/3 160/2/3
f 164/2/3 161/2/3 163/2/3
f 165/1/3 125/1/3 117/1/3
f 165/3/3 152/3/3 151/3/3
f 165/3/3 147/3/3 125/3/3
f 165/3/3 151/3/3 147/3/3
f 166/3/3 152/3/3 165/3/3
f 167/3/3 150/3/3 152/3/3
f 167/3/3 152/3/3 166/3/3
f 167/3/3 128/3/3 150/3/3
f 168/1/3 159/1/3 158/1/3
f 168/3/3 128/3/3 167/3/3
f 168/1/3 158/1/3 153/1/3
f 168/1/3 153/1/3 128/1/3
f 169/3/3 167/3/3 166/3/3
f 169/1/3 166/1/3 165/1/3
f 170/1/3 168/1/3 167/1/3
f 170/3/3 167/3/3 169/3/3
f 171/2/3 117/2/3 111/2/3
f 171/1/3 169/1/3 165/1/3
f 171/1/3 170/1/3 169/1/3
f 171/1/3 165/1/3 117/1/3
f 172/1/3 170/1/3 171/1/3
f 173/1/3 159/1/3 168/1/3
f 173/1/3 170/1/3 172/1/3
f 173/1/3 168/1/3 170/1/3
f 174/2/3 163/2/3 159/2/3
f 174/1/3 159/1/3 173/1/3
f 175/2/3 163/2/3 174/2/3
f 177/2/3 172/2/3 171/2/3
f 177/2/3 171/2/3 111/2/3
f 178/2/3 172/2/3 177/2/3
f 179/1/3 173/1/3 172/1/3
f 179/2/3 172/2/3 178/2/3
f 180/2/3 176/2/3 175/2/3
f 180/1/3 173/1/3 179/1/3
f 180/2/3 175/2/3 174/2/3
f 180/2/3 174/2/3 173/2/3
f 181/2/3 176/2/3 180/2/3
f 182/2/3 176/2/3 181/2/3
f 183/2/3 179/2/3 178/2/3
f 183/2/3 181/2/3 180/2/3
f 183/2/3 180/2/3 179/2/3
f 184/2/3 181/2/3 183/2/3
f 187/2/3 186/2/3 185/2/3
f 188/2/3 186/2/3 187/2/3
f 191/2/3 190/2/3 189/2/3
f 192/2/3 190/2/3 191/2/3
f 193/2/4 194/2/4 195/2/4
f 195/2/4 194/2/4 196/2/4
f 197/2/4 198/2/4 199/2/4
f 199/2/4 198/2/4 200/2/4
f 201/2/4 202/2/4 204/2/4
f 204/2/4 202/2/4 205/2/4
f 205/2/4 202/2/4 206/2/4
f 206/2/4 202/2/4 207/2/4
f 203/2/4 204/2/4 209/2/4
f 204/2/4 205/2/4 209/2/4
f 205/1/4 206/1/4 210/1/4
f 209/2/4 205/2/4 210/2/4
f 207/2/4 208/2/4 211/2/4
f 210/1/4 206/1/4 211/1/4
f 206/2/4 207/2/4 211/2/4
f 211/2/4 208/2/4 212/2/4
f 212/2/4 208/2/4 213/2/4
f 213/2/4 208/2/4 214/2/4
f 209/1/4 210/1/4 215/1/4
f 210/1/4 211/1/4 215/1/4
f 211/1/4 212/1/4 215/1/4
f 215/1/4 212/1/4 216/1/4
f 209/1/4 215/1/4 217/1/4
f 215/3/4 216/3/4 218/3/4
f 217/1/4 215/1/4 218/1/4
f 216/1/4 212/1/4 219/1/4
f 218/3/4 216/3/4 219/3/4
f 219/1/4 212/1/4 220/1/4
f 212/2/4 213/2/4 221/2/4
f 220/1/4 212/1/4 223/1/4
f 221/2/4 222/2/4 224/2/4
f 223/1/4 212/1/4 224/1/4
f 212/2/4 221/2/4 224/2/4
f 224/2/4 222/2/4 225/2/4
f 225/2/4 222/2/4 226/2/4
f 220/1/4 223/1/4 228/1/4
f 223/2/4 224/2/4 229/2/4
f 228/1/4 223/1/4 229/1/4
f 229/2/4 224/2/4 230/2/4
f 225/2/4 226/2/4 231/2/4
f 226/2/4 227/2/4 231/2/4
f 231/2/4 227/2/4 232/2/4
f 217/3/4 218/3/4 233/3/4
f 218/3/4 219/3/4 233/3/4
f 219/3/4 220/3/4 233/3/4
f 233/3/4 220/3/4 234/3/4
f 217/3/4 233/3/4 235/3/4
f 233/4/4 234/4/4 236/4/4
f 235/3/4 233/3/4 236/3/4
f 234/3/4 220/3/4 237/3/4
f 236/4/4 234/4/4 237/4/4
f 237/3/4 220/3/4 238/3/4
f 235/4/4 236/4/4 239/4/4
f 217/3/4 235/3/4 239/3/4
f 237/4/4 238/4/4 239/4/4
f 236/4/4 237/4/4 239/4/4
f 239/4/4 238/4/4 240/4/4
f 240/4/4 238/4/4 241/4/4
f 238/3/4 220/3/4 242/3/4
f 241/4/4 238/4/4 242/4/4
f 240/4/4 241/4/4 243/4/4
f 239/3/4 240/3/4 243/3/4
f 241/3/4 242/3/4 244/3/4
f 243/4/4 241/4/4 244/4/4
f 228/2/4 229/2/4 245/2/4
f 220/1/4 228/1/4 245/1/4
f 245/2/4 229/2/4 246/2/4
f 232/2/4 227/2/4 249/2/4
f 246/2/4 247/2/4 250/2/4
f 245/1/4 246/1/4 250/1/4
f 250/2/4 247/2/4 251/2/4
f 248/2/4 249/2/4 252/2/4
f 249/2/4 227/2/4 253/2/4
f 252/2/4 249/2/4 253/2/4
f 253/2/4 227/2/4 254/2/4
f 251/2/4 252/2/4 255/2/4
f 252/2/4 253/2/4 255/2/4
f 255/2/4 253/2/4 256/2/4
f 209/1/4 217/1/4 257/1/4
f 243/3/4 244/3/4 257/3/4
f 217/3/4 239/3/4 257/3/4
f 239/3/4 243/3/4 257/3/4
f 257/3/4 244/3/4 258/3/4
f 244/3/4 242/3/4 259/3/4
f 258/3/4 244/3/4 259/3/4
f 242/3/4 220/3/4 259/3/4
f 250/1/4 251/1/4 260/1/4
f 259/3/4 220/3/4 260/3/4
f 245/1/4 250/1/4 260/1/4
f 220/1/4 245/1/4 260/1/4
f 258/3/4 259/3/4 261/3/4
f 257/1/4 258/1/4 261/1/4
f 259/1/4 260/1/4 262/1/4
f 261/3/4 259/3/4 262/3/4
f 203/2/4 209/2/4 263/2/4
f 257/1/4 261/1/4 263/1/4
f 261/1/4 262/1/4 263/1/4
f 209/1/4 257/1/4 263/1/4
f 263/1/4 262/1/4 264/1/4
f 260/1/4 251/1/4 265/1/4
f 264/1/4 262/1/4 265/1/4
f 262/1/4 260/1/4 265/1/4
f 251/2/4 255/2/4 266/2/4
f 265/1/4 251/1/4 266/1/4
f 266/2/4 255/2/4 267/2/4
f 263/2/4 264/2/4 269/2/4
f 203/2/4 263/2/4 269/2/4
f 269/2/4 264/2/4 270/2/4
f 264/1/4 265/1/4 271/1/4
f 270/2/4 264/2/4 271/2/4
f 267/2/4 268/2/4 272/2/4
f 271/1/4 265/1/4 272/1/4
f 266/2/4 267/2/4 272/2/4
f 265/2/4 266/2/4 272/2/4
f 272/2/4 268/2/4 273/2/4
f 273/2/4 268/2/4 274/2/4
f 270/2/4 271/2/4 275/2/4
f 272/2/4 273/2/4 275/2/4
f 271/2/4 272/2/4 275/2/4
f 275/2/4 273/2/4 276/2/4
f 279/2/5 278/2/5 277/2/5
f 280/2/5 278/2/5 279/2/5
f 281/2/5 279/2/5 277/2/5
f 281/1/5 280/1/5 279/1/5
f 282/2/5 278/2/5 280/2/5
f 282/1/5 280/1/5 281/1/5
f 283/2/5 281/2/5 277/2/5
f 283/2/5 282/2/5 281/2/5
f 284/2/5 278/2/5 282/2/5
f 284/2/5 282/2/5 283/2/5
f 289/2/5 286/2/5 285/2/5
f 290/2/5 286/2/5 289/2/5
f 291/2/5 288/2/5 287/2/5
f 292/2/5 288/2/5 291/2/5
f 297/2/5 294/2/5 293/2/5
f 298/2/5 296/2/5 295/2/5
f 299/2/5 294/2/5 297/2/5
f 300/2/5 298/2/5 295/2/5
f 301/2/5 294/2/5 299/2/5
f 302/2/5 294/2/5 301/2/5
f 303/2/5 300/2/5 295/2/5
f 304/2/5 300/2/5 303/2/5
f 307/2/5 306/2/5 305/2/5
f 308/2/5 306/2/5 307/2/5
f 309/1/5 308/1/5 307/1/5
f 310/1/5 308/1/5 309/1/5
f 311/2/5 310/2/5 309/2/5
f 312/2/5 310/2/5 311/2/5
f 313/2/6 314/2/6 315/2/6
f 315/2/6 314/2/6 316/2/6
f 313/2/6 315/2/6 317/2/6
f 315/1/6 316/1/6 317/1/6
f 316/2/6 314/2/6 318/2/6
f 317/1/6 316/1/6 318/1/6
f 313/2/6 317/2/6 319/2/6
f 317/2/6 318/2/6 319/2/6
f 318/2/6 314/2/6 320/2/6
f 319/2/6 318/2/6 320/2/6
f 321/2/6 322/2/6 325/2/6
f 323/2/6 324/2/6 326/2/6
f 325/2/6 322/2/6 327/2/6
f 323/2/6 326/2/6 328/2/6
f 327/2/6 322/2/6 329/2/6
f 329/2/6 322/2/6 330/2/6
f 323/2/6 328/2/6 331/2/6
f 331/2/6 328/2/6 332/2/6
f 335/2/6 336/2/6 341/2/6
f 341/2/6 336/2/6 342/2/6
f 337/2/6 338/2/6 343/2/6
f 343/2/6 338/2/6 344/2/6
f 333/2/6 334/2/6 349/2/6
f 349/2/6 334/2/6 350/2/6
f 345/2/6 346/2/6 351/2/6
f 351/2/6 346/2/6 352/2/6
f 347/2/6 348/2/6 353/2/6
f 353/2/6 348/2/6 354/2/6
f 339/2/6 340/2/6 355/2/6
f 355/2/6 340/2/6 356/2/6
f 357/2/6 358/2/6 365/2/6
f 359/2/6 360/2/6 366/2/6
f 361/2/6 362/2/6 367/2/6
f 363/2/6 364/2/6 368/2/6
f 357/2/6 365/2/6 369/2/6
f 365/2/6 366/2/6 369/2/6
f 366/2/6 360/2/6 370/2/6
f 369/2/6 366/2/6 370/2/6
f 361/2/6 367/2/6 371/2/6
f 367/2/6 368/2/6 371/2/6
f 368/2/6 364/2/6 372/2/6
f 371/2/6 368/2/6 372/2/6
f 369/1/6 370/1/6 373/1/6
f 357/2/6 369/2/6 373/2/6
f 370/2/6 360/2/6 374/2/6
f 373/1/6 370/1/6 374/1/6
f 361/2/6 371/2/6 375/2/6
f 371/1/6 372/1/6 375/1/6
f 372/2/6 364/2/6 376/2/6
f 375/1/6 372/1/6 376/1/6
f 357/2/6 373/2/6 377/2/6
f 373/2/6 374/2/6 377/2/6
f 374/2/6 360/2/6 378/2/6
f 377/2/6 374/2/6 378/2/6
f 361/2/6 375/2/6 379/2/6
f 375/2/6 376/2/6 379/2/6
f 376/2/6 364/2/6 380/2/6
f 379/2/6 376/2/6 380/2/6
f 357/2/6 377/2/6 381/2/6
f 381/2/6 377/2/6 382/2/6
f 378/2/6 360/2/6 383/2/6
f 383/2/6 360/2/6 384/2/6
f 361/2/6 379/2/6 385/2/6
f 385/2/6 379/2/6 386/2/6
f 380/2/6 364/2/6 387/2/6
f 387/2/6 364/2/6 388/2/6
f 389/2/6 390/2/6 391/2/6
f 391/2/6 390/2/6 392/2/6
f 389/2/6 391/2/6 393/2/6
f 391/1/6 392/1/6 393/1/6
f 392/2/6 390/2/6 394/2/6
f 393/1/6 392/1/6 394/1/6
f 389/2/6 393/2/6 395/2/6
f 393/2/6 394/2/6 395/2/6
f 394/2/6 390/2/6 396/2/6
f 395/2/6 394/2/6 396/2/6
