# MagicaVoxel @ Ephtracy

# group
o 

# material
mtllib metal ingot.mtl
usemtl palette

# normals
vn -1 0 0
vn 1 0 0
vn 0 0 1
vn 0 0 -1
vn 0 -1 0
vn 0 1 0

# texcoords
vt 0.408203 0.5
vt 0.412109 0.5
vt 0.416016 0.5

# verts
v -0.9 0 1.4
v -0.9 0 -0.8
v -0.9 0.1 1.4
v -0.9 0.1 -0.8
v -0.9 0.2 1.4
v -0.9 0.2 -0.8
v -0.8 0.2 1.3
v -0.8 0.2 -0.7
v -0.8 0.4 1.3
v -0.8 0.4 -0.7
v -0.7 0.4 1.2
v -0.7 0.4 -0.6
v -0.7 0.5 1.2
v -0.7 0.5 -0.6
v -0.1 0.4 1.2
v -0.1 0.4 -0.6
v -0.1 0.5 1.2
v -0.1 0.5 -0.6
v 0 0.2 1.3
v 0 0.2 -0.7
v 0 0.4 1.3
v 0 0.4 -0.7
v 0.1 0 1.4
v 0.1 0 -0.8
v 0.1 0.1 1.4
v 0.1 0.1 -0.8
v 0.1 0.2 1.4
v 0.1 0.2 -0.8
v -0.9 0 1.4
v -0.9 0.1 1.4
v -0.9 0.2 1.4
v 0.1 0 1.4
v 0.1 0.1 1.4
v 0.1 0.2 1.4
v -0.8 0.2 1.3
v -0.8 0.4 1.3
v 0 0.2 1.3
v 0 0.4 1.3
v -0.7 0.4 1.2
v -0.7 0.5 1.2
v -0.1 0.4 1.2
v -0.1 0.5 1.2
v -0.7 0.4 -0.6
v -0.7 0.5 -0.6
v -0.1 0.4 -0.6
v -0.1 0.5 -0.6
v -0.8 0.2 -0.7
v -0.8 0.4 -0.7
v 0 0.2 -0.7
v 0 0.4 -0.7
v -0.9 0 -0.8
v -0.9 0.1 -0.8
v -0.9 0.2 -0.8
v 0.1 0 -0.8
v 0.1 0.1 -0.8
v 0.1 0.2 -0.8
v -0.9 0 1.4
v 0.1 0 1.4
v -0.9 0 -0.8
v 0.1 0 -0.8
v -0.9 0.2 1.4
v 0.1 0.2 1.4
v -0.8 0.2 1.3
v 0 0.2 1.3
v -0.8 0.2 -0.7
v 0 0.2 -0.7
v -0.9 0.2 -0.8
v 0.1 0.2 -0.8
v -0.8 0.4 1.3
v 0 0.4 1.3
v -0.7 0.4 1.2
v -0.1 0.4 1.2
v -0.7 0.4 -0.6
v -0.1 0.4 -0.6
v -0.8 0.4 -0.7
v 0 0.4 -0.7
v -0.7 0.5 1.2
v -0.1 0.5 1.2
v -0.3 0.5 1
v -0.2 0.5 1
v -0.4 0.5 0.9
v -0.3 0.5 0.9
v -0.2 0.5 0.9
v -0.4 0.5 0.8
v -0.3 0.5 0.8
v -0.3 0.5 0
v -0.2 0.5 0
v -0.4 0.5 -0.1
v -0.3 0.5 -0.1
v -0.2 0.5 -0.1
v -0.5 0.5 -0.2
v -0.4 0.5 -0.2
v -0.3 0.5 -0.2
v -0.5 0.5 -0.3
v -0.4 0.5 -0.3
v -0.7 0.5 -0.6
v -0.1 0.5 -0.6

# faces
f 3/2/1 2/2/1 1/2/1
f 4/2/1 2/2/1 3/2/1
f 5/1/1 4/1/1 3/1/1
f 6/1/1 4/1/1 5/1/1
f 9/1/1 8/1/1 7/1/1
f 10/1/1 8/1/1 9/1/1
f 13/1/1 12/1/1 11/1/1
f 14/1/1 12/1/1 13/1/1
f 15/1/2 16/1/2 17/1/2
f 17/1/2 16/1/2 18/1/2
f 19/1/2 20/1/2 21/1/2
f 21/1/2 20/1/2 22/1/2
f 23/2/2 24/2/2 25/2/2
f 25/2/2 24/2/2 26/2/2
f 25/1/2 26/1/2 27/1/2
f 27/1/2 26/1/2 28/1/2
f 32/2/3 30/2/3 29/2/3
f 33/1/3 31/1/3 30/1/3
f 33/2/3 30/2/3 32/2/3
f 34/1/3 31/1/3 33/1/3
f 37/1/3 36/1/3 35/1/3
f 38/1/3 36/1/3 37/1/3
f 41/1/3 40/1/3 39/1/3
f 42/1/3 40/1/3 41/1/3
f 43/1/4 44/1/4 45/1/4
f 45/1/4 44/1/4 46/1/4
f 47/1/4 48/1/4 49/1/4
f 49/1/4 48/1/4 50/1/4
f 51/2/4 52/2/4 54/2/4
f 52/1/4 53/1/4 55/1/4
f 54/2/4 52/2/4 55/2/4
f 55/1/4 53/1/4 56/1/4
f 59/2/5 58/2/5 57/2/5
f 60/2/5 58/2/5 59/2/5
f 61/1/6 62/1/6 63/1/6
f 63/1/6 62/1/6 64/1/6
f 61/1/6 63/1/6 65/1/6
f 64/1/6 62/1/6 66/1/6
f 61/1/6 65/1/6 67/1/6
f 65/1/6 66/1/6 67/1/6
f 66/1/6 62/1/6 68/1/6
f 67/1/6 66/1/6 68/1/6
f 69/1/6 70/1/6 71/1/6
f 71/1/6 70/1/6 72/1/6
f 69/1/6 71/1/6 73/1/6
f 72/1/6 70/1/6 74/1/6
f 69/1/6 73/1/6 75/1/6
f 73/1/6 74/1/6 75/1/6
f 74/1/6 70/1/6 76/1/6
f 75/1/6 74/1/6 76/1/6
f 77/1/6 78/1/6 79/1/6
f 79/1/6 78/1/6 80/1/6
f 77/1/6 79/1/6 81/1/6
f 79/3/6 80/3/6 82/3/6
f 81/1/6 79/1/6 82/1/6
f 80/1/6 78/1/6 83/1/6
f 82/3/6 80/3/6 83/3/6
f 81/3/6 82/3/6 84/3/6
f 77/1/6 81/1/6 84/1/6
f 82/1/6 83/1/6 85/1/6
f 84/3/6 82/3/6 85/3/6
f 84/1/6 85/1/6 86/1/6
f 85/1/6 83/1/6 86/1/6
f 83/1/6 78/1/6 87/1/6
f 86/1/6 83/1/6 87/1/6
f 84/1/6 86/1/6 88/1/6
f 77/1/6 84/1/6 88/1/6
f 86/3/6 87/3/6 89/3/6
f 88/1/6 86/1/6 89/1/6
f 87/1/6 78/1/6 90/1/6
f 89/3/6 87/3/6 90/3/6
f 77/1/6 88/1/6 91/1/6
f 88/3/6 89/3/6 92/3/6
f 91/1/6 88/1/6 92/1/6
f 89/1/6 90/1/6 93/1/6
f 92/3/6 89/3/6 93/3/6
f 77/1/6 91/1/6 94/1/6
f 91/3/6 92/3/6 94/3/6
f 92/1/6 93/1/6 95/1/6
f 94/3/6 92/3/6 95/3/6
f 77/1/6 94/1/6 96/1/6
f 94/1/6 95/1/6 96/1/6
f 93/1/6 90/1/6 97/1/6
f 96/1/6 95/1/6 97/1/6
f 90/1/6 78/1/6 97/1/6
f 95/1/6 93/1/6 97/1/6
