# MagicaVoxel @ Ephtracy

# group
o 

# material
mtllib rag.mtl
usemtl palette

# normals
vn -1 0 0
vn 1 0 0
vn 0 0 1
vn 0 0 -1
vn 0 -1 0
vn 0 1 0

# texcoords
vt 0.0644531 0.5
vt 0.0683594 0.5
vt 0.0722656 0.5
vt 0.0761719 0.5

# verts
v -1.1 0 0.3
v -1.1 0 -0.4
v -1.1 0.1 0.4
v -1.1 0.1 0.3
v -1.1 0.1 0.2
v -1.1 0.1 -0.3
v -1.1 0.1 -0.4
v -1.1 0.2 0.3
v -1.1 0.2 0.2
v -1.1 0.2 0.1
v -1.1 0.2 -0.2
v -1.1 0.2 -0.3
v -1.1 0.2 -0.4
v -1.1 0.3 0.2
v -1.1 0.3 0.1
v -1.1 0.3 -0.2
v -1.1 0.3 -0.3
v -1.1 0.4 -0.1
v -1.1 0.4 -0.2
v -1.1 0.4 -0.3
v -1.1 0.4 -0.4
v -1.1 0.5 0.2
v -1.1 0.5 0.1
v -1.1 0.5 -0.1
v -1.1 0.6 0.3
v -1.1 0.6 0.2
v -1.1 0.6 0.1
v -1.1 0.6 -0.2
v -1.1 0.6 -0.3
v -1.1 0.7 0.4
v -1.1 0.7 0.3
v -1.1 0.7 0.2
v -1.1 0.7 -0.2
v -1.1 0.7 -0.3
v -1.1 0.7 -0.4
v -1.1 0.8 0.3
v -1.1 0.8 -0.3
v 0.3 0 0.3
v 0.3 0 -0.4
v 0.3 0.1 0.4
v 0.3 0.1 0.3
v 0.3 0.1 0.2
v 0.3 0.1 -0.3
v 0.3 0.1 -0.4
v 0.3 0.2 0.3
v 0.3 0.2 0.2
v 0.3 0.2 0.1
v 0.3 0.2 -0.2
v 0.3 0.2 -0.3
v 0.3 0.2 -0.4
v 0.3 0.3 0.2
v 0.3 0.3 0.1
v 0.3 0.3 -0.2
v 0.3 0.3 -0.3
v 0.3 0.4 -0.1
v 0.3 0.4 -0.2
v 0.3 0.4 -0.3
v 0.3 0.5 0.2
v 0.3 0.5 0.1
v 0.3 0.5 -0.1
v 0.3 0.6 0.3
v 0.3 0.6 0.2
v 0.3 0.6 0.1
v 0.3 0.6 -0.2
v 0.3 0.6 -0.3
v 0.3 0.7 0.4
v 0.3 0.7 0.3
v 0.3 0.7 0.2
v 0.3 0.7 -0.2
v 0.3 0.7 -0.3
v 0.3 0.7 -0.4
v 0.3 0.8 0.3
v 0.3 0.8 -0.3
v -1.1 0.1 0.4
v -1.1 0.7 0.4
v 0.3 0.1 0.4
v 0.3 0.7 0.4
v -1.1 0 0.3
v -1.1 0.1 0.3
v -1.1 0.7 0.3
v -1.1 0.8 0.3
v 0.3 0 0.3
v 0.3 0.1 0.3
v 0.3 0.7 0.3
v 0.3 0.8 0.3
v -1.1 0.1 -0.3
v -1.1 0.2 -0.3
v -1.1 0.7 -0.3
v -1.1 0.8 -0.3
v -1 0.2 -0.3
v 0.3 0.1 -0.3
v 0.3 0.2 -0.3
v 0.3 0.7 -0.3
v 0.3 0.8 -0.3
v -1.1 0 -0.4
v -1.1 0.1 -0.4
v -1.1 0.2 -0.4
v -1.1 0.4 -0.4
v -1.1 0.7 -0.4
v -1 0.2 -0.4
v -1 0.4 -0.4
v 0.3 0 -0.4
v 0.3 0.1 -0.4
v 0.3 0.2 -0.4
v 0.3 0.7 -0.4
v -1.1 0 0.3
v 0.3 0 0.3
v -1.1 0 -0.4
v 0.3 0 -0.4
v -1.1 0.1 0.4
v 0.3 0.1 0.4
v -1.1 0.1 0.3
v 0.3 0.1 0.3
v -1.1 0.2 -0.3
v -1 0.2 -0.3
v 0.3 0.2 -0.3
v -1.1 0.2 -0.4
v -1 0.2 -0.4
v 0.3 0.2 -0.4
v -1.1 0.1 -0.3
v 0.3 0.1 -0.3
v -1.1 0.1 -0.4
v 0.3 0.1 -0.4
v -1.1 0.7 0.4
v 0.3 0.7 0.4
v -1.1 0.7 0.3
v 0.3 0.7 0.3
v -1.1 0.7 -0.3
v 0.3 0.7 -0.3
v -1.1 0.7 -0.4
v 0.3 0.7 -0.4
v -1.1 0.8 0.3
v 0.3 0.8 0.3
v -1.1 0.8 -0.3
v 0.3 0.8 -0.3

# faces
f 4/1/1 2/1/1 1/1/1
f 5/1/1 2/1/1 4/1/1
f 6/1/1 2/1/1 5/1/1
f 7/1/1 2/1/1 6/1/1
f 8/1/1 4/1/1 3/1/1
f 8/1/1 5/1/1 4/1/1
f 9/2/1 6/2/1 5/2/1
f 9/1/1 5/1/1 8/1/1
f 10/2/1 6/2/1 9/2/1
f 11/2/1 6/2/1 10/2/1
f 12/2/1 6/2/1 11/2/1
f 14/2/1 9/2/1 8/2/1
f 14/2/1 10/2/1 9/2/1
f 15/3/1 11/3/1 10/3/1
f 15/2/1 10/2/1 14/2/1
f 16/2/1 13/2/1 12/2/1
f 16/3/1 11/3/1 15/3/1
f 16/2/1 12/2/1 11/2/1
f 17/2/1 13/2/1 16/2/1
f 18/4/1 16/4/1 15/4/1
f 19/3/1 17/3/1 16/3/1
f 19/4/1 16/4/1 18/4/1
f 20/2/1 13/2/1 17/2/1
f 20/3/1 17/3/1 19/3/1
f 21/2/1 13/2/1 20/2/1
f 22/3/1 15/3/1 14/3/1
f 22/2/1 14/2/1 8/2/1
f 23/4/1 18/4/1 15/4/1
f 23/3/1 15/3/1 22/3/1
f 24/3/1 19/3/1 18/3/1
f 24/4/1 18/4/1 23/4/1
f 25/1/1 8/1/1 3/1/1
f 25/2/1 23/2/1 22/2/1
f 25/2/1 22/2/1 8/2/1
f 26/2/1 23/2/1 25/2/1
f 27/3/1 24/3/1 23/3/1
f 27/2/1 23/2/1 26/2/1
f 28/3/1 19/3/1 24/3/1
f 28/3/1 24/3/1 27/3/1
f 28/2/1 20/2/1 19/2/1
f 29/1/1 21/1/1 20/1/1
f 29/2/1 20/2/1 28/2/1
f 30/1/1 26/1/1 25/1/1
f 30/1/1 25/1/1 3/1/1
f 31/1/1 26/1/1 30/1/1
f 32/2/1 27/2/1 26/2/1
f 32/1/1 26/1/1 31/1/1
f 32/2/1 28/2/1 27/2/1
f 33/1/1 29/1/1 28/1/1
f 33/2/1 28/2/1 32/2/1
f 34/1/1 21/1/1 29/1/1
f 34/1/1 29/1/1 33/1/1
f 35/1/1 21/1/1 34/1/1
f 36/1/1 33/1/1 32/1/1
f 36/1/1 34/1/1 33/1/1
f 36/1/1 32/1/1 31/1/1
f 37/1/1 34/1/1 36/1/1
f 38/1/2 39/1/2 41/1/2
f 41/1/2 39/1/2 42/1/2
f 42/1/2 39/1/2 43/1/2
f 43/1/2 39/1/2 44/1/2
f 40/1/2 41/1/2 45/1/2
f 41/1/2 42/1/2 45/1/2
f 42/2/2 43/2/2 46/2/2
f 45/1/2 42/1/2 46/1/2
f 46/2/2 43/2/2 47/2/2
f 47/2/2 43/2/2 48/2/2
f 48/2/2 43/2/2 49/2/2
f 45/2/2 46/2/2 51/2/2
f 46/2/2 47/2/2 51/2/2
f 47/3/2 48/3/2 52/3/2
f 51/2/2 47/2/2 52/2/2
f 48/2/2 49/2/2 53/2/2
f 52/3/2 48/3/2 53/3/2
f 49/1/2 50/1/2 54/1/2
f 53/2/2 49/2/2 54/2/2
f 52/4/2 53/4/2 55/4/2
f 53/3/2 54/3/2 56/3/2
f 55/4/2 53/4/2 56/4/2
f 54/1/2 50/1/2 57/1/2
f 56/3/2 54/3/2 57/3/2
f 51/3/2 52/3/2 58/3/2
f 45/2/2 51/2/2 58/2/2
f 52/4/2 55/4/2 59/4/2
f 58/3/2 52/3/2 59/3/2
f 55/3/2 56/3/2 60/3/2
f 59/4/2 55/4/2 60/4/2
f 40/1/2 45/1/2 61/1/2
f 58/2/2 59/2/2 61/2/2
f 45/2/2 58/2/2 61/2/2
f 61/2/2 59/2/2 62/2/2
f 59/3/2 60/3/2 63/3/2
f 62/2/2 59/2/2 63/2/2
f 60/3/2 56/3/2 64/3/2
f 63/3/2 60/3/2 64/3/2
f 56/2/2 57/2/2 64/2/2
f 57/1/2 50/1/2 65/1/2
f 64/2/2 57/2/2 65/2/2
f 61/1/2 62/1/2 66/1/2
f 40/1/2 61/1/2 66/1/2
f 66/1/2 62/1/2 67/1/2
f 62/2/2 63/2/2 68/2/2
f 67/1/2 62/1/2 68/1/2
f 63/2/2 64/2/2 68/2/2
f 64/1/2 65/1/2 69/1/2
f 68/2/2 64/2/2 69/2/2
f 65/1/2 50/1/2 70/1/2
f 69/1/2 65/1/2 70/1/2
f 70/1/2 50/1/2 71/1/2
f 68/1/2 69/1/2 72/1/2
f 69/1/2 70/1/2 72/1/2
f 67/1/2 68/1/2 72/1/2
f 72/1/2 70/1/2 73/1/2
f 76/1/3 75/1/3 74/1/3
f 77/1/3 75/1/3 76/1/3
f 82/1/3 79/1/3 78/1/3
f 83/1/3 79/1/3 82/1/3
f 84/1/3 81/1/3 80/1/3
f 85/1/3 81/1/3 84/1/3
f 86/2/4 87/2/4 90/2/4
f 86/2/4 90/2/4 91/2/4
f 91/2/4 90/2/4 92/2/4
f 88/1/4 89/1/4 93/1/4
f 93/1/4 89/1/4 94/1/4
f 97/2/4 98/2/4 100/2/4
f 98/1/4 99/1/4 101/1/4
f 100/2/4 98/2/4 101/2/4
f 95/1/4 96/1/4 102/1/4
f 102/1/4 96/1/4 103/1/4
f 100/1/4 101/1/4 104/1/4
f 101/1/4 99/1/4 105/1/4
f 104/1/4 101/1/4 105/1/4
f 108/1/5 107/1/5 106/1/5
f 109/1/5 107/1/5 108/1/5
f 112/1/5 111/1/5 110/1/5
f 113/1/5 111/1/5 112/1/5
f 117/2/5 115/2/5 114/2/5
f 118/1/5 116/1/5 115/1/5
f 118/2/5 115/2/5 117/2/5
f 119/1/5 116/1/5 118/1/5
f 120/1/6 121/1/6 122/1/6
f 122/1/6 121/1/6 123/1/6
f 124/1/6 125/1/6 126/1/6
f 126/1/6 125/1/6 127/1/6
f 128/1/6 129/1/6 130/1/6
f 130/1/6 129/1/6 131/1/6
f 132/1/6 133/1/6 134/1/6
f 134/1/6 133/1/6 135/1/6
