# MagicaVoxel @ Ephtracy

# group
o 

# material
mtllib DESK1.mtl
usemtl palette

# normals
vn -1 0 0
vn 1 0 0
vn 0 0 1
vn 0 0 -1
vn 0 -1 0
vn 0 1 0

# texcoords
vt 0.376953 0.5
vt 0.439453 0.5
vt 0.443359 0.5
vt 0.447266 0.5
vt 0.666016 0.5
vt 0.669922 0.5

# verts
v -1.8 2 1.3
v -1.8 2 -0.3
v -1.8 2.1 1.3
v -1.8 2.1 -0.3
v -1.7 0.3 1.3
v -1.7 0.3 -0.3
v -1.7 0.4 1.2
v -1.7 0.4 -0.2
v -1.7 1.9 1.2
v -1.7 1.9 -0.2
v -1.7 2 1.4
v -1.7 2 1.3
v -1.7 2 -0.3
v -1.7 2 -0.4
v -1.7 2.1 1.4
v -1.7 2.1 1.3
v -1.7 2.1 -0.3
v -1.7 2.1 -0.4
v -1.7 2.2 1.3
v -1.7 2.2 -0.3
v -1.6 0.3 1.4
v -1.6 0.3 1.3
v -1.6 0.3 -0.3
v -1.6 0.3 -0.4
v -1.6 0.4 1.2
v -1.6 0.4 -0.2
v -1.6 1.9 1.2
v -1.6 1.9 -0.2
v -1.6 2 1.5
v -1.6 2 1.4
v -1.6 2 1.3
v -1.6 2 -0.3
v -1.6 2 -0.4
v -1.6 2 -0.5
v -1.6 2.1 1.5
v -1.6 2.1 1.4
v -1.6 2.1 1.3
v -1.6 2.1 -0.3
v -1.6 2.1 -0.4
v -1.6 2.1 -0.5
v -1.6 2.2 1.4
v -1.6 2.2 1.3
v -1.6 2.2 -0.3
v -1.6 2.2 -0.4
v -1.4 0.2 1.2
v -1.4 0.2 0.9
v -1.4 0.2 0.2
v -1.4 0.2 -0.1
v -1.4 0.3 1.2
v -1.4 0.3 0.9
v -1.4 0.3 0.2
v -1.4 0.3 -0.1
v 0.6 0.4 0.7
v 0.6 0.4 0.6
v 0.6 1.6 0.7
v 0.6 1.6 0.6
v 0.7 0.3 1.4
v 0.7 0.3 0.7
v 0.7 0.4 1.3
v 0.7 0.4 0.7
v 0.7 1.6 1.4
v 0.7 1.6 1.3
v 0.7 1.6 0.7
v 1.1 0.2 1.1
v 1.1 0.2 0.8
v 1.1 0.2 0.2
v 1.1 0.2 -0.1
v 1.1 0.3 1.1
v 1.1 0.3 0.8
v 1.1 0.3 0.2
v 1.1 0.3 -0.1
v 1.1 0.4 1.4
v 1.1 0.4 1.3
v 1.1 0.5 1.4
v 1.1 0.5 1.3
v 1.1 0.8 1.4
v 1.1 0.8 1.3
v 1.1 0.9 1.4
v 1.1 0.9 1.3
v 1.1 1.3 1.4
v 1.1 1.3 1.3
v 1.1 1.4 1.4
v 1.1 1.4 1.3
v 1.5 0.4 1.4
v 1.5 0.4 1.3
v 1.5 0.4 -0.3
v 1.5 0.4 -0.4
v 1.5 0.6 1.4
v 1.5 0.6 1.3
v 1.5 0.7 1.4
v 1.5 0.7 1.3
v 1.5 1.1 1.4
v 1.5 1.1 1.3
v 1.5 1.2 1.4
v 1.5 1.2 1.3
v 1.5 1.6 1.4
v 1.5 1.6 1.3
v 1.5 1.9 -0.3
v 1.5 1.9 -0.4
v 1.6 2 1.3
v 1.6 2 1.2
v 1.6 2 -0.2
v 1.6 2 -0.3
v 1.6 2.1 1.3
v 1.6 2.1 -0.2
v 1.6 2.1 -0.3
v -1.6 2 1.3
v -1.6 2 1.2
v -1.6 2 -0.2
v -1.6 2 -0.3
v -1.6 2.1 1.3
v -1.6 2.1 -0.3
v -1.5 0.4 -0.3
v -1.5 0.4 -0.4
v -1.5 1.9 -0.3
v -1.5 1.9 -0.4
v -1.2 0.4 1.2
v -1.2 0.4 0.8
v -1.2 1.6 1.2
v -1.2 1.6 0.8
v -1.1 0.2 1.2
v -1.1 0.2 0.9
v -1.1 0.2 0.2
v -1.1 0.2 -0.1
v -1.1 0.3 1.4
v -1.1 0.3 1.2
v -1.1 0.3 0.9
v -1.1 0.3 0.7
v -1.1 0.3 0.2
v -1.1 0.3 -0.1
v -1.1 0.4 1.2
v -1.1 0.4 0.8
v -1.1 1.6 1.4
v -1.1 1.6 1.2
v -1.1 1.6 0.8
v -1.1 1.6 0.7
v -1 0.4 0.7
v -1 0.4 0.6
v -1 1.6 0.7
v -1 1.6 0.6
v 0.8 0.4 1.4
v 0.8 0.4 1.3
v 0.8 0.6 1.4
v 0.8 0.6 1.3
v 0.8 0.7 1.4
v 0.8 0.7 1.3
v 0.8 1.1 1.4
v 0.8 1.1 1.3
v 0.8 1.2 1.4
v 0.8 1.2 1.3
v 0.8 1.6 1.4
v 0.8 1.6 1.3
v 1.2 0.4 1.4
v 1.2 0.4 1.3
v 1.2 0.5 1.4
v 1.2 0.5 1.3
v 1.2 0.8 1.4
v 1.2 0.8 1.3
v 1.2 0.9 1.4
v 1.2 0.9 1.3
v 1.2 1.3 1.4
v 1.2 1.3 1.3
v 1.2 1.4 1.4
v 1.2 1.4 1.3
v 1.4 0.2 1.1
v 1.4 0.2 0.8
v 1.4 0.2 0.2
v 1.4 0.2 -0.1
v 1.4 0.3 1.1
v 1.4 0.3 0.8
v 1.4 0.3 0.2
v 1.4 0.3 -0.1
v 1.6 0.3 1.4
v 1.6 0.3 1.3
v 1.6 0.3 -0.3
v 1.6 0.3 -0.4
v 1.6 0.4 1.2
v 1.6 0.4 -0.2
v 1.6 1.9 1.2
v 1.6 1.9 -0.2
v 1.6 2 1.5
v 1.6 2 1.4
v 1.6 2 1.3
v 1.6 2 -0.3
v 1.6 2 -0.4
v 1.6 2 -0.5
v 1.6 2.1 1.5
v 1.6 2.1 1.4
v 1.6 2.1 1.3
v 1.6 2.1 -0.3
v 1.6 2.1 -0.4
v 1.6 2.1 -0.5
v 1.6 2.2 1.4
v 1.6 2.2 1.3
v 1.6 2.2 -0.3
v 1.6 2.2 -0.4
v 1.7 0.3 1.3
v 1.7 0.3 -0.3
v 1.7 0.4 1.2
v 1.7 0.4 -0.2
v 1.7 1.9 1.2
v 1.7 1.9 -0.2
v 1.7 2 1.4
v 1.7 2 1.3
v 1.7 2 -0.3
v 1.7 2 -0.4
v 1.7 2.1 1.4
v 1.7 2.1 1.3
v 1.7 2.1 -0.3
v 1.7 2.1 -0.4
v 1.7 2.2 1.3
v 1.7 2.2 -0.3
v 1.8 2 1.3
v 1.8 2 -0.3
v 1.8 2.1 1.3
v 1.8 2.1 -0.3
v -1.6 2 1.5
v -1.6 2.1 1.5
v 1.6 2 1.5
v 1.6 2.1 1.5
v -1.7 2 1.4
v -1.7 2.1 1.4
v -1.6 0.3 1.4
v -1.6 2 1.4
v -1.6 2.1 1.4
v -1.6 2.2 1.4
v -1.5 0.4 1.4
v -1.5 1.9 1.4
v -1.2 0.4 1.4
v -1.2 1.7 1.4
v -1.1 0.3 1.4
v -1.1 1.6 1.4
v 0.7 0.3 1.4
v 0.7 1.6 1.4
v 0.8 0.4 1.4
v 0.8 0.6 1.4
v 0.8 0.7 1.4
v 0.8 1.1 1.4
v 0.8 1.2 1.4
v 0.8 1.6 1.4
v 1.1 0.4 1.4
v 1.1 0.5 1.4
v 1.1 0.8 1.4
v 1.1 0.9 1.4
v 1.1 1.3 1.4
v 1.1 1.4 1.4
v 1.2 0.4 1.4
v 1.2 0.5 1.4
v 1.2 0.8 1.4
v 1.2 0.9 1.4
v 1.2 1.3 1.4
v 1.2 1.4 1.4
v 1.5 0.4 1.4
v 1.5 0.6 1.4
v 1.5 0.7 1.4
v 1.5 1.1 1.4
v 1.5 1.2 1.4
v 1.5 1.6 1.4
v 1.5 1.7 1.4
v 1.5 1.9 1.4
v 1.6 0.3 1.4
v 1.6 2 1.4
v 1.6 2.1 1.4
v 1.6 2.2 1.4
v 1.7 2 1.4
v 1.7 2.1 1.4
v -1.8 2 1.3
v -1.8 2.1 1.3
v -1.7 0.3 1.3
v -1.7 2 1.3
v -1.7 2.1 1.3
v -1.7 2.2 1.3
v -1.6 0.3 1.3
v -1.6 2 1.3
v -1.6 2.1 1.3
v -1.6 2.2 1.3
v 0.8 0.4 1.3
v 0.8 0.6 1.3
v 0.8 0.7 1.3
v 0.8 1.1 1.3
v 0.8 1.2 1.3
v 0.8 1.6 1.3
v 1.1 0.4 1.3
v 1.1 0.5 1.3
v 1.1 0.8 1.3
v 1.1 0.9 1.3
v 1.1 1.3 1.3
v 1.1 1.4 1.3
v 1.2 0.4 1.3
v 1.2 0.5 1.3
v 1.2 0.8 1.3
v 1.2 0.9 1.3
v 1.2 1.3 1.3
v 1.2 1.4 1.3
v 1.5 0.4 1.3
v 1.5 0.6 1.3
v 1.5 0.7 1.3
v 1.5 1.1 1.3
v 1.5 1.2 1.3
v 1.5 1.6 1.3
v 1.6 0.3 1.3
v 1.6 2 1.3
v 1.6 2.1 1.3
v 1.6 2.2 1.3
v 1.7 0.3 1.3
v 1.7 2 1.3
v 1.7 2.1 1.3
v 1.7 2.2 1.3
v 1.8 2 1.3
v 1.8 2.1 1.3
v -1.4 0.2 1.2
v -1.4 0.3 1.2
v -1.1 0.2 1.2
v -1.1 0.3 1.2
v 1.1 0.2 1.1
v 1.1 0.3 1.1
v 1.4 0.2 1.1
v 1.4 0.3 1.1
v -1.2 0.4 0.8
v -1.2 1.6 0.8
v -1.1 0.4 0.8
v -1.1 1.6 0.8
v -1.1 0.3 0.7
v -1.1 1.6 0.7
v -1 0.4 0.7
v -1 1.6 0.7
v 0.6 0.4 0.7
v 0.6 1.6 0.7
v 0.7 0.3 0.7
v 0.7 0.4 0.7
v 0.7 1.6 0.7
v -1 0.4 0.6
v -1 1.6 0.6
v 0.6 0.4 0.6
v 0.6 1.6 0.6
v -1.4 0.2 0.2
v -1.4 0.3 0.2
v -1.1 0.2 0.2
v -1.1 0.3 0.2
v 1.1 0.2 0.2
v 1.1 0.3 0.2
v 1.4 0.2 0.2
v 1.4 0.3 0.2
v -1.7 0.4 -0.2
v -1.7 1.9 -0.2
v -1.6 0.4 -0.2
v -1.6 1.9 -0.2
v 1.6 0.4 -0.2
v 1.6 1.9 -0.2
v 1.7 0.4 -0.2
v 1.7 1.9 -0.2
v -1.6 2 -0.3
v -1.6 2.1 -0.3
v -1.5 2 -0.3
v 1.5 2 -0.3
v 1.6 2 -0.3
v 1.6 2.1 -0.3
v -1.6 2 1.3
v -1.6 2.1 1.3
v 1.6 2 1.3
v 1.6 2.1 1.3
v -1.7 0.4 1.2
v -1.7 1.9 1.2
v -1.6 0.4 1.2
v -1.6 1.9 1.2
v -1.2 0.4 1.2
v -1.2 1.6 1.2
v -1.1 0.4 1.2
v -1.1 1.6 1.2
v 1.6 0.4 1.2
v 1.6 1.9 1.2
v 1.7 0.4 1.2
v 1.7 1.9 1.2
v -1.4 0.2 0.9
v -1.4 0.3 0.9
v -1.2 0.3 0.9
v -1.1 0.2 0.9
v -1.1 0.3 0.9
v 1.1 0.2 0.8
v 1.1 0.3 0.8
v 1.4 0.2 0.8
v 1.4 0.3 0.8
v -1.4 0.2 -0.1
v -1.4 0.3 -0.1
v -1.1 0.2 -0.1
v -1.1 0.3 -0.1
v 1.1 0.2 -0.1
v 1.1 0.3 -0.1
v 1.4 0.2 -0.1
v 1.4 0.3 -0.1
v -1.8 2 -0.3
v -1.8 2.1 -0.3
v -1.7 0.3 -0.3
v -1.7 2 -0.3
v -1.7 2.1 -0.3
v -1.7 2.2 -0.3
v -1.6 0.3 -0.3
v -1.6 2 -0.3
v -1.6 2.1 -0.3
v -1.6 2.2 -0.3
v -1.5 0.4 -0.3
v -1.5 1.9 -0.3
v 1.5 0.4 -0.3
v 1.5 1.9 -0.3
v 1.6 0.3 -0.3
v 1.6 2 -0.3
v 1.6 2.1 -0.3
v 1.6 2.2 -0.3
v 1.7 0.3 -0.3
v 1.7 2 -0.3
v 1.7 2.1 -0.3
v 1.7 2.2 -0.3
v 1.8 2 -0.3
v 1.8 2.1 -0.3
v -1.7 2 -0.4
v -1.7 2.1 -0.4
v -1.6 0.3 -0.4
v -1.6 2 -0.4
v -1.6 2.1 -0.4
v -1.6 2.2 -0.4
v -1.5 0.4 -0.4
v -1.5 1.9 -0.4
v 1.5 0.4 -0.4
v 1.5 1.9 -0.4
v 1.6 0.3 -0.4
v 1.6 2 -0.4
v 1.6 2.1 -0.4
v 1.6 2.2 -0.4
v 1.7 2 -0.4
v 1.7 2.1 -0.4
v -1.6 2 -0.5
v -1.6 2.1 -0.5
v 1.6 2 -0.5
v 1.6 2.1 -0.5
v -1.4 0.2 1.2
v -1.1 0.2 1.2
v 1.1 0.2 1.1
v 1.4 0.2 1.1
v -1.4 0.2 0.9
v -1.1 0.2 0.9
v 1.1 0.2 0.8
v 1.4 0.2 0.8
v -1.4 0.2 0.2
v -1.1 0.2 0.2
v 1.1 0.2 0.2
v 1.4 0.2 0.2
v -1.4 0.2 -0.1
v -1.1 0.2 -0.1
v 1.1 0.2 -0.1
v 1.4 0.2 -0.1
v -1.6 0.3 1.4
v -1.1 0.3 1.4
v 0.7 0.3 1.4
v 1.6 0.3 1.4
v -1.7 0.3 1.3
v -1.6 0.3 1.3
v 1.6 0.3 1.3
v 1.7 0.3 1.3
v -1.5 0.3 1.2
v -1.4 0.3 1.2
v -1.1 0.3 1.2
v 0.8 0.3 1.2
v 1.5 0.3 1.2
v 1.1 0.3 1.1
v 1.4 0.3 1.1
v -1.4 0.3 0.9
v -1.2 0.3 0.9
v -1.1 0.3 0.9
v 1.1 0.3 0.8
v 1.4 0.3 0.8
v -1.1 0.3 0.7
v 0.7 0.3 0.7
v -1.2 0.3 0.6
v 0.8 0.3 0.6
v -1.4 0.3 0.2
v -1.1 0.3 0.2
v 1.1 0.3 0.2
v 1.4 0.3 0.2
v -1.4 0.3 -0.1
v -1.1 0.3 -0.1
v 1.1 0.3 -0.1
v 1.4 0.3 -0.1
v -1.5 0.3 -0.2
v 1.5 0.3 -0.2
v -1.7 0.3 -0.3
v -1.6 0.3 -0.3
v 1.6 0.3 -0.3
v 1.7 0.3 -0.3
v -1.6 0.3 -0.4
v 1.6 0.3 -0.4
v 0.8 0.6 1.4
v 1.5 0.6 1.4
v 0.8 0.6 1.3
v 1.5 0.6 1.3
v 1.1 0.8 1.4
v 1.2 0.8 1.4
v 1.1 0.8 1.3
v 1.2 0.8 1.3
v 0.8 1.1 1.4
v 1.5 1.1 1.4
v 0.8 1.1 1.3
v 1.5 1.1 1.3
v 1.1 1.3 1.4
v 1.2 1.3 1.4
v 1.1 1.3 1.3
v 1.2 1.3 1.3
v -1.1 1.6 1.4
v 0.7 1.6 1.4
v 0.8 1.6 1.4
v 1.5 1.6 1.4
v 0.7 1.6 1.3
v 0.8 1.6 1.3
v 1.5 1.6 1.3
v -1.2 1.6 1.2
v -1.1 1.6 1.2
v -1 1.6 1.2
v 0.6 1.6 1.2
v -1.2 1.6 0.8
v -1.1 1.6 0.8
v -1 1.6 0.8
v 0.6 1.6 0.8
v -1.1 1.6 0.7
v -1 1.6 0.7
v 0.6 1.6 0.7
v 0.7 1.6 0.7
v -1 1.6 0.6
v 0.6 1.6 0.6
v -1.7 1.9 1.2
v -1.6 1.9 1.2
v 1.6 1.9 1.2
v 1.7 1.9 1.2
v -1.7 1.9 -0.2
v -1.6 1.9 -0.2
v 1.6 1.9 -0.2
v 1.7 1.9 -0.2
v -1.5 1.9 -0.3
v 1.5 1.9 -0.3
v -1.5 1.9 -0.4
v 1.5 1.9 -0.4
v -1.6 2 1.5
v 1.6 2 1.5
v -1.7 2 1.4
v -1.6 2 1.4
v 1.6 2 1.4
v 1.7 2 1.4
v -1.8 2 1.3
v -1.7 2 1.3
v -1.6 2 1.3
v 1.6 2 1.3
v 1.7 2 1.3
v 1.8 2 1.3
v -1.8 2 -0.3
v -1.7 2 -0.3
v -1.6 2 -0.3
v 1.6 2 -0.3
v 1.7 2 -0.3
v 1.8 2 -0.3
v -1.7 2 -0.4
v -1.6 2 -0.4
v 1.6 2 -0.4
v 1.7 2 -0.4
v -1.6 2 -0.5
v 1.6 2 -0.5
v -1.6 2.1 1.3
v 1.6 2.1 1.3
v 1.6 2.1 -0.2
v -1.6 2.1 -0.3
v 1.6 2.1 -0.3
v 0.8 0.4 1.4
v 1.1 0.4 1.4
v 1.2 0.4 1.4
v 1.5 0.4 1.4
v 0.8 0.4 1.3
v 1.1 0.4 1.3
v 1.2 0.4 1.3
v 1.5 0.4 1.3
v -1.7 0.4 1.2
v -1.6 0.4 1.2
v -1.2 0.4 1.2
v -1.1 0.4 1.2
v 1.6 0.4 1.2
v 1.7 0.4 1.2
v -1.2 0.4 0.8
v -1.1 0.4 0.8
v -1 0.4 0.7
v 0.6 0.4 0.7
v -1 0.4 0.6
v 0.6 0.4 0.6
v -1.7 0.4 -0.2
v -1.6 0.4 -0.2
v 1.6 0.4 -0.2
v 1.7 0.4 -0.2
v -1.5 0.4 -0.3
v 1.5 0.4 -0.3
v -1.5 0.4 -0.4
v 1.5 0.4 -0.4
v 1.1 0.5 1.4
v 1.2 0.5 1.4
v 1.1 0.5 1.3
v 1.2 0.5 1.3
v 0.8 0.7 1.4
v 1.5 0.7 1.4
v 0.8 0.7 1.3
v 1.5 0.7 1.3
v 1.1 0.9 1.4
v 1.2 0.9 1.4
v 1.1 0.9 1.3
v 1.2 0.9 1.3
v 0.8 1.2 1.4
v 1.5 1.2 1.4
v 0.8 1.2 1.3
v 1.5 1.2 1.3
v 1.1 1.4 1.4
v 1.2 1.4 1.4
v 1.1 1.4 1.3
v 1.2 1.4 1.3
v -1.6 2 1.3
v 1.6 2 1.3
v -1.6 2 1.2
v 1.6 2 1.2
v -1.6 2 -0.2
v -1.5 2 -0.2
v 1.5 2 -0.2
v 1.6 2 -0.2
v -1.6 2 -0.3
v -1.5 2 -0.3
v 1.5 2 -0.3
v 1.6 2 -0.3
v -1.6 2.1 1.5
v 1.6 2.1 1.5
v -1.7 2.1 1.4
v -1.6 2.1 1.4
v 1.6 2.1 1.4
v 1.7 2.1 1.4
v -1.8 2.1 1.3
v -1.7 2.1 1.3
v -1.6 2.1 1.3
v 1.6 2.1 1.3
v 1.7 2.1 1.3
v 1.8 2.1 1.3
v -1.8 2.1 -0.3
v -1.7 2.1 -0.3
v -1.6 2.1 -0.3
v 1.6 2.1 -0.3
v 1.7 2.1 -0.3
v 1.8 2.1 -0.3
v -1.7 2.1 -0.4
v -1.6 2.1 -0.4
v 1.6 2.1 -0.4
v 1.7 2.1 -0.4
v -1.6 2.1 -0.5
v 1.6 2.1 -0.5
v -1.6 2.2 1.4
v 1.6 2.2 1.4
v -1.7 2.2 1.3
v -1.6 2.2 1.3
v 1.6 2.2 1.3
v 1.7 2.2 1.3
v -1.7 2.2 -0.3
v -1.6 2.2 -0.3
v 1.6 2.2 -0.3
v 1.7 2.2 -0.3
v -1.6 2.2 -0.4
v 1.6 2.2 -0.4

# faces
f 3/3/1 2/3/1 1/3/1
f 4/3/1 2/3/1 3/3/1
f 7/3/1 6/3/1 5/3/1
f 8/3/1 6/3/1 7/3/1
f 9/3/1 7/3/1 5/3/1
f 10/3/1 6/3/1 8/3/1
f 12/3/1 9/3/1 5/3/1
f 12/3/1 10/3/1 9/3/1
f 13/3/1 6/3/1 10/3/1
f 13/3/1 10/3/1 12/3/1
f 15/3/1 12/3/1 11/3/1
f 16/3/1 12/3/1 15/3/1
f 17/3/1 14/3/1 13/3/1
f 18/3/1 14/3/1 17/3/1
f 19/3/1 17/3/1 16/3/1
f 20/3/1 17/3/1 19/3/1
f 27/2/1 26/2/1 25/2/1
f 28/2/1 26/2/1 27/2/1
f 30/3/1 22/3/1 21/3/1
f 31/3/1 22/3/1 30/3/1
f 32/3/1 24/3/1 23/3/1
f 33/3/1 24/3/1 32/3/1
f 35/3/1 30/3/1 29/3/1
f 36/3/1 30/3/1 35/3/1
f 39/3/1 34/3/1 33/3/1
f 40/3/1 34/3/1 39/3/1
f 41/3/1 37/3/1 36/3/1
f 42/3/1 37/3/1 41/3/1
f 43/3/1 39/3/1 38/3/1
f 44/3/1 39/3/1 43/3/1
f 49/3/1 46/3/1 45/3/1
f 50/3/1 46/3/1 49/3/1
f 51/3/1 48/3/1 47/3/1
f 52/3/1 48/3/1 51/3/1
f 55/3/1 54/3/1 53/3/1
f 56/3/1 54/3/1 55/3/1
f 59/3/1 58/3/1 57/3/1
f 60/3/1 58/3/1 59/3/1
f 61/3/1 59/3/1 57/3/1
f 62/2/1 60/2/1 59/2/1
f 62/3/1 59/3/1 61/3/1
f 63/2/1 60/2/1 62/2/1
f 68/3/1 65/3/1 64/3/1
f 69/3/1 65/3/1 68/3/1
f 70/3/1 67/3/1 66/3/1
f 71/3/1 67/3/1 70/3/1
f 74/1/1 73/1/1 72/1/1
f 75/1/1 73/1/1 74/1/1
f 78/1/1 77/1/1 76/1/1
f 79/1/1 77/1/1 78/1/1
f 82/1/1 81/1/1 80/1/1
f 83/1/1 81/1/1 82/1/1
f 88/3/1 85/3/1 84/3/1
f 89/3/1 85/3/1 88/3/1
f 92/3/1 91/3/1 90/3/1
f 93/3/1 91/3/1 92/3/1
f 96/3/1 95/3/1 94/3/1
f 97/3/1 95/3/1 96/3/1
f 98/3/1 87/3/1 86/3/1
f 99/3/1 87/3/1 98/3/1
f 104/6/1 101/6/1 100/6/1
f 104/6/1 102/6/1 101/6/1
f 105/3/1 103/3/1 102/3/1
f 105/6/1 102/6/1 104/6/1
f 106/3/1 103/3/1 105/3/1
f 107/3/2 108/3/2 111/3/2
f 109/3/2 110/3/2 111/3/2
f 108/3/2 109/3/2 111/3/2
f 111/3/2 110/3/2 112/3/2
f 113/3/2 114/3/2 115/3/2
f 115/3/2 114/3/2 116/3/2
f 117/2/2 118/2/2 119/2/2
f 119/2/2 118/2/2 120/2/2
f 121/3/2 122/3/2 126/3/2
f 126/3/2 122/3/2 127/3/2
f 123/3/2 124/3/2 129/3/2
f 129/3/2 124/3/2 130/3/2
f 127/3/2 128/3/2 131/3/2
f 125/3/2 126/3/2 131/3/2
f 126/3/2 127/3/2 131/3/2
f 131/3/2 128/3/2 132/3/2
f 125/3/2 131/3/2 133/3/2
f 133/3/2 131/3/2 134/3/2
f 132/3/2 128/3/2 135/3/2
f 135/3/2 128/3/2 136/3/2
f 137/3/2 138/3/2 139/3/2
f 139/3/2 138/3/2 140/3/2
f 141/3/2 142/3/2 143/3/2
f 143/3/2 142/3/2 144/3/2
f 145/3/2 146/3/2 147/3/2
f 147/3/2 146/3/2 148/3/2
f 149/3/2 150/3/2 151/3/2
f 151/3/2 150/3/2 152/3/2
f 153/1/2 154/1/2 155/1/2
f 155/1/2 154/1/2 156/1/2
f 157/1/2 158/1/2 159/1/2
f 159/1/2 158/1/2 160/1/2
f 161/1/2 162/1/2 163/1/2
f 163/1/2 162/1/2 164/1/2
f 165/3/2 166/3/2 169/3/2
f 169/3/2 166/3/2 170/3/2
f 167/3/2 168/3/2 171/3/2
f 171/3/2 168/3/2 172/3/2
f 177/2/2 178/2/2 179/2/2
f 179/2/2 178/2/2 180/2/2
f 173/3/2 174/3/2 182/3/2
f 182/3/2 174/3/2 183/3/2
f 175/3/2 176/3/2 184/3/2
f 184/3/2 176/3/2 185/3/2
f 181/3/2 182/3/2 187/3/2
f 187/3/2 182/3/2 188/3/2
f 185/3/2 186/3/2 191/3/2
f 191/3/2 186/3/2 192/3/2
f 188/3/2 189/3/2 193/3/2
f 193/3/2 189/3/2 194/3/2
f 190/3/2 191/3/2 195/3/2
f 195/3/2 191/3/2 196/3/2
f 197/3/2 198/3/2 199/3/2
f 199/3/2 198/3/2 200/3/2
f 197/3/2 199/3/2 201/3/2
f 200/3/2 198/3/2 202/3/2
f 197/3/2 201/3/2 204/3/2
f 201/3/2 202/3/2 204/3/2
f 202/3/2 198/3/2 205/3/2
f 204/3/2 202/3/2 205/3/2
f 203/3/2 204/3/2 207/3/2
f 207/3/2 204/3/2 208/3/2
f 205/3/2 206/3/2 209/3/2
f 209/3/2 206/3/2 210/3/2
f 208/3/2 209/3/2 211/3/2
f 211/3/2 209/3/2 212/3/2
f 213/3/2 214/3/2 215/3/2
f 215/3/2 214/3/2 216/3/2
f 219/3/3 218/3/3 217/3/3
f 220/3/3 218/3/3 219/3/3
f 224/3/3 222/3/3 221/3/3
f 225/3/3 222/3/3 224/3/3
f 227/3/3 224/3/3 223/3/3
f 228/3/3 224/3/3 227/3/3
f 229/3/3 227/3/3 223/3/3
f 229/2/3 228/2/3 227/2/3
f 230/2/3 228/2/3 229/2/3
f 231/3/3 229/3/3 223/3/3
f 231/3/3 230/3/3 229/3/3
f 232/3/3 230/3/3 231/3/3
f 234/3/3 230/3/3 232/3/3
f 235/3/3 234/3/3 233/3/3
f 236/3/3 234/3/3 235/3/3
f 237/3/3 234/3/3 236/3/3
f 238/3/3 234/3/3 237/3/3
f 239/3/3 234/3/3 238/3/3
f 240/3/3 230/3/3 234/3/3
f 240/3/3 234/3/3 239/3/3
f 241/3/3 235/3/3 233/3/3
f 247/3/3 241/3/3 233/3/3
f 247/1/3 242/1/3 241/1/3
f 248/1/3 242/1/3 247/1/3
f 249/1/3 244/1/3 243/1/3
f 250/1/3 244/1/3 249/1/3
f 251/1/3 246/1/3 245/1/3
f 252/1/3 246/1/3 251/1/3
f 253/3/3 247/3/3 233/3/3
f 254/3/3 237/3/3 236/3/3
f 255/3/3 237/3/3 254/3/3
f 256/3/3 239/3/3 238/3/3
f 257/3/3 239/3/3 256/3/3
f 258/3/3 230/3/3 240/3/3
f 259/2/3 228/2/3 230/2/3
f 259/3/3 230/3/3 258/3/3
f 260/3/3 224/3/3 228/3/3
f 260/2/3 228/2/3 259/2/3
f 261/3/3 259/3/3 258/3/3
f 261/3/3 258/3/3 257/3/3
f 261/3/3 260/3/3 259/3/3
f 261/3/3 255/3/3 254/3/3
f 261/3/3 257/3/3 256/3/3
f 261/3/3 254/3/3 253/3/3
f 261/3/3 253/3/3 233/3/3
f 261/3/3 256/3/3 255/3/3
f 262/3/3 224/3/3 260/3/3
f 262/3/3 260/3/3 261/3/3
f 263/3/3 226/3/3 225/3/3
f 264/3/3 226/3/3 263/3/3
f 265/3/3 263/3/3 262/3/3
f 266/3/3 263/3/3 265/3/3
f 270/3/3 268/3/3 267/3/3
f 271/3/3 268/3/3 270/3/3
f 273/3/3 270/3/3 269/3/3
f 274/3/3 270/3/3 273/3/3
f 275/3/3 272/3/3 271/3/3
f 276/3/3 272/3/3 275/3/3
f 283/2/3 278/2/3 277/2/3
f 284/2/3 278/2/3 283/2/3
f 285/2/3 280/2/3 279/2/3
f 286/2/3 280/2/3 285/2/3
f 287/2/3 282/2/3 281/2/3
f 288/2/3 282/2/3 287/2/3
f 290/2/3 278/2/3 284/2/3
f 291/2/3 285/2/3 279/2/3
f 292/2/3 280/2/3 286/2/3
f 293/2/3 287/2/3 281/2/3
f 294/2/3 282/2/3 288/2/3
f 295/2/3 290/2/3 289/2/3
f 296/2/3 278/2/3 290/2/3
f 296/2/3 290/2/3 295/2/3
f 297/2/3 291/2/3 279/2/3
f 297/2/3 292/2/3 291/2/3
f 298/2/3 280/2/3 292/2/3
f 298/2/3 292/2/3 297/2/3
f 299/2/3 293/2/3 281/2/3
f 299/2/3 294/2/3 293/2/3
f 300/2/3 282/2/3 294/2/3
f 300/2/3 294/2/3 299/2/3
f 305/3/3 302/3/3 301/3/3
f 306/3/3 302/3/3 305/3/3
f 307/3/3 304/3/3 303/3/3
f 308/3/3 304/3/3 307/3/3
f 309/3/3 307/3/3 306/3/3
f 310/3/3 307/3/3 309/3/3
f 313/3/3 312/3/3 311/3/3
f 314/3/3 312/3/3 313/3/3
f 317/3/3 316/3/3 315/3/3
f 318/3/3 316/3/3 317/3/3
f 321/3/3 320/3/3 319/3/3
f 322/3/3 320/3/3 321/3/3
f 325/3/3 324/3/3 323/3/3
f 326/3/3 324/3/3 325/3/3
f 327/3/3 325/3/3 323/3/3
f 329/3/3 327/3/3 323/3/3
f 329/3/3 328/3/3 327/3/3
f 330/3/3 328/3/3 329/3/3
f 331/3/3 328/3/3 330/3/3
f 334/2/3 333/2/3 332/2/3
f 335/2/3 333/2/3 334/2/3
f 338/3/3 337/3/3 336/3/3
f 339/3/3 337/3/3 338/3/3
f 342/3/3 341/3/3 340/3/3
f 343/3/3 341/3/3 342/3/3
f 346/3/3 345/3/3 344/3/3
f 347/3/3 345/3/3 346/3/3
f 350/3/3 349/3/3 348/3/3
f 351/3/3 349/3/3 350/3/3
f 354/3/3 353/3/3 352/3/3
f 355/3/3 353/3/3 354/3/3
f 356/3/3 353/3/3 355/3/3
f 357/3/3 353/3/3 356/3/3
f 358/6/4 359/6/4 360/6/4
f 360/6/4 359/6/4 361/6/4
f 362/3/4 363/3/4 364/3/4
f 364/3/4 363/3/4 365/3/4
f 366/3/4 367/3/4 368/3/4
f 368/3/4 367/3/4 369/3/4
f 370/3/4 371/3/4 372/3/4
f 372/3/4 371/3/4 373/3/4
f 374/3/4 375/3/4 376/3/4
f 374/3/4 376/3/4 377/3/4
f 377/3/4 376/3/4 378/3/4
f 379/3/4 380/3/4 381/3/4
f 381/3/4 380/3/4 382/3/4
f 383/3/4 384/3/4 385/3/4
f 385/3/4 384/3/4 386/3/4
f 387/3/4 388/3/4 389/3/4
f 389/3/4 388/3/4 390/3/4
f 391/3/4 392/3/4 394/3/4
f 394/3/4 392/3/4 395/3/4
f 393/3/4 394/3/4 397/3/4
f 397/3/4 394/3/4 398/3/4
f 395/3/4 396/3/4 399/3/4
f 399/3/4 396/3/4 400/3/4
f 401/2/4 402/2/4 403/2/4
f 403/2/4 402/2/4 404/2/4
f 405/3/4 406/3/4 409/3/4
f 409/3/4 406/3/4 410/3/4
f 407/3/4 408/3/4 411/3/4
f 411/3/4 408/3/4 412/3/4
f 410/3/4 411/3/4 413/3/4
f 413/3/4 411/3/4 414/3/4
f 415/3/4 416/3/4 418/3/4
f 418/3/4 416/3/4 419/3/4
f 417/3/4 418/3/4 421/3/4
f 421/3/4 418/3/4 422/3/4
f 417/3/4 421/3/4 423/3/4
f 422/3/4 418/3/4 424/3/4
f 417/3/4 423/3/4 425/3/4
f 423/3/4 424/3/4 425/3/4
f 424/3/4 418/3/4 426/3/4
f 425/3/4 424/3/4 426/3/4
f 419/3/4 420/3/4 427/3/4
f 427/3/4 420/3/4 428/3/4
f 426/3/4 427/3/4 429/3/4
f 429/3/4 427/3/4 430/3/4
f 431/3/4 432/3/4 433/3/4
f 433/3/4 432/3/4 434/3/4
f 439/3/5 436/3/5 435/3/5
f 440/3/5 436/3/5 439/3/5
f 441/3/5 438/3/5 437/3/5
f 442/3/5 438/3/5 441/3/5
f 447/3/5 444/3/5 443/3/5
f 448/3/5 444/3/5 447/3/5
f 449/3/5 446/3/5 445/3/5
f 450/3/5 446/3/5 449/3/5
f 456/3/5 452/3/5 451/3/5
f 457/3/5 454/3/5 453/3/5
f 459/3/5 456/3/5 455/3/5
f 459/3/5 452/3/5 456/3/5
f 460/3/5 452/3/5 459/3/5
f 461/3/5 452/3/5 460/3/5
f 462/3/5 458/3/5 457/3/5
f 462/3/5 457/3/5 453/3/5
f 463/3/5 458/3/5 462/3/5
f 464/2/5 463/2/5 462/2/5
f 465/2/5 463/2/5 464/2/5
f 466/2/5 460/2/5 459/2/5
f 469/2/5 464/2/5 462/2/5
f 470/2/5 463/2/5 465/2/5
f 471/3/5 468/3/5 467/3/5
f 472/3/5 462/3/5 453/3/5
f 473/3/5 471/3/5 467/3/5
f 473/3/5 472/3/5 471/3/5
f 473/2/5 467/2/5 466/2/5
f 474/2/5 469/2/5 462/2/5
f 474/3/5 472/3/5 473/3/5
f 474/3/5 462/3/5 472/3/5
f 474/2/5 470/2/5 469/2/5
f 475/2/5 473/2/5 466/2/5
f 475/2/5 466/2/5 459/2/5
f 475/2/5 474/2/5 473/2/5
f 476/2/5 474/2/5 475/2/5
f 477/2/5 470/2/5 474/2/5
f 477/2/5 474/2/5 476/2/5
f 478/2/5 463/2/5 470/2/5
f 478/2/5 470/2/5 477/2/5
f 479/2/5 475/2/5 459/2/5
f 480/2/5 477/2/5 476/2/5
f 481/2/5 477/2/5 480/2/5
f 482/2/5 463/2/5 478/2/5
f 483/2/5 481/2/5 480/2/5
f 483/2/5 482/2/5 481/2/5
f 483/3/5 459/3/5 455/3/5
f 483/2/5 479/2/5 459/2/5
f 483/2/5 480/2/5 479/2/5
f 484/3/5 458/3/5 463/3/5
f 484/2/5 482/2/5 483/2/5
f 484/2/5 463/2/5 482/2/5
f 485/3/5 483/3/5 455/3/5
f 485/3/5 484/3/5 483/3/5
f 486/3/5 484/3/5 485/3/5
f 487/3/5 458/3/5 484/3/5
f 487/3/5 484/3/5 486/3/5
f 488/3/5 458/3/5 487/3/5
f 489/3/5 487/3/5 486/3/5
f 490/3/5 487/3/5 489/3/5
f 493/3/5 492/3/5 491/3/5
f 494/3/5 492/3/5 493/3/5
f 497/1/5 496/1/5 495/1/5
f 498/1/5 496/1/5 497/1/5
f 501/3/5 500/3/5 499/3/5
f 502/3/5 500/3/5 501/3/5
f 505/1/5 504/1/5 503/1/5
f 506/1/5 504/1/5 505/1/5
f 511/3/5 508/3/5 507/3/5
f 512/3/5 510/3/5 509/3/5
f 513/3/5 510/3/5 512/3/5
f 515/3/5 511/3/5 507/3/5
f 516/3/5 511/3/5 515/3/5
f 517/3/5 511/3/5 516/3/5
f 518/2/5 515/2/5 514/2/5
f 519/3/5 516/3/5 515/3/5
f 519/2/5 515/2/5 518/2/5
f 520/2/5 517/2/5 516/2/5
f 520/3/5 516/3/5 519/3/5
f 521/3/5 511/3/5 517/3/5
f 521/2/5 517/2/5 520/2/5
f 522/3/5 520/3/5 519/3/5
f 522/3/5 521/3/5 520/3/5
f 523/3/5 521/3/5 522/3/5
f 524/3/5 511/3/5 521/3/5
f 524/3/5 521/3/5 523/3/5
f 525/3/5 511/3/5 524/3/5
f 526/2/5 524/2/5 523/2/5
f 527/2/5 524/2/5 526/2/5
f 532/3/5 529/3/5 528/3/5
f 533/3/5 529/3/5 532/3/5
f 534/3/5 531/3/5 530/3/5
f 535/3/5 531/3/5 534/3/5
f 538/3/5 537/3/5 536/3/5
f 539/3/5 537/3/5 538/3/5
f 543/3/5 541/3/5 540/3/5
f 544/3/5 541/3/5 543/3/5
f 547/3/5 543/3/5 542/3/5
f 548/3/5 543/3/5 547/3/5
f 549/3/5 545/3/5 544/3/5
f 550/3/5 545/3/5 549/3/5
f 552/3/5 547/3/5 546/3/5
f 553/3/5 547/3/5 552/3/5
f 556/3/5 551/3/5 550/3/5
f 557/3/5 551/3/5 556/3/5
f 558/3/5 554/3/5 553/3/5
f 559/3/5 554/3/5 558/3/5
f 560/3/5 556/3/5 555/3/5
f 561/3/5 556/3/5 560/3/5
f 562/3/5 560/3/5 559/3/5
f 563/3/5 560/3/5 562/3/5
f 566/4/5 565/4/5 564/4/5
f 567/4/5 566/4/5 564/4/5
f 568/4/5 566/4/5 567/4/5
f 569/3/6 570/3/6 573/3/6
f 573/3/6 570/3/6 574/3/6
f 571/3/6 572/3/6 575/3/6
f 575/3/6 572/3/6 576/3/6
f 579/3/6 580/3/6 583/3/6
f 583/3/6 580/3/6 584/3/6
f 585/3/6 586/3/6 587/3/6
f 587/3/6 586/3/6 588/3/6
f 577/3/6 578/3/6 589/3/6
f 589/3/6 578/3/6 590/3/6
f 581/3/6 582/3/6 591/3/6
f 591/3/6 582/3/6 592/3/6
f 593/3/6 594/3/6 595/3/6
f 595/3/6 594/3/6 596/3/6
f 597/1/6 598/1/6 599/1/6
f 599/1/6 598/1/6 600/1/6
f 601/3/6 602/3/6 603/3/6
f 603/3/6 602/3/6 604/3/6
f 605/1/6 606/1/6 607/1/6
f 607/1/6 606/1/6 608/1/6
f 609/3/6 610/3/6 611/3/6
f 611/3/6 610/3/6 612/3/6
f 613/1/6 614/1/6 615/1/6
f 615/1/6 614/1/6 616/1/6
f 617/2/6 618/2/6 619/2/6
f 619/2/6 618/2/6 620/2/6
f 619/5/6 620/5/6 621/5/6
f 621/5/6 620/5/6 622/5/6
f 622/5/6 620/5/6 623/5/6
f 623/5/6 620/5/6 624/5/6
f 621/6/6 622/6/6 625/6/6
f 622/5/6 623/5/6 626/5/6
f 625/6/6 622/6/6 626/6/6
f 623/6/6 624/6/6 627/6/6
f 626/5/6 623/5/6 627/5/6
f 627/6/6 624/6/6 628/6/6
f 629/3/6 630/3/6 632/3/6
f 632/3/6 630/3/6 633/3/6
f 631/3/6 632/3/6 636/3/6
f 636/3/6 632/3/6 637/3/6
f 633/3/6 634/3/6 638/3/6
f 638/3/6 634/3/6 639/3/6
f 635/3/6 636/3/6 641/3/6
f 641/3/6 636/3/6 642/3/6
f 639/3/6 640/3/6 645/3/6
f 645/3/6 640/3/6 646/3/6
f 642/3/6 643/3/6 647/3/6
f 647/3/6 643/3/6 648/3/6
f 644/3/6 645/3/6 649/3/6
f 649/3/6 645/3/6 650/3/6
f 648/3/6 649/3/6 651/3/6
f 651/3/6 649/3/6 652/3/6
f 653/3/6 654/3/6 656/3/6
f 656/3/6 654/3/6 657/3/6
f 655/3/6 656/3/6 659/3/6
f 656/4/6 657/4/6 660/4/6
f 659/3/6 656/3/6 660/3/6
f 657/3/6 658/3/6 661/3/6
f 660/4/6 657/4/6 661/4/6
f 661/3/6 658/3/6 662/3/6
f 660/3/6 661/3/6 663/3/6
f 663/3/6 661/3/6 664/3/6
