# MagicaVoxel @ Ephtracy

# group
o 

# material
mtllib TT123.mtl
usemtl palette

# normals
vn -1 0 0
vn 1 0 0
vn 0 0 1
vn 0 0 -1
vn 0 -1 0
vn 0 1 0

# texcoords
vt 0.283203 0.5
vt 0.291016 0.5
vt 0.314453 0.5
vt 0.318359 0.5
vt 0.322266 0.5
vt 0.326172 0.5

# verts
v -1.6 3.2 1.2
v -1.6 3.2 -1
v -1.6 3.3 1.2
v -1.6 3.3 -1
v -1.5 3.1 1.2
v -1.5 3.1 -1
v -1.5 3.2 1.3
v -1.5 3.2 1.2
v -1.5 3.2 -1
v -1.5 3.2 -1.1
v -1.5 3.3 1.3
v -1.5 3.3 1.2
v -1.5 3.3 -1
v -1.5 3.3 -1.1
v -1.5 3.4 1.2
v -1.5 3.4 -1
v -1.4 0.5 1.2
v -1.4 0.5 -1
v -1.4 0.6 1.1
v -1.4 0.6 -0.9
v -1.4 3 1.1
v -1.4 3 -0.9
v -1.4 3.1 1.2
v -1.4 3.1 -1
v -1.4 3.1 -1.1
v -1.4 3.2 1.4
v -1.4 3.2 1.3
v -1.4 3.2 -0.9
v -1.4 3.2 -1
v -1.4 3.2 -1.1
v -1.4 3.2 -1.2
v -1.4 3.3 1.4
v -1.4 3.3 1.3
v -1.4 3.3 1.2
v -1.4 3.3 -0.9
v -1.4 3.3 -1
v -1.4 3.3 -1.1
v -1.4 3.3 -1.2
v -1.4 3.4 1.3
v -1.4 3.4 1.2
v -1.4 3.4 -1
v -1.4 3.4 -1.1
v -1.3 3.1 1.3
v -1.3 3.1 1.2
v -1.3 3.2 1.3
v -1.3 3.2 1.2
v -1.2 0.4 1
v -1.2 0.4 0.7
v -1.2 0.4 -0.5
v -1.2 0.4 -0.8
v -1.2 0.5 1
v -1.2 0.5 0.7
v -1.2 0.5 -0.5
v -1.2 0.5 -0.8
v -0.5 0.9 1.3
v -0.5 0.9 1.2
v -0.5 1 1.3
v -0.5 1 1.2
v -0.5 1.8 1.3
v -0.5 1.8 1.2
v -0.5 1.9 1.3
v -0.5 1.9 1.2
v -0.5 2.7 1.3
v -0.5 2.7 1.2
v -0.5 2.8 1.3
v -0.5 2.8 1.2
v 0.9 0.4 1
v 0.9 0.4 0.7
v 0.9 0.4 -0.5
v 0.9 0.4 -0.8
v 0.9 0.5 1
v 0.9 0.5 0.7
v 0.9 0.5 -0.5
v 0.9 0.5 -0.8
v -1.5 3.2 -0.9
v -1.5 3.2 -1
v -1.5 3.3 -0.9
v -1.5 3.3 -1
v -0.9 0.4 1
v -0.9 0.4 0.7
v -0.9 0.4 -0.5
v -0.9 0.4 -0.8
v -0.9 0.5 1
v -0.9 0.5 0.7
v -0.9 0.5 -0.5
v -0.9 0.5 -0.8
v 0.4 0.9 1.3
v 0.4 0.9 1.2
v 0.4 1 1.3
v 0.4 1 1.2
v 0.4 1.8 1.3
v 0.4 1.8 1.2
v 0.4 1.9 1.3
v 0.4 1.9 1.2
v 0.4 2.7 1.3
v 0.4 2.7 1.2
v 0.4 2.8 1.3
v 0.4 2.8 1.2
v 1.2 0.4 1
v 1.2 0.4 0.7
v 1.2 0.4 -0.5
v 1.2 0.4 -0.8
v 1.2 0.5 1
v 1.2 0.5 0.7
v 1.2 0.5 -0.5
v 1.2 0.5 -0.8
v 1.3 3.1 1.3
v 1.3 3.1 1.2
v 1.3 3.2 1.3
v 1.3 3.2 1.2
v 1.4 0.5 1.2
v 1.4 0.5 -1
v 1.4 0.6 1.1
v 1.4 0.6 -0.9
v 1.4 3 1.1
v 1.4 3 -0.9
v 1.4 3.1 1.2
v 1.4 3.1 -1
v 1.4 3.1 -1.1
v 1.4 3.2 1.4
v 1.4 3.2 1.3
v 1.4 3.2 -1
v 1.4 3.2 -1.1
v 1.4 3.2 -1.2
v 1.4 3.3 1.4
v 1.4 3.3 1.3
v 1.4 3.3 1.2
v 1.4 3.3 -1
v 1.4 3.3 -1.1
v 1.4 3.3 -1.2
v 1.4 3.4 1.3
v 1.4 3.4 1.2
v 1.4 3.4 -1
v 1.4 3.4 -1.1
v 1.5 3.1 1.2
v 1.5 3.1 -1
v 1.5 3.2 1.3
v 1.5 3.2 1.2
v 1.5 3.2 -1
v 1.5 3.2 -1.1
v 1.5 3.3 1.3
v 1.5 3.3 1.2
v 1.5 3.3 -1
v 1.5 3.3 -1.1
v 1.5 3.4 1.2
v 1.5 3.4 -1
v 1.6 3.2 1.2
v 1.6 3.2 -1
v 1.6 3.3 1.2
v 1.6 3.3 -1
v -1.4 3.2 1.4
v -1.4 3.3 1.4
v 1.4 3.2 1.4
v 1.4 3.3 1.4
v -1.5 3.2 1.3
v -1.5 3.3 1.3
v -1.4 3.2 1.3
v -1.4 3.3 1.3
v -1.4 3.4 1.3
v -1.3 3.1 1.3
v -1.3 3.2 1.3
v -0.5 0.9 1.3
v -0.5 1 1.3
v -0.5 1.8 1.3
v -0.5 1.9 1.3
v -0.5 2.7 1.3
v -0.5 2.8 1.3
v 0.4 0.9 1.3
v 0.4 1 1.3
v 0.4 1.8 1.3
v 0.4 1.9 1.3
v 0.4 2.7 1.3
v 0.4 2.8 1.3
v 1.3 3.1 1.3
v 1.3 3.2 1.3
v 1.4 3.2 1.3
v 1.4 3.3 1.3
v 1.4 3.4 1.3
v 1.5 3.2 1.3
v 1.5 3.3 1.3
v -1.6 3.2 1.2
v -1.6 3.3 1.2
v -1.5 3.1 1.2
v -1.5 3.2 1.2
v -1.5 3.3 1.2
v -1.5 3.4 1.2
v -1.4 0.5 1.2
v -1.4 3.1 1.2
v -1.4 3.3 1.2
v -1.4 3.4 1.2
v -1.3 0.6 1.2
v -1.3 1.3 1.2
v -1.3 1.4 1.2
v -1.3 2.2 1.2
v -1.3 2.3 1.2
v -1.3 3 1.2
v -1.3 3.1 1.2
v -1.3 3.2 1.2
v -0.5 0.9 1.2
v -0.5 1 1.2
v -0.5 1.8 1.2
v -0.5 1.9 1.2
v -0.5 2.7 1.2
v -0.5 2.8 1.2
v 0.4 0.9 1.2
v 0.4 1 1.2
v 0.4 1.8 1.2
v 0.4 1.9 1.2
v 0.4 2.7 1.2
v 0.4 2.8 1.2
v 1.3 0.6 1.2
v 1.3 1.3 1.2
v 1.3 1.4 1.2
v 1.3 2.2 1.2
v 1.3 2.3 1.2
v 1.3 3 1.2
v 1.3 3.1 1.2
v 1.3 3.2 1.2
v 1.4 0.5 1.2
v 1.4 3.1 1.2
v 1.4 3.3 1.2
v 1.4 3.4 1.2
v 1.5 3.1 1.2
v 1.5 3.2 1.2
v 1.5 3.3 1.2
v 1.5 3.4 1.2
v 1.6 3.2 1.2
v 1.6 3.3 1.2
v -1.2 0.4 1
v -1.2 0.5 1
v -0.9 0.4 1
v -0.9 0.5 1
v 0.9 0.4 1
v 0.9 0.5 1
v 1.2 0.4 1
v 1.2 0.5 1
v -1.2 0.4 -0.5
v -1.2 0.5 -0.5
v -0.9 0.4 -0.5
v -0.9 0.5 -0.5
v 0.9 0.4 -0.5
v 0.9 0.5 -0.5
v 1.2 0.4 -0.5
v 1.2 0.5 -0.5
v -1.5 3.2 -1
v -1.5 3.3 -1
v -1.4 3.2 -1
v -1.4 3.3 -1
v -1.2 0.4 0.7
v -1.2 0.5 0.7
v -0.9 0.4 0.7
v -0.9 0.5 0.7
v 0.9 0.4 0.7
v 0.9 0.5 0.7
v 1.2 0.4 0.7
v 1.2 0.5 0.7
v -1.2 0.4 -0.8
v -1.2 0.5 -0.8
v -0.9 0.4 -0.8
v -0.9 0.5 -0.8
v 0.9 0.4 -0.8
v 0.9 0.5 -0.8
v 1.2 0.4 -0.8
v 1.2 0.5 -0.8
v -1.5 3.2 -0.9
v -1.5 3.3 -0.9
v -1.4 3.2 -0.9
v -1.4 3.3 -0.9
v -1.6 3.2 -1
v -1.6 3.3 -1
v -1.5 3.1 -1
v -1.5 3.2 -1
v -1.5 3.3 -1
v -1.5 3.4 -1
v -1.4 0.5 -1
v -1.4 3.1 -1
v -1.4 3.2 -1
v -1.4 3.3 -1
v -1.4 3.4 -1
v -1.3 0.6 -1
v -1.3 3 -1
v 1.3 0.6 -1
v 1.3 3 -1
v 1.4 0.5 -1
v 1.4 3.1 -1
v 1.4 3.2 -1
v 1.4 3.3 -1
v 1.4 3.4 -1
v 1.5 3.1 -1
v 1.5 3.2 -1
v 1.5 3.3 -1
v 1.5 3.4 -1
v 1.6 3.2 -1
v 1.6 3.3 -1
v -1.5 3.2 -1.1
v -1.5 3.3 -1.1
v -1.4 3.1 -1.1
v -1.4 3.2 -1.1
v -1.4 3.3 -1.1
v -1.4 3.4 -1.1
v 1.4 3.1 -1.1
v 1.4 3.2 -1.1
v 1.4 3.3 -1.1
v 1.4 3.4 -1.1
v 1.5 3.2 -1.1
v 1.5 3.3 -1.1
v -1.4 3.2 -1.2
v -1.4 3.3 -1.2
v 1.4 3.2 -1.2
v 1.4 3.3 -1.2
v -1.2 0.4 1
v -0.9 0.4 1
v 0.9 0.4 1
v 1.2 0.4 1
v -1.2 0.4 0.7
v -0.9 0.4 0.7
v 0.9 0.4 0.7
v 1.2 0.4 0.7
v -1.2 0.4 -0.5
v -0.9 0.4 -0.5
v 0.9 0.4 -0.5
v 1.2 0.4 -0.5
v -1.2 0.4 -0.8
v -0.9 0.4 -0.8
v 0.9 0.4 -0.8
v 1.2 0.4 -0.8
v -1.4 0.5 1.2
v 1.4 0.5 1.2
v -1.3 0.5 1.1
v 1.3 0.5 1.1
v -1.2 0.5 1
v -0.9 0.5 1
v 0.9 0.5 1
v 1.2 0.5 1
v -1.2 0.5 0.7
v -0.9 0.5 0.7
v 0.9 0.5 0.7
v 1.2 0.5 0.7
v -1.2 0.5 -0.5
v -0.9 0.5 -0.5
v 0.9 0.5 -0.5
v 1.2 0.5 -0.5
v -1.2 0.5 -0.8
v -0.9 0.5 -0.8
v 0.9 0.5 -0.8
v 1.2 0.5 -0.8
v -1.3 0.5 -0.9
v 1.3 0.5 -0.9
v -1.4 0.5 -1
v 1.4 0.5 -1
v -0.5 0.9 1.3
v 0.4 0.9 1.3
v -0.5 0.9 1.2
v 0.4 0.9 1.2
v -0.5 1.8 1.3
v 0.4 1.8 1.3
v -0.5 1.8 1.2
v 0.4 1.8 1.2
v -0.5 2.7 1.3
v 0.4 2.7 1.3
v -0.5 2.7 1.2
v 0.4 2.7 1.2
v -1.3 3.1 1.3
v 1.3 3.1 1.3
v -1.5 3.1 1.2
v -1.4 3.1 1.2
v -1.3 3.1 1.2
v 1.3 3.1 1.2
v 1.4 3.1 1.2
v 1.5 3.1 1.2
v -1.5 3.1 -1
v -1.4 3.1 -1
v 1.4 3.1 -1
v 1.5 3.1 -1
v -1.4 3.1 -1.1
v 1.4 3.1 -1.1
v -1.4 3.2 1.4
v 1.4 3.2 1.4
v -1.5 3.2 1.3
v -1.4 3.2 1.3
v -1.3 3.2 1.3
v 1.3 3.2 1.3
v 1.4 3.2 1.3
v 1.5 3.2 1.3
v -1.6 3.2 1.2
v -1.5 3.2 1.2
v -1.3 3.2 1.2
v 1.3 3.2 1.2
v 1.5 3.2 1.2
v 1.6 3.2 1.2
v -1.6 3.2 -1
v -1.5 3.2 -1
v -1.4 3.2 -1
v 1.4 3.2 -1
v 1.5 3.2 -1
v 1.6 3.2 -1
v -1.5 3.2 -1.1
v -1.4 3.2 -1.1
v 1.4 3.2 -1.1
v 1.5 3.2 -1.1
v -1.4 3.2 -1.2
v 1.4 3.2 -1.2
v -1.5 3.3 -0.9
v -1.4 3.3 -0.9
v -1.5 3.3 -1
v -1.4 3.3 -1
v -0.5 1 1.3
v 0.4 1 1.3
v -0.5 1 1.2
v 0.4 1 1.2
v -0.5 1.9 1.3
v 0.4 1.9 1.3
v -0.5 1.9 1.2
v 0.4 1.9 1.2
v -0.5 2.8 1.3
v 0.4 2.8 1.3
v -0.5 2.8 1.2
v 0.4 2.8 1.2
v -1.5 3.2 -0.9
v -1.4 3.2 -0.9
v -1.5 3.2 -1
v -1.4 3.2 -1
v -1.4 3.3 1.4
v 1.4 3.3 1.4
v -1.5 3.3 1.3
v -1.4 3.3 1.3
v 1.4 3.3 1.3
v 1.5 3.3 1.3
v -1.6 3.3 1.2
v -1.5 3.3 1.2
v -1.4 3.3 1.2
v 1.4 3.3 1.2
v 1.5 3.3 1.2
v 1.6 3.3 1.2
v -1.6 3.3 -1
v -1.5 3.3 -1
v -1.4 3.3 -1
v 1.4 3.3 -1
v 1.5 3.3 -1
v 1.6 3.3 -1
v -1.5 3.3 -1.1
v -1.4 3.3 -1.1
v 1.4 3.3 -1.1
v 1.5 3.3 -1.1
v -1.4 3.3 -1.2
v 1.4 3.3 -1.2
v -1.4 3.4 1.3
v 1.4 3.4 1.3
v -1.5 3.4 1.2
v -1.4 3.4 1.2
v 1.4 3.4 1.2
v 1.5 3.4 1.2
v -1.5 3.4 -1
v -1.4 3.4 -1
v 1.4 3.4 -1
v 1.5 3.4 -1
v -1.4 3.4 -1.1
v 1.4 3.4 -1.1

# faces
f 3/5/1 2/5/1 1/5/1
f 4/5/1 2/5/1 3/5/1
f 8/5/1 6/5/1 5/5/1
f 9/5/1 6/5/1 8/5/1
f 11/5/1 8/5/1 7/5/1
f 12/5/1 8/5/1 11/5/1
f 13/5/1 10/5/1 9/5/1
f 14/5/1 10/5/1 13/5/1
f 15/5/1 13/5/1 12/5/1
f 16/5/1 13/5/1 15/5/1
f 19/5/1 18/5/1 17/5/1
f 20/5/1 18/5/1 19/5/1
f 21/5/1 19/5/1 17/5/1
f 21/3/1 20/3/1 19/3/1
f 22/5/1 18/5/1 20/5/1
f 22/3/1 20/3/1 21/3/1
f 23/5/1 21/5/1 17/5/1
f 23/5/1 22/5/1 21/5/1
f 24/5/1 18/5/1 22/5/1
f 24/5/1 22/5/1 23/5/1
f 29/5/1 25/5/1 24/5/1
f 30/5/1 25/5/1 29/5/1
f 32/5/1 27/5/1 26/5/1
f 33/5/1 27/5/1 32/5/1
f 35/5/1 29/5/1 28/5/1
f 36/5/1 29/5/1 35/5/1
f 37/5/1 31/5/1 30/5/1
f 38/5/1 31/5/1 37/5/1
f 39/5/1 34/5/1 33/5/1
f 40/5/1 34/5/1 39/5/1
f 41/5/1 37/5/1 36/5/1
f 42/5/1 37/5/1 41/5/1
f 45/5/1 44/5/1 43/5/1
f 46/5/1 44/5/1 45/5/1
f 51/5/1 48/5/1 47/5/1
f 52/5/1 48/5/1 51/5/1
f 53/5/1 50/5/1 49/5/1
f 54/5/1 50/5/1 53/5/1
f 57/6/1 56/6/1 55/6/1
f 58/6/1 56/6/1 57/6/1
f 61/6/1 60/6/1 59/6/1
f 62/6/1 60/6/1 61/6/1
f 65/6/1 64/6/1 63/6/1
f 66/6/1 64/6/1 65/6/1
f 71/5/1 68/5/1 67/5/1
f 72/5/1 68/5/1 71/5/1
f 73/5/1 70/5/1 69/5/1
f 74/5/1 70/5/1 73/5/1
f 75/5/2 76/5/2 77/5/2
f 77/5/2 76/5/2 78/5/2
f 79/5/2 80/5/2 83/5/2
f 83/5/2 80/5/2 84/5/2
f 81/5/2 82/5/2 85/5/2
f 85/5/2 82/5/2 86/5/2
f 87/6/2 88/6/2 89/6/2
f 89/6/2 88/6/2 90/6/2
f 91/6/2 92/6/2 93/6/2
f 93/6/2 92/6/2 94/6/2
f 95/6/2 96/6/2 97/6/2
f 97/6/2 96/6/2 98/6/2
f 99/5/2 100/5/2 103/5/2
f 103/5/2 100/5/2 104/5/2
f 101/5/2 102/5/2 105/5/2
f 105/5/2 102/5/2 106/5/2
f 107/5/2 108/5/2 109/5/2
f 109/5/2 108/5/2 110/5/2
f 111/5/2 112/5/2 113/5/2
f 113/5/2 112/5/2 114/5/2
f 111/5/2 113/5/2 115/5/2
f 113/3/2 114/3/2 115/3/2
f 114/5/2 112/5/2 116/5/2
f 115/3/2 114/3/2 116/3/2
f 111/5/2 115/5/2 117/5/2
f 115/5/2 116/5/2 117/5/2
f 116/5/2 112/5/2 118/5/2
f 117/5/2 116/5/2 118/5/2
f 118/5/2 119/5/2 122/5/2
f 122/5/2 119/5/2 123/5/2
f 120/5/2 121/5/2 125/5/2
f 125/5/2 121/5/2 126/5/2
f 123/5/2 124/5/2 129/5/2
f 129/5/2 124/5/2 130/5/2
f 126/5/2 127/5/2 131/5/2
f 131/5/2 127/5/2 132/5/2
f 128/5/2 129/5/2 133/5/2
f 133/5/2 129/5/2 134/5/2
f 135/5/2 136/5/2 138/5/2
f 138/5/2 136/5/2 139/5/2
f 137/5/2 138/5/2 141/5/2
f 141/5/2 138/5/2 142/5/2
f 139/5/2 140/5/2 143/5/2
f 143/5/2 140/5/2 144/5/2
f 142/5/2 143/5/2 145/5/2
f 145/5/2 143/5/2 146/5/2
f 147/5/2 148/5/2 149/5/2
f 149/5/2 148/5/2 150/5/2
f 153/5/3 152/5/3 151/5/3
f 154/5/3 152/5/3 153/5/3
f 157/5/3 156/5/3 155/5/3
f 158/5/3 156/5/3 157/5/3
f 168/6/3 163/6/3 162/6/3
f 169/6/3 163/6/3 168/6/3
f 170/6/3 165/6/3 164/6/3
f 171/6/3 165/6/3 170/6/3
f 172/6/3 167/6/3 166/6/3
f 173/6/3 167/6/3 172/6/3
f 174/5/3 161/5/3 160/5/3
f 175/5/3 161/5/3 174/5/3
f 177/5/3 159/5/3 158/5/3
f 178/5/3 159/5/3 177/5/3
f 179/5/3 177/5/3 176/5/3
f 180/5/3 177/5/3 179/5/3
f 184/5/3 182/5/3 181/5/3
f 185/5/3 182/5/3 184/5/3
f 188/5/3 184/5/3 183/5/3
f 189/5/3 186/5/3 185/5/3
f 190/5/3 186/5/3 189/5/3
f 191/5/3 188/5/3 187/5/3
f 192/5/3 188/5/3 191/5/3
f 193/5/3 188/5/3 192/5/3
f 194/5/3 188/5/3 193/5/3
f 195/5/3 188/5/3 194/5/3
f 196/5/3 188/5/3 195/5/3
f 197/5/3 184/5/3 188/5/3
f 197/5/3 188/5/3 196/5/3
f 198/5/3 184/5/3 197/5/3
f 199/3/3 192/3/3 191/3/3
f 200/3/3 192/3/3 199/3/3
f 201/3/3 194/3/3 193/3/3
f 202/3/3 194/3/3 201/3/3
f 203/3/3 196/3/3 195/3/3
f 204/3/3 196/3/3 203/3/3
f 205/3/3 199/3/3 191/3/3
f 206/3/3 192/3/3 200/3/3
f 207/3/3 201/3/3 193/3/3
f 208/3/3 194/3/3 202/3/3
f 209/3/3 203/3/3 195/3/3
f 210/3/3 196/3/3 204/3/3
f 211/5/3 191/5/3 187/5/3
f 211/3/3 205/3/3 191/3/3
f 211/3/3 206/3/3 205/3/3
f 212/5/3 193/5/3 192/5/3
f 212/3/3 206/3/3 211/3/3
f 212/3/3 192/3/3 206/3/3
f 213/3/3 207/3/3 193/3/3
f 213/5/3 193/5/3 212/5/3
f 213/3/3 208/3/3 207/3/3
f 214/5/3 195/5/3 194/5/3
f 214/3/3 208/3/3 213/3/3
f 214/3/3 194/3/3 208/3/3
f 215/3/3 210/3/3 209/3/3
f 215/5/3 195/5/3 214/5/3
f 215/3/3 209/3/3 195/3/3
f 216/3/3 196/3/3 210/3/3
f 216/3/3 210/3/3 215/3/3
f 216/5/3 197/5/3 196/5/3
f 217/5/3 197/5/3 216/5/3
f 219/5/3 212/5/3 211/5/3
f 219/5/3 218/5/3 217/5/3
f 219/5/3 217/5/3 216/5/3
f 219/5/3 216/5/3 215/5/3
f 219/5/3 214/5/3 213/5/3
f 219/5/3 211/5/3 187/5/3
f 219/5/3 215/5/3 214/5/3
f 219/5/3 213/5/3 212/5/3
f 220/5/3 218/5/3 219/5/3
f 223/5/3 218/5/3 220/5/3
f 224/5/3 218/5/3 223/5/3
f 225/5/3 222/5/3 221/5/3
f 226/5/3 222/5/3 225/5/3
f 227/5/3 225/5/3 224/5/3
f 228/5/3 225/5/3 227/5/3
f 231/5/3 230/5/3 229/5/3
f 232/5/3 230/5/3 231/5/3
f 235/5/3 234/5/3 233/5/3
f 236/5/3 234/5/3 235/5/3
f 239/5/3 238/5/3 237/5/3
f 240/5/3 238/5/3 239/5/3
f 243/5/3 242/5/3 241/5/3
f 244/5/3 242/5/3 243/5/3
f 247/5/3 246/5/3 245/5/3
f 248/5/3 246/5/3 247/5/3
f 249/5/4 250/5/4 251/5/4
f 251/5/4 250/5/4 252/5/4
f 253/5/4 254/5/4 255/5/4
f 255/5/4 254/5/4 256/5/4
f 257/5/4 258/5/4 259/5/4
f 259/5/4 258/5/4 260/5/4
f 261/5/4 262/5/4 263/5/4
f 263/5/4 262/5/4 264/5/4
f 265/5/4 266/5/4 267/5/4
f 267/5/4 266/5/4 268/5/4
f 269/5/4 270/5/4 272/5/4
f 272/5/4 270/5/4 273/5/4
f 271/5/4 272/5/4 276/5/4
f 276/5/4 272/5/4 277/5/4
f 273/5/4 274/5/4 278/5/4
f 278/5/4 274/5/4 279/5/4
f 275/5/4 276/5/4 280/5/4
f 280/5/4 276/5/4 281/5/4
f 275/5/4 280/5/4 282/5/4
f 280/3/4 281/3/4 282/3/4
f 281/5/4 276/5/4 283/5/4
f 282/3/4 281/3/4 283/3/4
f 275/5/4 282/5/4 284/5/4
f 282/5/4 283/5/4 284/5/4
f 283/5/4 276/5/4 285/5/4
f 284/5/4 283/5/4 285/5/4
f 285/5/4 286/5/4 289/5/4
f 289/5/4 286/5/4 290/5/4
f 287/5/4 288/5/4 291/5/4
f 291/5/4 288/5/4 292/5/4
f 290/5/4 291/5/4 293/5/4
f 293/5/4 291/5/4 294/5/4
f 295/5/4 296/5/4 298/5/4
f 298/5/4 296/5/4 299/5/4
f 297/5/4 298/5/4 301/5/4
f 301/5/4 298/5/4 302/5/4
f 299/5/4 300/5/4 303/5/4
f 303/5/4 300/5/4 304/5/4
f 302/5/4 303/5/4 305/5/4
f 305/5/4 303/5/4 306/5/4
f 307/5/4 308/5/4 309/5/4
f 309/5/4 308/5/4 310/5/4
f 315/5/5 312/5/5 311/5/5
f 316/5/5 312/5/5 315/5/5
f 317/5/5 314/5/5 313/5/5
f 318/5/5 314/5/5 317/5/5
f 323/5/5 320/5/5 319/5/5
f 324/5/5 320/5/5 323/5/5
f 325/5/5 322/5/5 321/5/5
f 326/5/5 322/5/5 325/5/5
f 329/5/5 328/5/5 327/5/5
f 330/5/5 328/5/5 329/5/5
f 331/3/5 330/3/5 329/3/5
f 332/3/5 330/3/5 331/3/5
f 333/3/5 330/3/5 332/3/5
f 334/3/5 330/3/5 333/3/5
f 335/3/5 331/3/5 329/3/5
f 336/3/5 333/3/5 332/3/5
f 337/3/5 333/3/5 336/3/5
f 338/3/5 330/3/5 334/3/5
f 339/3/5 337/3/5 336/3/5
f 339/3/5 338/3/5 337/3/5
f 339/3/5 335/3/5 329/3/5
f 339/3/5 336/3/5 335/3/5
f 340/3/5 338/3/5 339/3/5
f 341/3/5 338/3/5 340/3/5
f 342/3/5 330/3/5 338/3/5
f 342/3/5 338/3/5 341/3/5
f 343/3/5 339/3/5 329/3/5
f 344/3/5 341/3/5 340/3/5
f 345/3/5 341/3/5 344/3/5
f 346/3/5 330/3/5 342/3/5
f 347/5/5 329/5/5 327/5/5
f 347/3/5 346/3/5 345/3/5
f 347/3/5 343/3/5 329/3/5
f 347/3/5 345/3/5 344/3/5
f 347/3/5 344/3/5 343/3/5
f 348/3/5 330/3/5 346/3/5
f 348/3/5 346/3/5 347/3/5
f 348/5/5 328/5/5 330/5/5
f 349/5/5 347/5/5 327/5/5
f 349/5/5 348/5/5 347/5/5
f 350/5/5 328/5/5 348/5/5
f 350/5/5 348/5/5 349/5/5
f 353/6/5 352/6/5 351/6/5
f 354/6/5 352/6/5 353/6/5
f 357/6/5 356/6/5 355/6/5
f 358/6/5 356/6/5 357/6/5
f 361/6/5 360/6/5 359/6/5
f 362/6/5 360/6/5 361/6/5
f 367/5/5 364/5/5 363/5/5
f 368/5/5 364/5/5 367/5/5
f 371/5/5 366/5/5 365/5/5
f 372/5/5 366/5/5 371/5/5
f 373/5/5 370/5/5 369/5/5
f 374/5/5 370/5/5 373/5/5
f 375/5/5 373/5/5 372/5/5
f 376/5/5 373/5/5 375/5/5
f 380/5/5 378/5/5 377/5/5
f 381/5/5 378/5/5 380/5/5
f 382/5/5 378/5/5 381/5/5
f 383/5/5 378/5/5 382/5/5
f 386/5/5 380/5/5 379/5/5
f 386/5/5 381/5/5 380/5/5
f 387/5/5 381/5/5 386/5/5
f 388/5/5 383/5/5 382/5/5
f 388/5/5 384/5/5 383/5/5
f 389/5/5 384/5/5 388/5/5
f 391/5/5 386/5/5 385/5/5
f 392/5/5 386/5/5 391/5/5
f 395/5/5 390/5/5 389/5/5
f 396/5/5 390/5/5 395/5/5
f 397/5/5 393/5/5 392/5/5
f 398/5/5 393/5/5 397/5/5
f 399/5/5 395/5/5 394/5/5
f 400/5/5 395/5/5 399/5/5
f 401/5/5 399/5/5 398/5/5
f 402/5/5 399/5/5 401/5/5
f 405/5/5 404/5/5 403/5/5
f 406/5/5 404/5/5 405/5/5
f 407/6/6 408/6/6 409/6/6
f 409/6/6 408/6/6 410/6/6
f 411/6/6 412/6/6 413/6/6
f 413/6/6 412/6/6 414/6/6
f 415/6/6 416/6/6 417/6/6
f 417/6/6 416/6/6 418/6/6
f 419/5/6 420/5/6 421/5/6
f 421/5/6 420/5/6 422/5/6
f 423/5/6 424/5/6 426/5/6
f 426/5/6 424/5/6 427/5/6
f 425/5/6 426/5/6 430/5/6
f 430/5/6 426/5/6 431/5/6
f 427/5/6 428/5/6 432/5/6
f 432/5/6 428/5/6 433/5/6
f 429/5/6 430/5/6 435/5/6
f 435/5/6 430/5/6 436/5/6
f 433/5/6 434/5/6 439/5/6
f 439/5/6 434/5/6 440/5/6
f 436/5/6 437/5/6 441/5/6
f 441/5/6 437/5/6 442/5/6
f 438/5/6 439/5/6 443/5/6
f 443/5/6 439/5/6 444/5/6
f 442/5/6 443/5/6 445/5/6
f 445/5/6 443/5/6 446/5/6
f 447/5/6 448/5/6 450/5/6
f 450/5/6 448/5/6 451/5/6
f 449/5/6 450/5/6 453/5/6
f 450/4/6 451/4/6 454/4/6
f 453/5/6 450/5/6 454/5/6
f 451/5/6 452/5/6 455/5/6
f 454/4/6 451/4/6 455/4/6
f 455/5/6 452/5/6 456/5/6
f 454/5/6 455/5/6 457/5/6
f 457/5/6 455/5/6 458/5/6
